{"glyphs":{"0":{"ha":763,"x_min":31,"x_max":733,"o":"m 389 684 q 528 657 465 684 q 636 583 591 630 q 707 473 682 536 q 733 337 733 410 q 705 200 733 264 q 629 87 677 135 q 515 11 581 39 q 374 -17 450 -17 q 236 10 299 -17 q 127 84 173 37 q 57 194 82 131 q 31 330 31 257 q 59 467 31 402 q 135 580 87 531 q 249 656 183 628 q 389 684 314 684 m 382 19 q 448 44 419 19 q 494 111 476 69 q 522 211 513 154 q 531 333 531 268 q 522 456 531 399 q 494 555 513 513 q 448 623 476 598 q 382 647 419 647 q 316 623 344 647 q 269 555 288 598 q 242 456 251 513 q 233 333 233 399 q 242 211 233 268 q 269 111 251 154 q 316 44 288 69 q 382 19 344 19 z "},"1":{"ha":764,"x_min":181,"x_max":612,"o":"m 490 119 q 506 70 490 89 q 540 41 521 51 q 578 25 560 30 q 601 20 596 21 q 609 16 607 19 q 611 9 612 13 q 607 3 610 6 q 599 0 604 0 l 194 0 q 186 3 189 0 q 182 9 183 6 q 184 16 181 13 q 192 20 186 19 q 215 25 197 21 q 253 41 233 30 q 288 70 272 51 q 303 119 303 89 l 303 417 q 281 446 303 439 q 266 449 279 447 q 236 455 252 451 q 206 460 220 458 q 190 463 192 463 q 181 471 181 465 q 191 483 181 477 q 267 527 229 503 q 341 577 305 551 q 409 630 376 603 q 471 683 442 657 q 483 688 476 689 q 490 676 490 686 l 490 119 z "},"2":{"ha":695,"x_min":21,"x_max":643,"o":"m 618 265 q 635 273 628 276 q 642 260 643 269 q 638 237 641 255 q 631 195 635 219 q 622 142 626 170 q 612 89 617 114 q 604 45 608 64 q 600 21 601 26 q 593 4 597 8 q 574 0 588 0 l 35 0 l 33 0 q 23 6 26 1 q 26 19 21 12 q 73 80 48 53 q 124 128 98 106 q 178 172 151 151 q 232 217 205 193 q 286 269 259 240 q 338 335 313 297 q 364 387 354 358 q 376 447 374 417 q 374 506 379 477 q 354 558 369 535 q 315 595 340 581 q 256 609 291 609 q 203 602 226 609 q 160 584 179 595 q 124 560 140 574 q 94 534 108 547 q 79 530 85 526 q 78 547 73 534 q 107 590 88 566 q 157 635 126 614 q 230 670 188 656 q 328 684 272 684 q 428 668 383 684 q 505 621 474 651 q 554 549 537 591 q 572 455 572 506 q 559 376 572 410 q 524 314 546 341 q 472 266 501 287 q 410 230 443 246 q 342 201 377 214 q 275 176 308 188 q 233 158 255 168 q 190 138 212 149 l 329 138 q 373 139 350 138 q 420 145 397 141 q 466 156 444 149 q 508 171 489 162 q 545 194 528 180 q 578 222 563 208 q 603 248 592 236 q 618 265 613 260 z "},"3":{"ha":763,"x_min":92,"x_max":613,"o":"m 325 261 q 385 274 353 270 q 449 273 417 277 q 510 256 481 269 q 563 221 540 244 q 599 164 585 198 q 613 84 613 131 q 575 -48 613 15 q 469 -159 537 -110 q 309 -240 402 -208 q 106 -281 217 -272 q 97 -279 101 -281 q 93 -273 94 -276 q 94 -266 92 -270 q 101 -260 96 -262 q 134 -248 108 -257 q 193 -223 159 -238 q 265 -184 227 -207 q 335 -131 303 -161 q 388 -61 367 -100 q 408 26 408 -22 q 390 124 408 88 q 348 179 372 160 q 299 203 324 198 q 261 208 274 208 q 238 207 250 208 q 214 204 225 206 q 200 209 203 203 q 206 222 197 215 q 224 235 209 225 q 260 260 240 244 q 304 299 281 276 q 346 350 327 322 q 378 415 365 379 q 391 492 391 450 q 359 575 391 544 q 267 607 326 607 q 224 599 245 607 q 186 581 203 592 q 155 560 168 571 q 135 544 142 550 q 123 543 128 539 q 122 556 118 548 q 144 583 124 562 q 199 626 165 603 q 281 666 233 649 q 388 684 329 684 q 444 677 417 684 q 496 657 472 671 q 537 623 519 644 q 563 573 555 602 q 571 497 575 533 q 552 430 567 461 q 512 371 537 398 q 457 323 488 344 q 392 286 426 301 q 325 261 358 270 z "},"4":{"ha":765,"x_min":-3,"x_max":723,"o":"m 723 14 q 719 4 723 8 q 709 0 715 0 l 637 0 q 627 -4 631 0 q 623 -14 623 -8 l 623 -198 q 619 -216 623 -210 q 603 -226 616 -222 q 574 -235 594 -228 q 532 -249 554 -242 q 489 -263 510 -256 q 458 -274 469 -270 q 435 -258 435 -281 l 435 -14 q 431 -4 435 -8 q 422 0 427 0 l 22 0 q 2 9 7 0 q 9 31 -3 17 q 36 60 12 33 q 100 128 61 86 q 188 223 138 170 q 289 332 237 276 q 391 442 340 388 q 482 541 441 497 q 552 617 524 586 q 588 656 581 647 q 601 664 594 663 q 612 663 607 665 q 620 656 617 661 q 623 645 623 651 l 623 139 q 627 129 623 133 q 637 125 631 125 l 709 125 q 719 121 715 125 q 723 111 723 117 l 723 14 m 435 410 q 431 418 435 417 q 421 414 426 419 q 401 392 419 413 q 355 342 382 372 q 295 278 327 313 q 236 215 264 244 q 189 164 208 185 q 168 141 170 143 q 165 130 162 134 q 174 125 168 125 l 422 125 q 431 129 427 125 q 435 139 435 133 l 435 410 z "},"5":{"ha":764,"x_min":117,"x_max":642,"o":"m 134 265 l 134 761 q 141 775 134 772 q 155 778 149 778 q 249 764 203 778 q 340 735 294 750 q 432 712 386 719 q 526 702 478 704 q 559 701 542 701 q 594 703 576 701 q 603 698 601 703 q 600 686 605 692 q 554 645 583 665 q 488 610 525 626 q 406 585 450 594 q 314 576 362 576 q 244 583 278 576 q 191 603 210 591 q 183 605 186 607 q 179 598 179 603 l 179 324 q 183 318 179 319 q 191 320 187 317 q 215 335 194 323 q 267 361 235 348 q 339 386 299 375 q 422 397 379 397 q 510 385 469 397 q 579 347 550 372 q 625 281 608 321 q 642 188 642 242 q 631 116 642 156 q 597 35 621 76 q 535 -46 574 -6 q 440 -118 497 -86 q 307 -171 383 -150 q 132 -196 231 -192 q 122 -193 126 -196 q 117 -187 118 -191 q 120 -180 117 -184 q 131 -174 123 -176 q 186 -156 154 -167 q 253 -127 219 -144 q 322 -86 288 -110 q 382 -30 356 -62 q 425 45 409 3 q 442 140 442 87 q 428 220 442 190 q 392 267 414 251 q 344 288 370 283 q 294 293 318 293 q 254 288 276 293 q 213 277 233 283 q 178 264 193 271 q 157 254 163 258 q 140 251 145 247 q 134 265 134 256 z "},"6":{"ha":764,"x_min":110,"x_max":656,"o":"m 391 -17 q 281 0 332 -17 q 191 56 229 18 q 132 154 153 94 q 110 299 110 214 q 124 418 110 354 q 164 546 138 481 q 228 673 190 610 q 318 788 267 735 q 432 881 369 841 q 569 942 495 921 q 582 942 578 944 q 588 936 587 940 q 586 928 589 933 q 578 921 583 924 q 510 872 542 902 q 452 802 478 841 q 405 719 426 764 q 367 628 383 674 q 339 535 351 581 q 321 446 328 488 q 335 468 325 458 q 361 488 346 479 q 395 501 376 496 q 435 506 415 506 q 517 491 477 506 q 588 444 558 476 q 638 365 619 413 q 656 252 656 317 q 634 141 656 191 q 576 56 613 92 q 492 2 540 21 q 391 -17 444 -17 m 385 448 q 349 431 364 448 q 323 385 333 414 q 308 316 313 356 q 303 233 303 277 q 308 149 303 188 q 323 81 313 110 q 349 34 333 51 q 385 17 364 17 q 421 34 406 17 q 446 81 436 51 q 461 149 456 110 q 466 233 466 188 q 461 316 466 277 q 446 385 456 356 q 421 431 436 414 q 385 448 406 448 z "},"7":{"ha":763,"x_min":17,"x_max":758,"o":"m 622 489 q 627 504 628 498 q 615 510 627 510 l 345 510 q 235 501 281 510 q 152 472 190 491 q 115 448 133 462 q 83 418 97 433 q 58 391 68 403 q 42 374 47 378 q 25 366 33 363 q 19 379 17 369 q 25 402 19 382 q 40 450 31 422 q 58 511 48 478 q 77 572 68 544 q 92 621 85 601 q 99 646 98 642 q 107 663 103 658 q 126 667 111 667 l 739 667 q 753 663 748 667 q 751 647 758 659 q 608 380 666 504 q 510 155 549 256 q 448 -22 471 53 q 410 -144 424 -98 q 394 -184 403 -166 q 373 -216 385 -203 q 343 -237 360 -230 q 302 -245 326 -245 q 266 -238 281 -245 q 239 -218 250 -231 q 223 -190 228 -206 q 218 -156 218 -174 q 233 -95 218 -132 q 269 -18 247 -58 q 315 63 290 23 q 360 131 340 102 q 397 184 373 151 q 450 256 422 217 q 508 335 478 295 q 562 408 538 375 q 603 464 587 442 q 622 489 619 486 z "},"8":{"ha":764,"x_min":72,"x_max":683,"o":"m 494 524 q 488 517 489 521 q 493 510 488 513 q 563 475 528 493 q 624 431 597 456 q 666 371 650 406 q 683 285 683 336 q 655 156 683 212 q 583 61 628 99 q 479 2 538 22 q 358 -17 420 -17 q 251 -5 303 -17 q 160 34 200 8 q 96 103 120 61 q 72 202 72 144 q 88 275 72 241 q 128 339 103 310 q 185 392 153 368 q 247 434 216 416 q 252 442 252 438 q 247 449 252 446 q 193 483 219 465 q 148 525 167 501 q 116 581 128 549 q 103 652 103 612 q 124 756 103 708 q 182 839 144 804 q 270 893 219 874 q 383 913 322 913 q 461 907 422 913 q 535 887 501 901 q 597 847 570 872 q 635 783 624 822 q 640 707 647 744 q 611 635 632 669 q 559 573 590 601 q 494 524 528 545 m 366 878 q 332 871 349 878 q 301 848 315 863 q 279 810 288 833 q 270 757 270 788 q 277 704 270 728 q 299 656 283 680 q 340 609 315 633 q 403 560 366 586 q 420 549 412 555 q 438 539 429 544 q 454 536 448 533 q 465 546 460 539 q 490 604 481 569 q 500 683 500 638 q 491 762 500 726 q 466 824 483 798 q 424 864 449 850 q 366 878 399 878 m 378 19 q 433 31 410 19 q 470 62 456 42 q 493 106 485 81 q 501 158 501 131 q 490 234 501 200 q 459 296 479 268 q 411 348 440 324 q 349 394 383 372 q 329 406 340 400 q 307 417 319 412 q 276 412 288 426 q 234 341 251 382 q 218 244 218 299 q 233 145 218 188 q 270 75 247 103 q 322 33 293 47 q 378 19 350 19 z "},"9":{"ha":763,"x_min":93,"x_max":639,"o":"m 358 684 q 469 666 417 684 q 558 610 520 649 q 617 512 596 572 q 639 368 639 452 q 625 249 639 313 q 586 121 612 185 q 521 -6 560 56 q 431 -121 482 -68 q 317 -215 380 -174 q 180 -275 254 -255 q 167 -275 172 -277 q 161 -270 163 -274 q 163 -261 160 -266 q 171 -254 165 -257 q 239 -205 208 -236 q 297 -136 271 -174 q 345 -52 324 -97 q 382 39 366 -8 q 410 132 399 85 q 428 221 422 178 q 414 198 424 209 q 388 179 403 188 q 354 166 373 171 q 315 160 335 160 q 232 175 272 160 q 161 222 192 190 q 112 301 131 253 q 93 415 93 349 q 115 525 93 476 q 173 610 137 575 q 258 665 210 646 q 358 684 306 684 m 365 219 q 401 236 385 219 q 426 282 416 253 q 441 350 436 311 q 446 434 446 390 q 441 518 446 478 q 426 586 436 557 q 401 632 416 615 q 365 649 385 649 q 328 632 344 649 q 303 586 313 615 q 288 518 293 557 q 283 434 283 478 q 288 350 283 390 q 303 282 293 311 q 328 236 313 253 q 365 219 344 219 z "},"a":{"ha":673,"x_min":19,"x_max":657,"o":"m 636 64 q 651 60 646 66 q 652 44 657 54 q 639 26 648 37 q 614 7 629 16 q 575 -8 598 -2 q 522 -15 553 -15 q 451 2 480 -15 q 411 42 422 19 q 403 47 408 47 q 394 42 398 46 q 382 31 392 40 q 351 11 371 22 q 303 -9 331 0 q 240 -17 276 -17 q 136 0 178 -17 q 68 45 94 17 q 30 107 42 72 q 19 175 19 141 q 50 271 19 230 q 130 332 81 312 q 185 347 156 342 q 242 356 214 351 q 298 368 271 361 q 350 392 326 376 q 386 437 376 410 q 396 494 396 464 q 390 537 396 517 q 373 573 384 558 q 348 597 363 588 q 317 606 334 606 q 274 591 288 606 q 252 554 260 576 q 237 509 244 533 q 215 469 230 486 q 182 450 202 456 q 144 443 163 443 q 111 449 126 443 q 86 466 97 456 q 70 491 76 477 q 65 522 65 506 q 76 565 65 543 q 113 603 86 586 q 185 632 140 621 q 299 642 230 642 q 431 627 376 642 q 520 581 485 611 q 570 507 554 551 q 585 407 585 463 q 581 281 585 340 q 575 176 577 222 q 577 101 574 131 q 597 65 581 72 q 614 61 603 61 q 636 64 624 62 m 395 374 q 392 380 395 378 q 385 378 388 381 q 375 366 380 372 q 363 353 371 360 q 336 327 350 339 q 308 302 322 315 q 281 280 294 291 q 256 256 267 269 q 229 210 238 235 q 220 158 220 185 q 226 120 220 139 q 243 86 231 101 q 272 61 254 71 q 315 52 290 52 q 355 63 340 52 q 380 88 371 73 q 392 117 388 102 q 395 140 395 132 l 395 374 z "},"b":{"ha":790,"x_min":10,"x_max":768,"o":"m 497 642 q 594 628 553 642 q 666 588 636 613 q 716 531 697 563 q 748 464 736 499 q 764 393 759 428 q 768 326 768 358 q 749 185 768 248 q 691 76 730 122 q 594 7 653 31 q 458 -17 536 -17 q 381 -12 415 -17 q 320 4 348 -6 q 270 30 293 15 q 223 67 247 46 q 218 69 220 69 q 212 67 215 70 q 191 48 204 60 q 162 22 177 36 q 132 -8 147 7 q 108 -33 117 -22 q 96 -36 102 -39 q 90 -25 90 -34 l 90 431 q 90 543 90 488 q 90 650 90 599 q 90 744 90 701 q 90 819 90 787 q 90 869 90 851 q 90 887 90 887 q 82 898 90 896 q 72 900 81 898 q 52 905 63 903 q 32 910 41 908 q 20 913 22 913 q 11 922 11 915 q 21 932 10 930 q 80 949 48 938 q 143 973 111 960 q 205 1002 175 987 q 258 1034 235 1018 q 271 1038 265 1038 q 278 1027 278 1037 l 278 546 q 282 542 279 543 q 287 545 285 542 q 308 569 293 553 q 348 602 322 585 q 410 630 373 618 q 497 642 447 642 m 567 294 q 566 335 567 310 q 562 391 566 361 q 550 451 558 421 q 526 506 542 482 q 485 546 510 531 q 423 562 460 562 q 347 544 376 562 q 303 502 319 527 q 283 449 288 477 q 278 399 278 421 l 278 212 q 284 153 278 185 q 306 91 290 120 q 347 42 321 62 q 415 22 374 22 q 484 43 456 22 q 532 100 513 64 q 558 186 550 137 q 567 294 567 236 z "},"c":{"ha":639,"x_min":22,"x_max":626,"o":"m 341 604 q 290 585 313 604 q 250 531 267 566 q 224 448 233 497 q 215 340 215 399 q 230 233 215 280 q 272 153 245 186 q 333 103 298 121 q 410 86 369 86 q 482 98 449 86 q 541 124 515 110 q 582 152 566 139 q 605 168 599 165 q 620 166 615 172 q 620 149 626 160 q 606 126 616 141 q 580 92 597 110 q 541 54 564 74 q 488 19 518 35 q 420 -7 458 3 q 335 -17 382 -17 q 206 3 263 -17 q 107 65 148 24 q 44 164 66 105 q 22 297 22 222 q 39 415 22 363 q 83 504 56 466 q 146 569 110 542 q 218 611 181 595 q 292 635 256 628 q 357 642 328 642 q 444 634 404 642 q 512 609 483 625 q 556 573 540 594 q 572 527 572 551 q 565 491 572 506 q 546 467 558 476 q 520 453 535 458 q 492 449 506 449 q 452 457 471 449 q 422 483 434 465 q 408 517 413 496 q 395 557 402 538 q 376 590 388 576 q 341 604 364 604 z "},"d":{"ha":800,"x_min":22,"x_max":794,"o":"m 784 20 q 792 16 790 19 q 794 9 794 13 q 790 3 793 6 q 781 0 787 0 l 530 0 q 518 3 522 0 q 513 15 513 7 l 513 76 q 510 82 513 81 q 503 80 506 83 q 483 56 497 72 q 443 23 468 40 q 380 -5 417 7 q 293 -17 343 -17 q 196 -3 238 -17 q 124 37 154 12 q 74 94 94 62 q 43 161 54 126 q 27 232 31 197 q 22 299 22 267 q 41 440 22 376 q 99 549 60 503 q 195 618 138 594 q 332 642 253 642 q 408 637 376 642 q 460 625 440 632 q 492 613 481 619 q 503 606 502 607 q 510 605 507 603 q 513 610 513 606 l 513 891 q 505 902 513 900 q 495 904 503 902 q 475 909 486 906 q 455 914 464 912 q 443 917 445 916 q 434 926 434 919 q 444 936 433 933 q 502 953 471 942 q 566 977 534 964 q 628 1007 598 991 q 681 1038 658 1022 q 694 1042 688 1042 q 701 1031 701 1041 l 701 109 q 712 64 701 81 q 737 38 723 47 q 765 25 751 28 q 784 20 778 21 m 513 413 q 510 451 513 431 q 502 493 508 472 q 486 534 496 515 q 460 569 476 553 q 424 593 445 584 q 376 603 403 603 q 306 582 335 603 q 259 525 277 561 q 233 439 241 488 q 224 331 224 389 q 225 290 224 316 q 229 234 225 264 q 241 174 233 204 q 265 119 249 143 q 306 79 281 94 q 368 63 331 63 q 444 81 415 63 q 488 123 472 98 q 508 176 503 148 q 513 226 513 204 l 513 413 z "},"e":{"ha":630,"x_min":22,"x_max":603,"o":"m 229 368 q 218 356 218 368 q 231 235 218 285 q 267 152 243 184 q 327 104 291 119 q 410 89 363 89 q 474 97 446 89 q 523 114 502 104 q 557 133 544 124 q 576 145 570 142 q 592 143 586 149 q 592 126 597 138 q 582 109 590 122 q 561 81 575 97 q 526 48 547 65 q 477 16 506 31 q 411 -8 448 1 q 328 -17 374 -17 q 202 5 258 -17 q 106 68 146 26 q 44 169 66 110 q 22 304 22 229 q 49 449 22 386 q 120 555 76 513 q 219 620 164 598 q 333 642 275 642 q 428 627 387 642 q 500 589 469 613 q 550 535 530 565 q 582 476 569 506 q 599 422 594 447 q 603 381 603 396 q 599 371 603 374 q 587 368 594 368 l 229 368 m 222 414 q 230 405 220 405 q 244 405 232 405 q 273 406 256 406 q 309 408 290 407 q 346 409 328 408 q 377 410 364 410 q 393 411 390 410 q 416 421 404 412 q 428 452 428 430 q 423 499 428 472 q 405 549 417 525 q 374 589 393 572 q 328 605 356 605 q 291 593 307 605 q 264 564 275 582 q 244 523 252 545 q 232 480 237 501 q 225 441 227 458 q 222 414 222 423 z "},"f":{"ha":477,"x_min":14,"x_max":576,"o":"m 391 1038 q 465 1029 431 1038 q 524 1003 499 1019 q 563 966 549 988 q 576 920 576 944 q 555 860 576 884 q 496 837 533 837 q 435 858 458 837 q 413 918 413 880 q 413 943 413 928 q 412 972 414 958 q 403 995 410 985 q 381 1006 396 1006 q 341 988 356 1006 q 317 937 326 969 q 306 860 309 905 q 303 763 303 815 l 303 631 q 308 625 303 625 l 437 625 q 457 623 453 625 q 461 614 461 621 q 452 595 461 605 q 431 585 442 585 l 308 585 q 303 580 303 585 l 303 113 q 315 67 303 84 q 343 39 327 49 q 373 25 358 29 q 394 20 388 21 q 402 16 399 19 q 403 9 404 13 q 400 3 403 6 q 391 0 397 0 l 27 0 q 18 3 22 0 q 15 9 15 6 q 16 16 14 13 q 24 20 19 19 q 45 25 30 21 q 75 39 60 29 q 103 67 91 49 q 115 113 115 84 l 115 579 q 110 585 115 585 l 90 585 q 69 587 73 585 q 65 596 65 589 q 73 615 65 605 q 93 625 81 625 l 110 625 q 115 631 115 625 q 118 752 115 702 q 126 838 120 802 q 143 900 133 874 q 169 949 153 926 q 214 992 188 974 q 268 1019 239 1009 q 328 1034 297 1030 q 391 1038 360 1038 z "},"g":{"ha":694,"x_min":-13,"x_max":716,"o":"m 456 73 q 582 41 531 60 q 662 -1 632 23 q 704 -53 692 -24 q 716 -116 716 -82 q 708 -161 716 -137 q 683 -207 701 -185 q 636 -250 665 -230 q 565 -286 608 -270 q 465 -310 523 -301 q 333 -319 408 -319 q 204 -312 259 -319 q 111 -293 149 -305 q 48 -265 72 -281 q 10 -232 24 -249 q -8 -198 -3 -215 q -13 -166 -13 -181 q -2 -124 -13 -144 q 30 -86 9 -103 q 79 -56 50 -69 q 144 -36 108 -43 q 148 -32 148 -35 q 145 -27 149 -30 q 97 20 116 -8 q 78 87 78 48 q 88 133 78 113 q 113 168 97 153 q 153 194 130 183 q 204 211 176 205 q 209 216 209 213 q 205 221 209 219 q 141 255 169 234 q 93 300 113 275 q 63 356 74 326 q 52 418 52 385 q 75 505 52 464 q 138 576 98 545 q 233 625 178 607 q 350 642 288 642 q 497 613 432 642 q 513 614 507 609 q 532 638 527 625 q 538 663 538 650 q 536 687 538 676 q 535 708 535 699 q 549 747 535 730 q 593 765 564 765 q 638 747 622 765 q 654 699 654 729 q 646 661 654 678 q 625 630 638 644 q 593 606 611 617 q 556 590 576 596 q 551 584 551 588 q 554 579 551 581 q 614 509 592 549 q 635 422 635 469 q 612 335 635 376 q 549 264 589 294 q 455 216 509 233 q 338 198 400 198 q 306 200 322 198 q 274 199 290 201 q 246 188 259 197 q 233 163 233 178 q 242 138 233 149 q 275 116 251 126 q 343 95 299 106 q 456 73 387 85 m 344 608 q 304 593 321 608 q 276 553 287 578 q 259 493 265 527 q 253 420 253 459 q 259 347 253 381 q 276 288 265 313 q 304 247 287 262 q 344 233 321 233 q 383 247 367 233 q 411 288 400 262 q 428 347 423 313 q 434 420 434 381 q 428 493 434 459 q 411 553 423 527 q 383 593 400 578 q 344 608 367 608 m 363 -280 q 427 -274 394 -280 q 488 -257 460 -268 q 534 -228 516 -245 q 551 -188 551 -210 q 535 -152 551 -167 q 492 -126 519 -137 q 430 -107 465 -115 q 360 -94 396 -100 q 286 -80 328 -88 q 206 -57 245 -72 q 197 -57 202 -56 q 153 -84 172 -66 q 135 -135 135 -102 q 154 -201 135 -174 q 205 -245 174 -228 q 278 -272 237 -263 q 363 -280 319 -280 z "},"h":{"ha":805,"x_min":13,"x_max":804,"o":"m 794 20 q 802 16 799 19 q 803 9 804 13 q 800 3 803 6 q 791 0 797 0 l 710 0 l 704 0 l 529 0 l 523 0 l 442 0 q 434 3 437 0 q 430 9 431 6 q 432 16 429 13 q 440 20 434 19 q 459 25 445 21 q 486 38 472 28 q 512 64 501 47 q 523 109 523 81 l 523 364 l 523 369 l 523 408 q 518 468 522 438 q 502 525 515 499 q 467 566 490 550 q 405 583 444 583 q 342 567 365 583 q 309 527 320 551 q 296 477 299 503 q 294 429 294 450 l 294 109 q 305 64 294 81 q 330 38 316 47 q 358 25 344 28 q 377 20 372 21 q 385 16 383 19 q 387 9 388 13 q 383 3 386 6 q 374 0 380 0 l 26 0 q 17 3 20 0 q 13 9 14 6 q 15 16 13 13 q 23 20 17 19 q 42 25 28 21 q 70 38 56 28 q 95 64 84 47 q 106 109 106 81 l 106 891 q 98 902 106 900 q 88 904 97 902 q 68 909 79 906 q 48 914 57 912 q 36 917 38 916 q 27 926 27 919 q 37 936 26 933 q 95 953 64 942 q 159 977 127 964 q 221 1007 191 991 q 274 1038 251 1022 q 287 1042 281 1042 q 294 1031 294 1041 l 294 576 q 327 601 308 589 q 369 622 346 613 q 421 637 392 631 q 485 642 450 642 q 580 630 542 642 q 644 597 619 617 q 683 549 669 576 q 702 492 697 522 q 709 434 708 463 q 710 381 710 406 l 710 377 l 710 109 q 722 64 710 81 q 747 38 733 47 q 775 25 761 28 q 794 20 788 21 z "},"i":{"ha":398,"x_min":16,"x_max":391,"o":"m 297 635 q 291 646 297 645 q 278 642 284 647 q 224 611 254 626 q 163 582 194 595 q 99 557 131 568 q 40 540 67 547 q 30 530 30 538 q 40 521 31 523 q 51 518 42 520 q 72 513 60 516 q 91 508 83 510 q 101 506 100 506 q 110 495 110 504 l 110 109 q 99 64 110 81 q 73 38 88 47 q 45 25 59 28 q 26 20 32 21 q 18 16 21 19 q 17 9 16 13 q 20 3 17 6 q 29 0 24 0 l 378 0 q 386 3 383 0 q 390 9 390 6 q 389 16 391 13 q 381 20 386 19 q 361 25 375 21 q 334 38 348 28 q 308 64 319 47 q 297 109 297 81 l 297 635 m 311 848 q 302 805 311 825 q 277 769 293 784 q 240 745 261 754 q 194 736 219 736 q 149 745 169 736 q 114 768 128 753 q 90 803 99 783 q 82 846 82 823 q 91 889 82 869 q 116 925 100 910 q 153 949 131 940 q 199 958 174 958 q 244 950 224 958 q 280 926 265 941 q 303 891 294 911 q 311 848 311 871 z "},"j":{"ha":400,"x_min":-109,"x_max":308,"o":"m 294 -6 l 294 635 q 287 646 294 645 q 274 642 281 647 q 221 611 251 626 q 159 582 191 595 q 95 557 127 568 q 37 540 64 547 q 27 530 26 538 q 36 521 27 523 q 48 518 38 520 q 68 513 57 516 q 88 508 79 510 q 98 506 97 506 q 106 495 106 504 l 106 31 q 109 -60 106 -26 q 117 -115 113 -94 q 127 -148 122 -135 q 137 -174 133 -160 q 145 -206 142 -189 q 148 -239 149 -224 q 140 -267 147 -255 q 119 -283 133 -278 q 97 -282 106 -286 q 82 -272 88 -278 q 71 -256 75 -265 q 65 -241 67 -247 q 57 -219 63 -235 q 41 -188 51 -204 q 14 -159 31 -172 q -28 -147 -3 -147 q -86 -166 -64 -147 q -109 -222 -109 -185 q -98 -264 -109 -244 q -66 -299 -87 -284 q -14 -322 -44 -313 q 55 -331 16 -331 q 104 -327 78 -331 q 157 -311 131 -323 q 209 -277 184 -299 q 252 -219 233 -256 q 282 -131 271 -183 q 294 -6 294 -79 m 308 848 q 299 805 308 825 q 274 769 290 784 q 236 745 258 754 q 190 736 215 736 q 145 745 166 736 q 110 768 125 753 q 87 803 95 783 q 78 846 78 823 q 88 889 78 869 q 112 925 97 910 q 149 949 128 940 q 195 958 171 958 q 241 950 220 958 q 276 926 261 941 q 299 891 291 911 q 308 848 308 871 z "},"k":{"ha":780,"x_min":5,"x_max":846,"o":"m 836 21 q 845 8 846 16 q 833 0 845 0 l 456 0 q 443 8 444 0 q 453 20 442 17 q 474 28 463 23 q 493 41 485 33 q 502 61 501 49 q 496 90 504 73 q 484 107 494 94 q 459 137 474 119 q 429 175 445 155 q 397 213 413 195 q 370 245 382 231 q 353 264 358 259 q 332 285 340 278 q 315 291 324 291 q 298 284 302 291 q 294 263 294 276 l 294 113 q 306 67 294 84 q 334 39 318 49 q 364 25 349 29 q 385 20 379 21 q 393 16 390 19 q 394 9 395 13 q 391 3 394 6 q 382 0 388 0 l 18 0 q 9 3 13 0 q 6 9 6 6 q 7 16 5 13 q 15 20 10 19 q 36 25 21 21 q 66 39 51 29 q 94 67 82 49 q 106 113 106 84 l 106 891 q 98 902 106 900 q 88 904 97 902 q 68 909 79 906 q 48 914 57 912 q 36 917 38 916 q 27 926 27 919 q 37 936 26 933 q 95 953 64 942 q 159 977 127 964 q 221 1007 191 991 q 274 1038 251 1022 q 287 1042 281 1042 q 294 1031 294 1041 l 294 362 q 299 335 294 344 q 319 326 305 326 q 347 338 337 326 q 382 381 362 355 q 422 436 402 408 q 460 493 442 465 q 489 538 478 520 q 501 574 502 560 q 492 594 500 587 q 473 603 483 601 q 456 606 462 605 q 448 610 451 607 q 447 617 446 614 q 450 624 447 621 q 459 626 453 626 l 658 626 q 667 624 664 626 q 670 617 670 621 q 668 610 670 613 q 660 606 665 607 q 642 601 654 606 q 613 588 629 597 q 576 565 596 579 q 538 530 557 551 q 520 508 532 524 q 496 475 508 492 q 474 443 483 458 q 463 427 464 429 q 464 411 459 418 q 486 381 469 403 q 529 326 504 358 q 583 260 554 295 q 640 193 613 225 q 690 135 667 160 q 724 99 713 110 q 760 69 742 83 q 793 45 778 56 q 820 29 809 35 q 836 21 832 23 z "},"l":{"ha":401,"x_min":6,"x_max":396,"o":"m 294 113 q 307 67 294 84 q 334 39 319 49 q 365 25 350 29 q 385 20 380 21 q 393 16 391 19 q 395 9 396 13 q 391 3 394 6 q 383 0 388 0 l 19 0 q 10 3 13 0 q 6 9 7 6 q 8 16 6 13 q 16 20 10 19 q 36 25 22 21 q 67 39 51 29 q 95 67 83 49 q 107 113 107 84 l 107 891 q 99 902 107 900 q 89 904 97 902 q 69 909 80 906 q 48 914 58 912 q 37 917 39 916 q 27 926 28 919 q 38 936 27 933 q 96 953 65 942 q 160 977 128 964 q 222 1007 192 991 q 275 1038 251 1022 q 288 1042 281 1042 q 294 1031 294 1041 l 294 113 z "},"m":{"ha":1174,"x_min":24,"x_max":1169,"o":"m 1159 20 q 1167 16 1165 19 q 1169 9 1169 13 q 1165 3 1168 6 q 1156 0 1162 0 l 830 0 q 821 3 824 0 q 817 9 818 6 q 819 16 817 13 q 827 20 822 19 q 844 24 833 21 q 868 35 856 27 q 890 60 881 44 q 899 103 899 76 l 899 425 q 894 481 899 453 q 878 532 890 509 q 845 568 867 554 q 789 583 824 583 q 739 572 758 583 q 710 545 720 562 q 695 509 699 529 q 690 469 691 489 l 690 103 q 700 60 690 76 q 721 35 709 44 q 745 24 733 27 q 763 20 757 21 q 770 16 768 19 q 772 9 773 13 q 768 3 772 6 q 760 0 765 0 l 433 0 q 425 3 428 0 q 421 9 422 6 q 423 16 420 13 q 431 20 425 19 q 448 24 436 21 q 472 35 460 27 q 493 60 484 44 q 503 103 503 76 l 503 426 q 498 481 502 453 q 482 532 494 509 q 449 568 470 554 q 392 583 427 583 q 342 572 361 583 q 313 545 324 562 q 298 509 302 529 q 294 468 294 488 l 294 103 q 303 60 294 76 q 325 35 313 44 q 349 24 337 27 q 366 20 360 21 q 374 16 372 19 q 376 9 376 13 q 372 3 375 6 q 363 0 369 0 l 37 0 q 28 3 31 0 q 24 9 25 6 q 26 16 24 13 q 34 20 28 19 q 51 24 40 21 q 75 35 63 27 q 97 60 88 44 q 106 103 106 76 l 106 495 q 98 506 106 504 q 88 508 97 506 q 68 513 79 510 q 48 518 57 516 q 36 521 38 520 q 27 530 27 523 q 37 540 26 538 q 95 557 64 547 q 159 582 127 568 q 221 611 191 595 q 274 642 251 626 q 287 646 281 647 q 294 635 294 645 l 294 584 q 368 625 325 608 q 472 642 412 642 q 542 636 512 642 q 595 618 573 630 q 634 591 618 607 q 660 557 650 576 q 696 588 676 573 q 742 616 716 603 q 799 635 767 628 q 869 642 831 642 q 963 630 925 642 q 1025 597 1001 617 q 1062 549 1049 576 q 1080 492 1074 522 q 1086 434 1085 463 q 1087 381 1087 406 l 1087 377 l 1087 103 q 1096 60 1087 76 q 1118 35 1106 44 q 1142 24 1130 27 q 1159 20 1153 21 z "},"n":{"ha":795,"x_min":10,"x_max":802,"o":"m 792 20 q 800 16 797 19 q 801 9 802 13 q 798 3 801 6 q 789 0 794 0 l 708 0 l 702 0 l 527 0 l 521 0 l 440 0 q 432 3 435 0 q 428 9 428 6 q 430 16 427 13 q 438 20 432 19 q 457 25 443 21 q 484 38 470 28 q 510 64 499 47 q 521 109 521 81 l 521 364 l 521 369 l 521 408 q 516 468 520 438 q 500 525 513 499 q 465 566 488 550 q 403 583 442 583 q 340 567 363 583 q 307 527 318 551 q 294 477 297 503 q 292 429 292 450 l 292 109 q 303 64 292 81 q 328 38 314 47 q 356 25 342 28 q 375 20 369 21 q 383 16 381 19 q 385 9 385 13 q 381 3 384 6 q 372 0 378 0 l 24 0 q 15 3 18 0 q 11 9 12 6 q 13 16 10 13 q 21 20 15 19 q 40 25 26 21 q 68 38 53 28 q 93 64 82 47 q 104 109 104 81 l 104 495 q 96 506 104 504 q 86 508 94 506 q 66 513 77 510 q 45 518 55 516 q 34 521 36 520 q 25 530 25 523 q 35 540 24 538 q 93 557 62 547 q 157 582 125 568 q 219 611 189 595 q 272 642 249 626 q 285 646 278 647 q 292 635 292 645 l 292 576 q 325 601 306 589 q 367 622 344 613 q 419 637 390 631 q 483 642 448 642 q 578 630 540 642 q 642 597 617 617 q 681 549 667 576 q 700 492 694 522 q 707 434 706 463 q 708 381 708 406 l 708 377 l 708 109 q 719 64 708 81 q 745 38 731 47 q 773 25 759 28 q 792 20 786 21 z "},"o":{"ha":704,"x_min":19,"x_max":685,"o":"m 359 642 q 491 617 431 642 q 594 548 551 592 q 661 444 637 503 q 685 316 685 384 q 659 187 685 247 q 587 81 633 126 q 479 9 541 35 q 345 -17 417 -17 q 214 8 274 -17 q 110 77 153 33 q 43 181 67 122 q 19 309 19 240 q 45 438 19 377 q 117 544 72 499 q 225 616 163 590 q 359 642 288 642 m 352 19 q 410 42 385 19 q 451 105 435 65 q 476 199 467 145 q 484 313 484 252 q 476 426 484 373 q 451 520 467 480 q 410 583 435 560 q 352 606 385 606 q 294 583 319 606 q 253 520 269 560 q 228 426 236 480 q 220 313 220 373 q 228 199 220 252 q 253 105 236 145 q 294 42 269 65 q 352 19 319 19 z "},"p":{"ha":803,"x_min":1,"x_max":781,"o":"m 510 642 q 607 628 565 642 q 679 588 649 613 q 729 531 709 563 q 760 464 749 499 q 776 393 772 428 q 781 326 781 358 q 761 185 781 248 q 704 76 742 122 q 607 7 665 31 q 471 -17 549 -17 q 395 -12 427 -17 q 342 0 363 -7 q 311 12 322 6 q 299 19 300 17 q 293 20 296 22 q 290 15 290 19 l 290 -200 q 302 -246 290 -228 q 330 -273 314 -263 q 360 -287 345 -283 q 381 -292 375 -292 q 389 -297 386 -294 q 390 -303 391 -300 q 386 -310 390 -307 q 378 -312 383 -312 l 14 -312 q 5 -310 8 -312 q 1 -303 2 -307 q 3 -297 1 -300 q 11 -292 6 -294 q 32 -287 17 -292 q 62 -273 47 -283 q 90 -246 78 -263 q 102 -200 102 -228 l 102 499 q 94 510 102 508 q 84 512 92 510 q 64 517 75 514 q 43 522 53 519 q 32 524 34 524 q 23 534 23 526 q 33 544 22 541 q 91 561 60 550 q 155 585 123 572 q 217 614 187 599 q 270 646 247 630 q 283 649 276 650 q 290 639 290 649 l 290 549 q 293 543 290 544 q 299 545 297 542 q 320 569 306 553 q 360 602 335 585 q 423 630 385 618 q 510 642 460 642 m 579 294 q 579 335 579 310 q 575 391 578 361 q 563 451 571 421 q 538 506 554 482 q 497 546 522 531 q 435 562 472 562 q 360 544 388 562 q 316 502 331 527 q 296 449 301 477 q 291 399 291 421 l 291 212 q 297 153 291 185 q 318 91 303 120 q 360 42 333 62 q 427 22 386 22 q 497 43 468 22 q 544 100 526 64 q 571 186 563 137 q 579 294 579 236 z "},"q":{"ha":792,"x_min":22,"x_max":802,"o":"m 513 76 q 510 82 513 81 q 503 80 506 83 q 483 56 497 72 q 443 23 468 40 q 380 -5 417 7 q 293 -17 343 -17 q 196 -3 238 -17 q 124 37 154 12 q 74 94 94 62 q 43 161 54 126 q 27 232 31 197 q 22 299 22 267 q 41 440 22 376 q 99 549 60 503 q 195 618 138 594 q 332 642 253 642 q 409 637 376 642 q 470 621 442 631 q 520 595 497 610 q 567 558 544 579 q 572 556 570 556 q 578 558 574 555 q 600 577 586 565 q 628 603 613 589 q 658 633 644 618 q 683 658 673 647 q 694 661 688 664 q 701 650 701 659 l 701 499 l 701 -200 q 713 -246 701 -228 q 741 -273 725 -263 q 771 -287 756 -283 q 792 -292 786 -292 q 800 -297 797 -294 q 801 -303 802 -300 q 798 -310 801 -307 q 789 -312 794 -312 l 425 -312 q 416 -310 419 -312 q 413 -303 413 -307 q 414 -297 412 -300 q 422 -292 417 -294 q 443 -287 428 -292 q 473 -273 458 -283 q 501 -246 489 -263 q 513 -200 513 -228 l 513 76 m 512 413 q 509 451 512 431 q 501 493 507 472 q 485 534 495 515 q 460 569 475 553 q 424 593 444 584 q 376 603 403 603 q 306 582 335 603 q 258 525 276 561 q 232 439 240 488 q 224 331 224 389 q 224 290 224 316 q 228 234 224 264 q 240 174 232 204 q 265 119 249 143 q 306 79 281 94 q 367 63 331 63 q 443 81 415 63 q 487 123 472 98 q 507 176 502 148 q 512 226 512 204 l 512 413 z "},"r":{"ha":540,"x_min":24,"x_max":559,"o":"m 453 642 q 503 635 483 642 q 535 616 523 628 q 553 587 548 603 q 559 553 559 571 q 538 501 559 519 q 481 482 517 482 q 439 492 454 482 q 413 513 424 501 q 393 534 402 524 q 371 544 384 544 q 345 536 359 544 q 320 506 332 528 q 301 444 309 483 q 294 344 294 406 l 294 103 q 303 60 294 76 q 325 35 313 44 q 349 24 337 27 q 366 20 360 21 q 374 16 372 19 q 376 9 376 13 q 372 3 375 6 q 363 0 369 0 l 294 0 l 288 0 l 113 0 l 106 0 l 37 0 q 28 3 31 0 q 24 9 25 6 q 26 16 24 13 q 34 20 28 19 q 51 24 40 21 q 75 35 63 27 q 97 60 88 44 q 106 103 106 76 l 106 495 q 98 506 106 504 q 88 508 97 506 q 68 513 79 510 q 48 518 57 516 q 36 521 38 520 q 27 530 27 523 q 37 540 26 538 q 95 557 64 547 q 159 582 127 568 q 221 611 191 595 q 274 642 251 626 q 287 646 281 647 q 294 635 294 645 l 294 536 q 360 616 318 590 q 453 642 401 642 z "},"s":{"ha":578,"x_min":33,"x_max":544,"o":"m 55 48 q 52 68 55 49 q 45 108 49 86 q 39 150 42 131 q 35 175 35 170 q 40 186 33 185 q 51 183 47 188 q 60 168 51 181 q 83 138 68 156 q 118 99 97 119 q 164 60 138 78 q 219 31 189 42 q 283 19 249 19 q 345 41 322 19 q 367 98 367 63 q 363 135 367 117 q 342 171 358 153 q 296 207 326 189 q 216 242 266 224 q 139 281 170 258 q 88 330 108 303 q 60 389 69 358 q 51 456 51 421 q 61 516 51 483 q 96 576 71 548 q 165 623 122 604 q 277 642 209 642 q 357 635 320 642 q 421 620 394 628 q 465 603 449 611 q 483 595 481 596 q 488 592 488 593 q 490 587 489 590 q 493 568 490 585 q 500 529 497 550 q 507 491 503 508 q 510 472 510 474 q 506 461 512 465 q 494 465 499 458 q 464 503 485 479 q 413 549 443 526 q 347 589 383 572 q 269 606 310 606 q 206 583 226 606 q 186 528 186 560 q 191 495 186 511 q 212 465 196 480 q 258 436 228 451 q 339 406 288 421 q 492 321 440 374 q 544 183 544 267 q 530 103 544 140 q 485 40 515 67 q 407 -2 454 13 q 294 -17 360 -17 q 197 -9 240 -17 q 125 8 154 -1 q 78 27 95 18 q 59 38 62 35 q 57 42 58 39 q 55 48 56 44 z "},"t":{"ha":470,"x_min":40,"x_max":473,"o":"m 449 101 q 467 99 462 107 q 468 83 473 92 q 436 43 456 61 q 393 11 417 24 q 340 -10 369 -3 q 279 -17 311 -17 q 210 -8 244 -17 q 149 24 176 1 q 105 87 122 47 q 88 189 88 127 l 88 579 q 83 585 88 585 l 65 585 q 44 587 48 585 q 40 596 40 589 q 48 615 40 605 q 68 625 56 625 l 83 625 q 88 631 88 625 l 88 797 q 101 814 88 812 q 138 823 118 817 q 178 837 158 829 q 218 855 199 845 q 255 874 238 864 q 269 876 263 878 q 276 862 276 873 l 276 630 q 281 625 276 625 l 412 625 q 432 623 428 625 q 436 614 436 621 q 426 595 436 605 q 405 585 417 585 l 281 585 q 276 580 276 585 l 276 153 q 282 120 276 134 q 300 95 289 106 q 325 81 310 85 q 353 76 339 76 q 409 84 383 76 q 449 101 435 93 z "},"u":{"ha":795,"x_min":-12,"x_max":780,"o":"m 769 20 q 777 16 775 19 q 779 9 780 13 q 775 3 778 6 q 767 0 772 0 l 515 0 q 503 3 508 0 q 499 15 499 7 l 499 56 q 423 5 469 26 q 308 -17 376 -17 q 212 -5 251 -17 q 148 28 174 8 q 109 76 123 49 q 90 133 96 103 q 83 191 84 162 q 82 244 82 219 l 82 516 q 71 561 82 544 q 45 587 60 578 q 18 600 31 597 q -1 605 4 603 q -9 609 -7 606 q -11 616 -12 613 q -7 622 -10 619 q 1 625 -4 625 l 253 625 q 269 607 269 625 l 269 201 q 275 145 270 173 q 291 95 279 117 q 325 58 303 72 q 384 44 347 44 q 445 61 423 44 q 480 102 468 77 q 495 157 492 127 q 499 215 499 188 l 499 516 q 488 561 499 544 q 462 587 476 578 q 434 600 448 597 q 415 605 421 603 q 407 609 410 606 q 406 616 405 613 q 409 622 406 619 q 418 625 413 625 l 669 625 q 686 607 686 625 l 686 109 q 697 64 686 81 q 723 38 708 47 q 750 25 737 28 q 769 20 764 21 z "},"v":{"ha":636,"x_min":-31,"x_max":670,"o":"m 561 512 q 545 477 557 504 q 515 412 533 451 q 477 327 498 374 q 435 234 456 281 q 325 -12 386 124 q 315 -18 322 -18 q 305 -12 308 -18 q 199 233 247 123 q 159 327 179 281 q 122 411 139 373 q 94 477 106 450 q 78 512 82 503 q 58 547 67 532 q 37 573 48 562 q 12 591 26 584 q -21 603 -2 599 q -29 608 -26 605 q -31 616 -31 612 q -27 622 -31 619 q -19 625 -24 625 l 346 625 q 354 622 351 625 q 358 616 358 619 q 357 608 359 612 q 349 603 355 604 q 323 595 338 600 q 296 582 308 591 q 278 557 284 572 q 281 516 273 541 q 293 482 284 505 q 313 431 301 459 q 337 373 324 403 q 360 317 349 342 q 378 275 371 292 q 387 256 385 258 q 397 256 392 247 q 406 279 399 261 q 423 323 413 297 q 445 378 433 349 q 466 435 456 408 q 484 484 476 463 q 495 516 492 506 q 497 557 503 541 q 480 582 492 572 q 455 595 469 591 q 430 603 440 600 q 422 608 424 604 q 420 616 419 612 q 424 622 421 619 q 433 625 427 625 l 658 625 q 666 622 663 625 q 669 616 669 619 q 668 608 670 612 q 660 603 665 605 q 627 591 641 599 q 602 573 613 584 q 581 547 591 562 q 561 512 572 532 z "},"w":{"ha":974,"x_min":-26,"x_max":1002,"o":"m 990 625 q 998 622 994 625 q 1001 616 1001 619 q 1000 608 1002 612 q 992 603 997 605 q 959 591 973 599 q 934 573 945 584 q 913 547 923 562 q 893 512 903 532 q 877 477 889 504 q 847 412 865 451 q 809 327 830 374 q 767 234 788 281 q 657 -12 718 124 q 647 -18 653 -18 q 637 -12 640 -18 q 568 149 599 76 q 542 209 555 179 q 519 264 529 239 q 501 305 508 288 q 492 324 494 321 q 482 324 487 333 q 473 305 480 321 q 454 265 465 289 q 430 210 443 240 q 403 150 417 181 q 331 -12 370 78 q 320 -18 327 -18 q 310 -12 314 -18 q 205 233 253 123 q 165 327 185 281 q 128 411 144 373 q 99 477 111 450 q 83 512 88 503 q 63 547 73 532 q 42 573 53 562 q 17 591 31 584 q -15 603 3 599 q -23 608 -21 605 q -25 616 -26 612 q -22 622 -25 619 q -13 625 -19 625 l 351 625 q 360 622 356 625 q 364 616 363 619 q 363 608 365 612 q 354 603 360 604 q 329 595 344 600 q 302 582 314 591 q 284 557 290 572 q 286 516 278 541 q 298 482 290 505 q 318 431 307 459 q 342 373 330 403 q 366 317 355 342 q 384 275 376 292 q 392 256 391 258 q 402 256 397 247 q 409 273 403 258 q 426 311 416 288 q 450 365 437 335 q 477 426 463 394 q 505 488 491 458 q 529 543 518 518 q 548 584 540 567 q 556 603 555 600 q 567 611 560 610 q 580 603 575 613 q 589 582 582 599 q 606 540 596 565 q 628 484 616 515 q 652 423 640 454 q 676 362 665 392 q 697 309 688 333 q 712 272 706 286 q 719 256 718 257 q 728 256 724 247 q 738 279 731 261 q 755 323 745 297 q 777 378 765 349 q 798 435 788 408 q 816 484 808 463 q 827 516 824 506 q 829 557 835 541 q 812 582 824 572 q 786 595 801 591 q 762 603 772 600 q 753 608 756 604 q 752 616 751 612 q 756 622 753 619 q 765 625 759 625 l 990 625 l 990 625 z "},"x":{"ha":675,"x_min":-3,"x_max":688,"o":"m 142 113 q 153 126 146 117 q 170 147 160 135 q 190 173 179 159 q 211 200 201 186 q 265 269 235 232 q 203 375 231 326 q 178 417 190 396 q 154 456 165 438 q 133 489 142 474 q 119 512 124 503 q 94 545 106 531 q 70 571 83 560 q 43 591 58 583 q 11 603 29 599 q 3 608 6 605 q 1 616 1 612 q 5 622 1 619 q 13 625 8 625 l 370 625 q 378 622 375 625 q 383 616 382 619 q 381 608 383 612 q 373 603 379 604 q 352 595 363 600 q 334 581 341 590 q 327 556 328 572 q 336 516 326 540 q 352 482 342 501 q 370 448 361 464 q 392 410 381 429 q 425 455 410 434 q 450 490 438 473 q 465 516 462 508 q 474 556 474 540 q 467 581 474 572 q 449 595 460 590 q 428 603 439 600 q 420 608 422 604 q 419 616 418 612 q 423 622 419 619 q 431 625 426 625 l 628 625 q 640 617 639 625 q 631 603 642 608 q 578 570 600 589 q 531 521 556 551 q 519 507 526 516 q 503 486 512 498 q 484 462 494 475 q 464 436 474 449 q 414 371 441 406 q 482 255 451 308 q 509 209 495 232 q 534 168 522 187 q 554 134 545 149 q 567 113 563 119 q 617 54 592 76 q 677 22 642 32 q 685 16 683 19 q 687 9 688 13 q 683 3 686 6 q 675 0 680 0 l 310 0 q 302 3 305 0 q 298 9 299 6 q 299 17 297 13 q 308 22 301 21 q 330 30 318 25 q 349 44 342 34 q 359 69 357 53 q 351 109 360 85 q 337 139 348 119 q 315 179 326 159 q 287 230 302 203 q 249 179 266 203 q 234 158 241 169 q 220 139 226 148 q 209 122 214 129 q 202 109 204 114 q 193 69 191 85 q 203 44 194 54 q 223 30 211 35 q 246 22 235 25 q 254 17 252 21 q 256 9 256 13 q 251 3 255 6 q 243 0 248 0 l 10 0 q -1 9 0 0 q 8 22 -3 17 q 78 57 46 34 q 142 113 110 80 z "},"y":{"ha":617,"x_min":-32,"x_max":652,"o":"m 192 -166 l 283 37 q 254 105 272 63 q 215 197 236 147 q 171 299 193 247 q 129 395 149 351 q 96 470 110 439 q 77 512 82 502 q 57 547 67 532 q 36 573 47 562 q 11 591 25 584 q -22 603 -3 599 q -30 608 -27 605 q -32 616 -32 612 q -28 622 -31 619 q -19 625 -25 625 l 328 625 q 336 622 333 625 q 340 616 340 619 q 339 608 341 612 q 331 603 337 604 q 308 595 320 600 q 287 582 296 591 q 275 557 278 572 q 280 516 272 541 q 292 483 283 505 q 310 436 300 462 q 332 383 321 410 q 353 333 343 356 q 369 295 363 310 q 378 277 376 279 q 388 277 383 268 q 397 299 390 282 q 412 339 403 315 q 431 389 421 362 q 451 441 442 416 q 467 486 460 465 q 477 516 474 506 q 482 557 485 541 q 472 582 480 572 q 451 595 463 591 q 429 603 440 600 q 421 608 423 604 q 419 616 419 612 q 423 622 420 619 q 432 625 426 625 l 640 625 q 648 622 644 625 q 651 616 651 619 q 650 608 652 612 q 642 603 647 605 q 610 591 624 599 q 584 573 596 584 q 563 547 573 562 q 543 512 553 532 q 525 474 539 503 q 493 403 512 444 q 452 312 474 361 q 408 214 430 263 q 367 123 387 166 q 335 51 348 80 l 216 -215 q 162 -299 193 -267 q 85 -330 131 -330 q 53 -325 69 -330 q 25 -311 38 -321 q 5 -287 13 -302 q -3 -251 -3 -272 q 4 -217 -3 -231 q 23 -194 11 -203 q 51 -181 35 -185 q 82 -177 66 -177 q 119 -184 103 -177 q 149 -194 135 -190 q 172 -193 162 -197 q 192 -166 183 -188 z "},"z":{"ha":608,"x_min":22,"x_max":588,"o":"m 565 160 q 579 169 570 170 q 588 158 588 168 l 588 13 q 573 0 588 0 l 41 0 q 24 8 27 0 q 27 26 22 17 q 41 50 28 28 q 75 107 54 72 q 123 186 97 142 q 178 279 150 231 q 236 374 207 326 q 289 462 265 422 q 331 533 313 502 q 358 576 349 563 q 358 583 360 581 q 351 585 355 585 l 273 585 q 193 571 226 585 q 138 537 160 556 q 103 498 115 517 q 86 470 90 479 q 72 461 81 460 q 64 473 64 463 l 64 612 q 78 625 64 625 l 567 625 q 585 616 583 625 q 582 599 587 607 q 568 576 581 597 q 534 520 555 554 q 487 441 513 485 q 432 349 460 397 q 374 254 403 301 q 322 166 346 207 q 279 95 297 126 q 252 51 260 65 q 258 41 247 41 l 378 41 q 458 56 425 41 q 514 92 492 72 q 549 132 536 112 q 565 160 561 151 z "},".":{"ha":347,"x_min":69,"x_max":278,"o":"m 278 86 q 269 46 278 65 q 247 13 261 27 q 213 -9 233 -1 q 172 -17 194 -17 q 131 -9 149 -17 q 98 12 112 -1 q 77 44 85 26 q 69 84 69 63 q 78 124 69 105 q 100 157 86 143 q 134 179 115 171 q 176 188 153 188 q 217 180 198 188 q 249 158 235 172 q 270 126 263 144 q 278 86 278 107 z "},",":{"ha":347,"x_min":75,"x_max":273,"o":"m 125 -4 q 107 14 116 5 q 91 34 98 24 q 80 58 84 44 q 75 88 75 71 q 83 126 75 108 q 104 157 90 144 q 136 179 117 171 q 176 187 154 187 q 215 178 197 187 q 246 154 233 169 q 266 119 259 139 q 273 78 273 99 q 257 -8 273 31 q 217 -77 242 -47 q 161 -131 192 -108 q 101 -169 131 -154 q 86 -168 92 -175 q 91 -151 81 -162 q 117 -117 106 -137 q 135 -76 129 -97 q 139 -36 141 -55 q 125 -4 138 -17 z "},":":{"ha":347,"x_min":69,"x_max":278,"o":"m 278 86 q 269 46 278 65 q 247 13 261 27 q 213 -9 233 -1 q 172 -17 194 -17 q 131 -9 149 -17 q 98 12 112 -1 q 77 44 85 26 q 69 84 69 63 q 78 124 69 105 q 100 157 86 143 q 134 179 115 171 q 176 188 153 188 q 217 180 198 188 q 249 158 235 172 q 270 126 263 144 q 278 86 278 107 m 278 541 q 269 501 278 519 q 247 468 261 482 q 213 445 233 453 q 172 438 194 438 q 131 445 149 438 q 98 467 112 453 q 77 499 85 481 q 69 539 69 517 q 78 579 69 560 q 100 612 86 598 q 134 634 115 626 q 176 642 153 642 q 217 634 198 642 q 249 613 235 626 q 270 581 263 599 q 278 541 278 562 z "},";":{"ha":358,"x_min":75,"x_max":283,"o":"m 133 -4 q 115 14 124 5 q 99 34 106 24 q 87 58 92 44 q 83 88 83 71 q 90 126 83 108 q 111 157 98 144 q 143 179 125 171 q 183 187 162 187 q 223 178 205 187 q 254 154 241 169 q 274 119 267 139 q 281 78 281 99 q 265 -8 281 31 q 224 -77 249 -47 q 169 -131 199 -108 q 109 -169 138 -154 q 94 -168 99 -175 q 99 -151 89 -162 q 125 -117 113 -137 q 143 -76 137 -97 q 147 -36 149 -55 q 133 -4 145 -17 m 283 541 q 275 501 283 519 q 252 468 267 482 q 219 445 238 453 q 177 438 199 438 q 136 445 155 438 q 104 467 117 453 q 83 499 90 481 q 75 539 75 517 q 83 579 75 560 q 106 612 92 598 q 140 634 120 626 q 181 642 159 642 q 222 634 203 642 q 255 613 241 626 q 276 581 268 599 q 283 541 283 562 z "},"!":{"ha":376,"x_min":86,"x_max":288,"o":"m 288 851 q 282 754 288 799 q 267 667 276 709 q 248 585 258 625 q 228 503 238 544 q 214 416 219 461 q 208 322 208 372 q 201 299 208 303 q 189 294 194 294 q 177 299 184 294 q 170 322 170 303 q 164 416 170 372 q 148 502 158 461 q 128 584 139 544 q 108 666 117 624 q 92 753 99 708 q 86 849 86 798 q 115 930 86 901 q 189 959 144 959 q 261 931 234 959 q 288 851 288 903 m 288 83 q 280 44 288 63 q 258 13 272 26 q 225 -9 244 -1 q 185 -17 206 -17 q 145 -10 163 -17 q 114 11 127 -2 q 93 43 101 25 q 86 81 86 60 q 94 120 86 102 q 116 153 102 139 q 149 175 130 167 q 189 183 167 183 q 228 175 210 183 q 260 154 247 167 q 280 122 273 140 q 288 83 288 104 z "},"?":{"ha":531,"x_min":-8,"x_max":517,"o":"m 337 83 q 329 44 337 63 q 307 13 321 26 q 274 -9 293 -1 q 234 -17 256 -17 q 194 -10 213 -17 q 163 11 176 -2 q 143 43 150 25 q 135 81 135 60 q 143 120 135 102 q 165 153 151 139 q 198 175 179 167 q 238 183 217 183 q 278 175 260 183 q 309 154 296 167 q 330 122 322 140 q 337 83 337 104 m 199 328 q 188 420 187 381 q 196 491 188 460 q 217 545 204 522 q 244 588 231 569 q 274 627 257 608 q 307 669 291 646 q 333 723 322 693 q 344 794 344 753 q 335 841 344 821 q 313 875 326 860 q 283 898 300 889 q 251 911 267 906 q 221 918 235 917 q 201 920 208 920 q 159 916 178 920 q 134 897 140 911 q 134 880 131 889 q 144 861 138 872 q 155 838 150 850 q 160 810 160 825 q 155 781 160 796 q 138 755 149 767 q 110 737 127 744 q 70 730 93 730 q 34 738 49 730 q 10 758 19 746 q -3 785 1 770 q -8 813 -8 799 q -4 836 -8 822 q 9 866 -1 851 q 35 898 19 882 q 78 927 52 915 q 141 948 104 940 q 227 956 178 956 q 297 952 260 956 q 368 937 333 948 q 431 906 402 926 q 480 856 460 887 q 509 783 501 822 q 513 704 517 744 q 493 627 509 665 q 451 559 477 590 q 394 505 426 529 q 331 456 362 481 q 275 401 301 431 q 238 331 250 372 q 229 315 235 320 q 218 310 224 310 q 207 315 212 310 q 199 328 201 319 z "},"&":{"ha":940,"x_min":106,"x_max":849,"o":"m 832 39 q 842 27 841 32 q 837 16 842 22 q 826 7 833 13 q 806 -5 819 1 q 775 -14 794 -10 q 729 -17 756 -17 q 670 -8 696 -17 q 623 17 644 2 q 585 49 602 31 q 553 81 568 66 q 539 95 547 85 q 519 119 531 105 q 510 125 515 125 q 503 119 506 124 q 470 65 490 90 q 425 22 451 40 q 367 -7 399 3 q 297 -17 335 -17 q 221 -6 256 -17 q 160 30 186 6 q 120 87 135 53 q 106 167 106 122 q 124 252 106 213 q 172 324 142 291 q 236 383 201 357 q 305 428 272 410 q 309 447 315 434 q 276 528 288 490 q 264 596 264 566 q 281 663 264 635 q 326 710 298 692 q 391 738 354 729 q 466 747 427 747 q 522 740 495 747 q 571 717 549 732 q 605 678 592 701 q 618 622 618 654 q 591 540 618 574 q 519 487 563 506 q 511 481 513 484 q 513 470 509 478 q 563 389 535 431 q 621 305 591 347 q 636 303 628 294 q 697 361 666 340 q 763 383 728 383 q 826 359 803 383 q 849 296 849 336 q 844 268 849 283 q 830 243 840 254 q 805 224 819 231 q 769 216 790 216 q 704 259 722 216 q 696 280 701 269 q 678 291 692 291 q 667 287 674 291 q 652 277 660 283 q 651 263 644 271 q 708 184 680 222 q 761 117 737 147 q 803 67 785 88 q 832 39 822 47 m 502 694 q 481 692 492 694 q 461 683 470 690 q 446 666 452 677 q 440 638 440 655 q 453 588 440 619 q 486 518 465 558 q 493 511 490 513 q 504 514 497 510 q 541 539 527 526 q 561 566 554 553 q 571 593 569 580 q 574 617 574 606 q 569 645 574 631 q 556 670 565 659 q 533 687 547 681 q 502 694 519 694 m 416 126 q 451 130 434 126 q 481 140 467 134 q 490 150 490 144 q 487 162 490 156 q 449 213 469 185 q 410 272 430 241 q 370 335 390 303 q 333 399 351 367 q 326 405 331 405 q 317 401 322 405 q 282 348 294 380 q 269 278 269 317 q 280 216 269 244 q 311 168 291 188 q 357 137 331 148 q 416 126 384 126 z "},"{":{"ha":380,"x_min":19,"x_max":390,"o":"m 93 379 q 111 376 96 378 q 146 369 126 374 q 189 353 166 364 q 231 324 212 342 q 263 277 251 305 q 276 208 276 249 q 272 160 276 183 q 264 114 269 137 q 254 68 259 91 q 246 22 249 45 q 242 -19 243 1 q 243 -59 241 -40 q 252 -98 245 -79 q 271 -135 258 -117 q 318 -181 290 -160 q 378 -212 347 -202 q 389 -223 388 -215 q 378 -232 390 -230 q 355 -235 368 -234 q 328 -235 342 -235 q 300 -234 314 -235 q 276 -232 287 -233 q 205 -214 240 -226 q 144 -174 170 -201 q 108 -116 119 -149 q 95 -47 97 -83 q 97 26 93 -10 q 105 94 101 62 q 116 198 113 155 q 113 272 119 240 q 90 326 107 303 q 41 370 73 349 q 41 398 19 384 q 90 442 73 419 q 113 497 107 465 q 116 570 119 528 q 105 674 113 613 q 97 742 101 706 q 95 815 93 778 q 108 884 97 851 q 144 942 119 917 q 205 982 170 969 q 276 1000 240 994 q 300 1002 287 1001 q 328 1003 314 1003 q 355 1003 342 1003 q 378 1000 368 1002 q 389 991 390 998 q 378 980 388 983 q 318 949 347 970 q 271 902 290 927 q 252 866 258 885 q 243 827 245 847 q 242 787 241 808 q 246 747 243 767 q 254 700 249 723 q 264 653 259 676 q 272 607 269 631 q 276 560 276 584 q 263 491 276 519 q 231 444 251 463 q 189 415 212 426 q 146 399 166 404 q 111 392 126 394 q 93 389 96 390 q 88 384 88 388 q 93 379 88 381 z "},"}":{"ha":379,"x_min":-11,"x_max":360,"o":"m 286 379 q 291 384 291 381 q 286 389 291 388 q 268 392 283 390 q 233 399 253 394 q 190 415 213 404 q 148 444 167 426 q 116 491 128 463 q 103 560 103 519 q 107 607 103 584 q 115 653 110 631 q 125 700 120 676 q 133 747 131 723 q 137 787 136 767 q 136 827 138 808 q 127 866 134 847 q 108 902 121 885 q 61 949 89 927 q 1 980 33 970 q -10 991 -8 983 q 1 1000 -11 998 q 24 1003 11 1002 q 51 1003 37 1003 q 79 1002 65 1003 q 103 1000 92 1001 q 174 982 140 994 q 235 942 209 969 q 271 884 260 917 q 284 815 282 851 q 282 742 286 778 q 274 674 278 706 q 264 570 267 613 q 266 497 260 528 q 289 442 272 465 q 338 398 306 419 q 338 370 360 384 q 289 326 306 349 q 266 272 272 303 q 264 198 260 240 q 274 94 267 155 q 282 26 278 62 q 284 -47 286 -10 q 271 -116 282 -83 q 235 -174 260 -149 q 174 -214 209 -201 q 103 -232 140 -226 q 79 -234 92 -233 q 51 -235 65 -235 q 24 -235 37 -235 q 1 -232 11 -234 q -10 -223 -11 -230 q 1 -212 -8 -215 q 61 -181 33 -202 q 108 -135 89 -160 q 127 -98 121 -117 q 136 -59 134 -79 q 137 -19 138 -40 q 133 22 136 1 q 125 68 131 45 q 115 114 120 91 q 107 160 110 137 q 103 208 103 183 q 116 277 103 249 q 148 324 128 305 q 190 353 167 342 q 233 369 213 364 q 268 376 253 374 q 286 379 283 378 z "},"[":{"ha":428,"x_min":134,"x_max":516,"o":"m 287 956 q 277 952 281 956 q 273 942 273 948 l 273 -179 q 277 -189 273 -185 q 287 -193 281 -193 l 502 -193 q 512 -197 508 -193 q 516 -207 516 -201 l 516 -221 q 512 -231 516 -226 q 502 -235 508 -235 l 148 -235 q 138 -231 142 -235 q 134 -221 134 -226 l 134 984 q 138 994 134 990 q 148 998 142 998 l 502 998 q 512 994 508 998 q 516 984 516 990 l 516 970 q 512 960 516 965 q 502 956 508 956 l 287 956 z "},"]":{"ha":428,"x_min":-87,"x_max":294,"o":"m -74 956 q -83 960 -79 956 q -87 970 -87 965 l -87 984 q -83 994 -87 990 q -74 998 -79 998 l 281 998 q 290 994 286 998 q 294 984 294 990 l 294 -221 q 290 -231 294 -226 q 281 -235 286 -235 l -74 -235 q -83 -231 -79 -235 q -87 -221 -87 -226 l -87 -207 q -83 -197 -87 -201 q -74 -193 -79 -193 l 142 -193 q 151 -189 147 -193 q 156 -179 156 -185 l 156 942 q 151 952 156 948 q 142 956 147 956 l -74 956 z "},"|":{"ha":405,"x_min":171,"x_max":233,"o":"m 190 1056 q 219 1048 206 1056 q 233 1025 233 1039 l 233 -273 q 227 -293 233 -290 q 214 -297 222 -297 q 185 -289 199 -297 q 171 -267 171 -280 l 171 1025 l 171 1032 q 177 1052 171 1049 q 190 1056 183 1056 z "},"+":{"ha":684,"x_min":0,"x_max":683,"o":"m 659 338 q 680 335 676 338 q 683 325 683 332 q 675 303 683 313 q 653 293 666 293 l 380 293 q 370 289 374 293 q 366 279 366 285 l 366 2 q 363 -9 366 -4 q 354 -18 359 -14 q 342 -24 349 -22 q 331 -26 336 -26 q 321 -22 324 -26 q 317 -1 317 -18 l 317 279 q 313 289 317 285 q 303 293 309 293 l 24 293 q 4 297 8 293 q 0 307 0 300 q 8 327 0 317 q 28 338 16 338 l 303 338 q 313 342 309 338 q 317 352 317 347 l 317 627 q 329 649 317 640 q 353 658 340 658 q 363 654 360 658 q 366 633 366 650 l 366 352 q 370 342 366 347 q 380 338 374 338 l 659 338 l 659 338 z "},"•":{"ha":633,"x_min":72,"x_max":558,"o":"m 558 404 q 539 310 558 354 q 487 233 520 266 q 408 181 453 200 q 310 161 363 161 q 215 180 258 161 q 139 230 171 198 q 90 306 108 263 q 72 399 72 349 q 91 493 72 449 q 144 570 110 538 q 223 623 178 603 q 321 642 269 642 q 417 624 373 642 q 492 573 460 606 q 541 498 523 541 q 558 404 558 454 z "},"¶":{"ha":826,"x_min":19,"x_max":792,"o":"m 779 938 q 788 935 785 938 q 792 928 791 932 q 790 922 792 925 q 782 917 788 918 q 761 912 776 916 q 731 898 747 908 q 703 870 715 888 q 691 825 691 853 l 691 -305 q 688 -316 691 -311 q 679 -325 684 -321 q 667 -331 674 -328 q 656 -333 661 -333 q 646 -329 649 -333 q 642 -308 642 -325 l 642 882 q 638 892 642 888 q 628 896 634 896 l 489 896 q 479 892 483 896 q 475 882 475 888 l 475 -305 q 472 -316 475 -311 q 463 -325 468 -321 q 451 -331 458 -328 q 440 -333 445 -333 q 430 -329 433 -333 q 426 -308 426 -325 l 426 292 q 421 307 426 301 q 405 313 415 313 q 237 338 309 315 q 116 402 165 362 q 43 499 68 443 q 19 622 19 555 q 45 749 19 691 q 117 849 72 807 q 225 914 163 891 q 359 938 288 938 l 779 938 l 779 938 z "},"®":{"ha":752,"x_min":19,"x_max":734,"o":"m 369 -42 q 228 -15 294 -42 q 117 60 165 11 q 44 173 69 109 q 19 309 19 237 q 47 447 19 381 q 124 561 74 513 q 243 640 176 613 q 383 667 309 667 q 524 640 458 667 q 584 608 556 626 q 635 565 611 589 q 709 452 683 516 q 734 316 734 388 q 706 178 734 244 q 628 64 678 113 q 510 -15 576 13 q 369 -42 443 -42 m 383 618 q 261 594 318 618 q 163 527 205 569 q 98 429 122 485 q 74 309 74 373 q 96 189 74 244 q 157 93 118 134 q 251 30 197 53 q 369 7 305 7 q 491 31 435 7 q 590 98 548 56 q 655 196 631 140 q 678 316 678 252 q 657 436 678 381 q 595 532 635 491 q 502 595 556 572 q 383 618 448 618 m 568 144 q 560 142 565 142 q 550 142 555 141 q 540 147 544 144 q 533 157 535 151 q 528 179 529 165 q 525 215 526 193 q 521 252 524 235 q 513 281 519 269 q 499 297 507 291 q 484 307 492 303 q 469 312 476 310 q 460 314 463 314 q 462 318 455 315 q 505 339 487 325 q 535 377 523 353 q 543 408 541 392 q 542 440 544 424 q 531 469 539 456 q 513 494 524 483 q 483 513 498 506 q 451 522 467 519 q 417 525 434 525 q 381 526 399 526 l 189 526 q 183 521 183 526 q 188 516 183 517 q 200 513 192 515 q 217 505 208 510 q 231 491 225 500 q 238 467 238 482 l 238 162 q 231 138 238 147 q 217 124 225 129 q 200 117 208 119 q 188 114 192 115 q 183 108 183 113 q 189 104 183 104 l 388 104 q 395 108 394 104 q 390 114 395 113 q 378 117 386 115 q 361 124 369 119 q 347 138 353 129 q 340 162 340 147 l 340 288 q 344 301 340 297 q 359 306 349 306 q 376 303 367 306 q 393 289 385 300 q 408 257 401 278 q 417 200 414 236 q 421 167 418 181 q 428 141 424 152 q 462 105 440 115 q 507 95 484 95 q 533 99 521 95 q 554 108 544 103 q 569 121 563 114 q 577 135 575 128 q 575 143 578 141 q 568 144 572 145 m 347 324 q 340 331 340 324 l 340 460 q 353 497 340 486 q 386 508 366 508 q 423 491 409 508 q 436 428 436 474 q 427 368 436 390 q 404 337 417 347 q 375 325 390 327 q 347 324 360 324 z "},"©":{"ha":752,"x_min":19,"x_max":734,"o":"m 369 -42 q 228 -15 294 -42 q 117 60 165 11 q 44 173 69 109 q 19 309 19 237 q 47 447 19 381 q 124 561 74 513 q 243 640 176 613 q 383 667 309 667 q 524 640 458 667 q 584 608 556 626 q 635 565 611 589 q 709 452 683 516 q 734 316 734 388 q 706 178 734 244 q 628 64 678 113 q 510 -15 576 13 q 369 -42 443 -42 m 383 618 q 261 594 318 618 q 163 527 205 569 q 98 429 122 485 q 74 309 74 373 q 96 189 74 244 q 157 93 118 134 q 251 30 197 53 q 369 7 305 7 q 491 31 435 7 q 590 98 548 56 q 655 196 631 140 q 678 316 678 252 q 657 436 678 381 q 595 532 635 491 q 502 595 556 572 q 383 618 448 618 m 169 310 q 184 224 169 264 q 227 155 199 185 q 296 109 255 126 q 389 92 337 92 q 472 107 435 92 q 535 149 508 122 q 537 156 540 153 q 529 157 534 159 q 486 141 508 146 q 444 137 465 137 q 328 182 367 137 q 289 312 289 228 q 295 390 289 353 q 315 455 301 427 q 350 498 328 482 q 401 513 371 513 q 442 504 425 513 q 472 481 460 495 q 493 451 485 467 q 508 421 501 435 q 513 417 509 417 q 517 422 517 418 l 517 497 q 513 503 517 500 q 503 508 512 503 q 480 518 495 513 q 444 528 465 524 q 397 532 423 532 q 307 514 349 532 q 234 466 265 497 q 186 396 203 436 q 169 310 169 356 z "},"™":{"ha":1654,"x_min":85,"x_max":1478,"o":"m 635 937 q 645 928 645 937 l 645 799 q 639 791 645 792 q 631 798 633 790 q 619 823 628 804 q 591 860 609 841 q 545 894 572 879 q 481 910 518 910 q 450 897 458 910 q 442 867 443 885 l 442 398 q 451 363 442 376 q 473 342 460 349 q 497 331 485 334 q 514 326 508 327 q 523 318 523 325 q 513 312 522 312 l 217 312 q 208 318 208 312 q 216 326 207 325 q 234 331 222 327 q 258 342 246 334 q 280 363 270 349 q 289 398 289 376 l 289 847 q 288 870 289 858 q 284 890 288 881 q 272 904 281 899 q 249 910 264 910 q 185 894 212 910 q 140 860 158 879 q 112 823 122 841 q 100 798 102 804 q 91 791 97 790 q 85 799 85 792 l 85 928 q 94 937 85 937 l 635 937 m 1469 326 q 1478 318 1478 325 q 1468 312 1477 312 l 1173 312 q 1163 318 1164 312 q 1172 326 1163 325 q 1189 331 1177 327 q 1213 342 1201 334 q 1234 363 1225 349 q 1244 398 1244 376 l 1244 827 q 1241 832 1244 831 q 1237 828 1239 833 q 1226 803 1235 826 q 1203 745 1217 781 q 1171 664 1189 709 q 1134 572 1153 619 q 1098 481 1116 526 q 1066 401 1080 436 q 1043 343 1051 365 q 1033 320 1034 322 q 1026 315 1031 315 q 1019 320 1022 315 q 1010 344 1019 321 q 986 406 1001 368 q 952 493 971 444 q 915 591 934 541 q 876 690 895 642 q 843 777 858 739 q 818 840 828 816 q 808 867 808 865 q 803 871 806 871 q 800 866 801 871 q 800 844 800 865 q 800 790 800 823 q 800 715 800 757 q 800 630 800 674 l 800 398 q 809 363 800 376 q 831 342 819 349 q 855 331 843 334 q 873 326 867 327 q 881 318 881 325 q 872 312 881 312 l 697 312 q 687 318 688 312 q 695 326 686 325 q 713 331 701 327 q 736 342 724 334 q 758 363 749 349 q 767 398 767 376 l 767 851 q 758 886 767 872 q 736 907 749 899 q 713 918 724 915 q 695 922 701 921 q 687 930 686 924 q 697 937 688 937 l 924 937 q 943 926 939 937 q 961 878 949 910 q 989 805 974 845 q 1021 720 1004 764 q 1051 640 1038 677 q 1075 577 1065 603 q 1087 547 1085 551 q 1090 545 1088 545 q 1092 547 1092 545 q 1104 576 1094 551 q 1129 638 1114 601 q 1161 718 1144 674 q 1195 803 1179 762 q 1225 877 1212 844 q 1244 926 1238 910 q 1263 937 1249 937 l 1468 937 q 1478 930 1477 937 q 1469 922 1478 924 q 1452 918 1464 921 q 1427 907 1440 915 q 1406 886 1415 899 q 1397 851 1397 872 l 1397 398 q 1406 363 1397 376 q 1427 342 1415 349 q 1452 331 1440 334 q 1469 326 1464 327 z "},"/":{"ha":444,"x_min":55,"x_max":409,"o":"m 397 938 q 406 934 403 938 q 407 924 409 930 l 111 13 q 104 4 109 8 q 93 0 99 0 l 66 0 q 58 4 60 0 q 56 13 55 8 l 352 924 q 359 934 354 930 q 370 938 365 938 l 397 938 z "},"\\":{"ha":444,"x_min":35,"x_max":389,"o":"m 74 938 q 84 934 79 938 q 92 924 90 930 l 388 13 q 386 4 389 8 q 378 0 383 0 l 351 0 q 340 4 345 0 q 333 13 335 8 l 37 924 q 38 934 35 930 q 47 938 41 938 l 74 938 z "},"=":{"ha":660,"x_min":37,"x_max":623,"o":"m 599 493 q 619 490 615 493 q 623 480 623 487 q 614 456 623 467 q 592 444 606 444 l 61 444 q 41 448 44 444 q 37 458 37 451 q 39 469 37 463 q 45 481 41 476 q 53 490 49 486 q 65 493 58 493 l 599 493 m 599 226 q 619 223 615 226 q 623 213 623 220 q 614 189 623 201 q 592 178 606 178 l 61 178 q 41 181 44 178 q 37 192 37 185 q 39 203 37 197 q 45 214 41 209 q 53 223 49 219 q 65 226 58 226 l 599 226 z "},"-":{"ha":614,"x_min":71,"x_max":543,"o":"m 543 247 q 539 237 543 241 q 529 233 535 233 l 85 233 q 75 237 79 233 q 71 247 71 241 l 71 378 q 75 388 71 384 q 85 392 79 392 l 529 392 q 539 388 535 392 q 543 378 543 384 l 543 247 z "},"–":{"ha":1045,"x_min":42,"x_max":1003,"o":"m 978 337 q 999 334 995 337 q 1003 324 1003 331 q 994 300 1003 311 q 972 288 985 288 l 66 288 q 45 292 49 288 q 42 302 42 295 q 44 313 42 307 q 50 325 46 319 q 58 333 53 330 q 69 337 63 337 l 978 337 l 978 337 z "},"—":{"ha":1267,"x_min":42,"x_max":1225,"o":"m 1201 337 q 1221 334 1217 337 q 1225 324 1225 331 q 1216 300 1225 311 q 1194 288 1208 288 l 66 288 q 45 292 49 288 q 42 302 42 295 q 44 313 42 307 q 50 325 46 319 q 58 333 53 330 q 69 337 63 337 l 1201 337 l 1201 337 z "},"÷":{"ha":735,"x_min":20,"x_max":703,"o":"m 465 86 q 456 46 465 65 q 434 13 448 27 q 400 -9 419 -1 q 358 -17 381 -17 q 317 -9 336 -17 q 285 12 299 -1 q 264 44 272 26 q 256 84 256 63 q 265 124 256 105 q 287 157 273 143 q 321 179 301 171 q 363 188 340 188 q 403 180 385 188 q 436 158 422 172 q 457 126 449 144 q 465 86 465 107 m 465 541 q 456 501 465 519 q 434 468 448 482 q 400 445 419 453 q 358 438 381 438 q 317 445 336 438 q 285 467 299 453 q 264 499 272 481 q 256 539 256 517 q 265 579 256 560 q 287 612 273 598 q 321 634 301 626 q 363 642 340 642 q 403 634 385 642 q 436 613 422 626 q 457 581 449 599 q 465 541 465 562 m 679 337 l 48 337 q 37 333 42 337 q 28 325 32 330 q 22 313 24 319 q 20 302 20 307 q 24 292 20 295 q 44 288 28 288 l 673 288 q 695 300 686 288 q 703 324 703 311 q 700 334 703 331 q 679 337 696 337 z "},"#":{"ha":637,"x_min":17,"x_max":625,"o":"m 601 461 q 621 458 617 461 q 625 449 625 456 q 616 426 625 436 q 594 416 608 416 l 485 416 q 474 407 476 416 l 448 260 q 450 253 447 256 q 456 250 452 250 l 563 250 q 584 247 580 250 q 588 238 588 244 q 579 215 588 225 q 556 205 570 205 l 448 205 q 437 196 438 205 l 403 10 q 392 0 402 0 l 359 0 q 351 10 349 0 l 384 196 q 376 205 385 205 l 217 205 q 210 202 213 205 q 206 196 206 199 l 173 10 q 161 0 170 0 l 128 0 q 121 3 124 0 q 120 10 119 6 l 153 196 q 144 205 154 205 l 42 205 q 21 208 25 205 q 17 217 17 210 q 26 240 17 230 q 48 250 35 250 l 153 250 q 160 253 156 250 q 164 260 163 256 l 190 407 q 188 413 191 410 q 182 416 185 416 l 79 416 q 59 419 63 416 q 55 428 55 422 q 64 451 55 441 q 85 461 72 461 l 190 461 q 197 464 194 461 q 201 471 200 467 l 234 657 q 238 664 235 661 q 245 667 242 667 l 279 667 q 287 657 288 667 l 254 471 q 256 464 253 467 q 262 461 258 461 l 421 461 q 428 464 425 461 q 432 471 431 467 l 465 657 q 476 667 467 667 l 510 667 q 518 657 519 667 l 485 471 q 486 464 484 467 q 493 461 489 461 l 601 461 m 421 407 q 413 416 422 416 l 254 416 q 243 407 244 416 l 217 260 q 218 253 216 256 q 225 250 221 250 l 383 250 q 391 253 388 250 q 395 260 394 256 l 421 407 z "},"^":{"ha":594,"x_min":13,"x_max":582,"o":"m 23 475 q 15 478 17 475 q 16 487 13 482 l 269 925 q 278 933 272 930 q 290 937 284 937 l 306 937 q 317 933 311 937 q 326 925 323 930 l 578 487 q 580 478 582 482 q 572 475 577 475 l 540 475 q 528 478 534 475 q 519 487 522 482 l 304 858 q 298 864 301 864 q 290 858 294 864 l 76 487 q 67 478 73 482 q 55 475 60 475 l 23 475 z "},"<":{"ha":524,"x_min":7,"x_max":469,"o":"m 469 59 q 465 51 469 53 q 457 52 462 49 l 19 305 q 10 314 14 308 q 7 326 7 320 l 7 342 q 10 353 7 347 q 19 363 14 359 l 457 615 q 465 616 462 618 q 469 608 469 613 l 469 576 q 465 564 469 570 q 457 555 462 558 l 85 340 q 80 334 80 338 q 85 326 80 330 l 457 112 q 465 103 462 109 q 469 91 469 97 l 469 59 z "},">":{"ha":524,"x_min":56,"x_max":517,"o":"m 56 91 q 59 103 56 97 q 67 112 63 109 l 439 326 q 444 334 444 330 q 439 340 444 338 l 67 555 q 59 564 63 558 q 56 576 56 570 l 56 608 q 59 616 56 613 q 67 615 63 618 l 506 363 q 514 353 510 359 q 517 342 517 347 l 517 326 q 514 314 517 320 q 506 305 510 308 l 67 52 q 59 51 63 49 q 56 59 56 53 l 56 91 z "},"%":{"ha":787,"x_min":21,"x_max":767,"o":"m 213 684 q 286 671 253 684 q 344 636 320 658 q 382 585 369 615 q 396 521 396 555 q 381 457 396 487 q 340 403 366 426 q 280 367 315 381 q 204 354 244 354 q 130 367 164 354 q 72 402 97 380 q 34 453 48 424 q 21 517 21 483 q 36 582 21 551 q 76 635 51 612 q 137 671 102 658 q 213 684 172 684 m 208 387 q 234 397 223 387 q 252 426 245 408 q 264 468 260 444 q 267 519 267 492 q 264 570 267 546 q 252 612 260 594 q 234 640 245 630 q 208 651 223 651 q 183 640 194 651 q 164 612 172 630 q 153 570 157 594 q 149 519 149 546 q 153 468 149 492 q 164 426 157 444 q 183 397 172 408 q 208 387 194 387 m 583 313 q 657 300 624 313 q 715 265 691 287 q 753 213 740 243 q 767 149 767 183 q 752 85 767 115 q 711 32 737 55 q 650 -4 685 9 q 575 -17 615 -17 q 501 -5 535 -17 q 443 30 467 8 q 405 82 419 52 q 392 146 392 112 q 407 210 392 180 q 447 263 422 240 q 508 299 473 286 q 583 313 543 313 m 579 15 q 605 26 594 15 q 623 54 616 36 q 634 96 631 72 q 638 147 638 120 q 634 199 638 174 q 623 241 631 223 q 605 269 616 258 q 579 279 594 279 q 553 269 565 279 q 535 241 542 258 q 524 199 528 223 q 520 147 520 174 q 524 96 520 120 q 535 54 528 72 q 553 26 542 36 q 579 15 565 15 m 694 667 q 701 664 699 667 q 699 656 702 660 l 157 10 q 147 3 153 6 q 134 0 140 0 l 94 0 q 87 3 88 0 q 89 10 85 6 l 631 656 q 641 664 634 660 q 653 667 648 667 l 694 667 z "},"ß":{"ha":944,"x_min":53,"x_max":893,"o":"m 673 20 q 717 29 697 20 q 752 53 738 38 q 775 89 767 68 q 783 133 783 110 q 772 187 783 165 q 743 223 761 208 q 702 249 725 238 q 653 271 678 260 q 618 286 638 278 q 577 307 598 295 q 535 333 556 318 q 499 366 515 347 q 474 408 483 385 q 464 460 464 431 q 473 517 464 491 q 497 568 483 544 q 527 618 511 593 q 558 674 544 644 q 582 739 572 703 q 591 821 591 775 q 581 897 591 863 q 551 954 570 931 q 505 991 532 978 q 447 1003 478 1003 q 353 939 383 1003 q 324 740 324 874 l 324 103 q 333 60 324 76 q 355 35 342 44 q 378 24 367 27 q 396 20 390 21 q 404 16 401 19 q 406 9 406 13 q 402 3 405 6 q 393 0 399 0 l 67 0 q 58 3 61 0 q 54 9 55 6 q 56 16 53 13 q 64 20 58 19 q 81 24 69 21 q 105 35 93 27 q 127 60 117 44 q 136 103 136 76 l 136 640 q 143 741 136 692 q 166 835 150 791 q 206 917 181 880 q 265 981 230 954 q 346 1023 300 1008 q 451 1038 392 1038 q 548 1021 506 1038 q 620 974 591 1004 q 665 905 649 944 q 681 818 681 865 q 670 755 681 783 q 645 703 660 726 q 613 661 630 680 q 580 626 595 642 q 555 596 565 610 q 544 569 544 582 q 563 540 544 554 q 607 513 581 526 q 660 489 633 500 q 706 469 688 477 q 736 455 717 463 q 776 434 755 447 q 817 402 797 421 q 855 358 838 384 q 883 296 872 331 q 893 215 893 261 q 873 115 893 158 q 819 42 853 72 q 741 -2 785 13 q 647 -17 696 -17 q 569 -7 607 -17 q 501 21 531 3 q 452 64 471 39 q 434 119 434 89 q 440 151 434 138 q 454 171 445 163 q 475 182 463 178 q 498 185 486 185 q 540 168 522 185 q 566 121 559 151 q 573 92 569 109 q 587 59 576 75 q 618 32 598 43 q 673 20 638 20 z "},"£":{"ha":715,"x_min":-28,"x_max":740,"o":"m 719 84 q 735 81 730 88 q 731 65 740 74 q 689 28 712 45 q 637 -1 666 11 q 572 -21 608 -14 q 491 -28 535 -28 q 393 -17 439 -28 q 307 9 348 -5 q 229 35 266 23 q 156 47 192 47 q 133 44 142 47 q 115 38 123 42 q 100 27 106 33 q 89 16 94 22 q 77 3 83 10 q 60 -9 70 -3 q 17 -19 40 -22 q -18 3 -6 -17 q -22 41 -28 22 q 6 73 -15 61 q 47 83 21 81 q 99 93 72 86 q 127 101 117 98 q 143 108 137 104 q 153 118 149 112 q 167 134 158 124 q 178 151 173 142 q 187 175 183 161 q 193 209 191 190 q 195 256 195 228 q 192 316 195 286 q 183 377 188 346 q 176 383 183 383 l 134 383 q 114 385 117 383 q 110 394 110 387 q 118 414 110 403 q 138 424 126 424 l 168 424 q 174 431 175 424 q 154 548 163 488 q 145 676 145 608 q 162 785 145 734 q 210 875 179 837 q 285 935 242 913 q 383 957 329 957 q 465 945 428 957 q 526 913 501 933 q 564 866 551 892 q 577 810 577 839 q 570 774 577 790 q 553 749 564 759 q 527 733 542 738 q 497 727 513 727 q 438 749 460 727 q 417 809 417 770 q 423 845 417 829 q 428 877 428 861 q 427 893 428 885 q 420 908 425 901 q 406 919 415 915 q 383 924 397 924 q 338 894 355 924 q 320 803 320 865 q 328 717 320 760 q 347 627 337 673 q 367 532 358 581 q 380 429 377 483 q 385 424 380 424 l 467 424 q 488 422 484 424 q 492 413 492 420 q 489 403 492 409 q 482 393 486 398 q 472 386 478 389 q 460 383 467 383 l 385 383 q 380 378 380 383 q 345 227 376 288 q 265 130 315 166 q 325 155 291 146 q 393 163 359 163 q 458 157 430 163 q 509 142 486 151 q 550 122 531 133 q 588 102 569 112 q 627 87 607 93 q 674 81 648 81 q 698 81 686 81 q 719 84 709 81 z "},"$":{"ha":553,"x_min":35,"x_max":519,"o":"m 321 419 q 409 376 372 399 q 470 326 446 354 q 507 265 495 299 q 519 189 519 231 q 507 115 519 151 q 467 51 494 79 q 398 4 440 22 q 297 -17 356 -15 q 285 -20 289 -18 q 281 -30 281 -23 l 281 -115 q 278 -135 281 -131 q 268 -139 275 -139 q 245 -130 256 -139 q 235 -108 235 -122 l 235 -28 q 223 -15 235 -16 q 155 -3 184 -11 q 107 14 126 5 q 77 30 88 22 q 64 38 66 37 q 57 46 60 42 q 52 58 53 50 q 50 76 52 59 q 44 113 47 92 q 39 151 41 133 q 35 174 36 169 q 37 181 35 178 q 41 185 39 184 q 47 185 44 185 q 51 181 50 184 q 58 169 52 180 q 73 144 63 159 q 97 111 83 129 q 130 76 111 93 q 170 46 148 60 q 219 25 193 32 q 232 25 228 23 q 236 35 236 26 q 236 53 236 38 q 236 91 236 69 q 236 138 236 113 q 235 185 235 163 q 235 222 235 206 q 235 239 235 237 q 234 250 235 245 q 224 258 232 255 q 212 264 219 261 q 198 269 205 267 q 118 316 149 290 q 70 370 87 342 q 47 428 53 399 q 40 483 40 457 q 48 540 40 508 q 75 601 55 572 q 130 653 95 631 q 222 681 165 675 q 232 685 229 683 q 235 696 235 688 l 235 770 q 238 791 235 787 q 248 794 241 794 q 270 786 260 794 q 281 763 281 777 l 281 697 q 283 686 281 690 q 294 682 285 683 q 356 671 328 678 q 404 655 384 663 q 435 640 424 647 q 449 633 447 633 q 458 625 456 628 q 463 614 461 622 q 464 605 463 613 q 467 587 465 598 q 470 563 468 576 q 474 540 472 551 q 476 521 475 528 q 478 512 478 513 q 473 502 478 504 q 462 508 467 501 q 439 539 453 519 q 402 578 424 558 q 355 616 381 598 q 296 642 328 633 q 281 631 281 646 l 281 447 q 282 438 281 441 q 292 431 284 434 q 306 425 299 428 q 321 419 313 422 m 235 633 q 220 644 235 647 q 173 613 188 635 q 158 562 158 590 q 171 515 158 538 q 219 468 183 492 q 231 466 226 464 q 235 475 235 467 l 235 633 m 297 24 q 342 55 324 33 q 359 108 359 77 q 346 165 359 138 q 296 219 333 192 q 285 221 290 224 q 281 212 281 219 l 281 34 q 297 24 281 18 z "},"€":{"ha":1042,"x_min":60,"x_max":947,"o":"m 928 124 q 938 126 933 127 q 945 122 942 125 q 947 115 947 119 q 942 106 947 110 q 800 13 881 46 q 616 -20 719 -20 q 423 12 509 -20 q 276 101 338 44 q 177 235 214 158 q 130 402 140 313 l 84 402 q 64 404 67 402 q 60 413 60 406 q 68 433 60 422 q 88 444 76 444 l 126 444 l 126 464 q 127 499 126 482 q 131 534 128 517 l 84 534 q 64 536 67 534 q 60 545 60 538 q 68 565 60 554 q 88 576 76 576 l 139 576 q 203 727 158 657 q 313 848 249 797 q 459 928 378 899 q 633 958 541 958 q 739 948 692 958 q 819 927 786 939 q 872 906 853 916 q 893 894 891 896 q 901 879 901 888 l 901 715 q 899 707 901 710 q 892 703 896 704 q 885 705 889 703 q 880 711 882 707 q 848 778 867 742 q 802 845 830 815 q 736 897 774 876 q 644 917 697 917 q 544 891 587 917 q 471 820 501 865 q 423 712 441 774 q 399 576 406 649 l 647 576 q 667 574 663 576 q 671 565 671 572 q 668 555 671 560 q 661 545 665 549 q 651 537 657 540 q 640 534 646 534 l 395 534 q 394 502 394 518 q 394 469 394 486 q 394 456 394 463 q 394 444 394 450 l 591 444 q 611 442 608 444 q 615 433 615 440 q 613 423 615 428 q 606 413 610 417 q 596 405 601 408 q 584 402 590 402 l 397 402 q 498 164 412 248 q 739 81 583 81 q 833 90 784 81 q 928 124 882 100 z "},"¥":{"ha":876,"x_min":-62,"x_max":941,"o":"m 926 938 q 937 934 933 938 q 941 927 940 931 q 938 919 941 923 q 928 915 935 916 q 903 910 918 914 q 872 898 889 906 q 836 874 855 889 q 798 836 817 860 q 769 799 789 825 q 726 741 750 774 q 675 672 701 708 q 627 605 649 636 q 589 551 605 574 q 570 521 574 528 q 559 493 563 506 q 555 461 556 480 l 710 461 q 731 459 727 461 q 735 450 735 457 q 725 430 735 441 q 704 419 716 419 l 555 419 l 555 294 l 710 294 q 731 292 727 294 q 735 283 735 290 q 725 264 735 274 q 704 253 716 253 l 555 253 l 555 129 q 569 76 555 97 q 601 44 583 56 q 638 28 619 33 q 664 22 656 24 q 673 17 670 21 q 676 10 676 14 q 672 3 676 6 q 662 0 669 0 l 226 0 q 215 3 219 0 q 211 10 212 6 q 214 17 211 14 q 224 22 217 21 q 250 28 232 24 q 286 44 268 33 q 319 76 305 56 q 333 129 333 97 l 333 253 l 169 253 q 148 255 152 253 q 144 264 144 257 q 152 284 144 273 q 172 294 160 294 l 333 294 l 333 383 q 333 402 333 393 q 331 419 333 410 l 169 419 q 148 422 152 419 q 144 431 144 424 q 152 450 144 440 q 172 461 160 461 l 315 461 q 289 502 308 472 q 245 569 270 531 q 192 650 220 608 q 139 731 164 692 q 95 797 114 769 q 69 836 76 826 q 42 866 58 852 q 10 890 27 880 q -22 907 -6 901 q -50 915 -37 913 q -59 920 -56 916 q -62 927 -62 924 q -58 934 -62 931 q -48 938 -55 938 l 388 938 q 399 934 395 938 q 402 927 402 931 q 400 920 403 924 q 390 915 397 916 q 369 911 382 914 q 347 902 357 908 q 333 883 337 895 q 338 850 329 870 q 359 810 344 836 q 392 753 374 784 q 431 690 410 722 q 469 630 451 657 q 499 583 487 602 q 515 561 512 565 q 537 560 526 549 q 554 583 540 563 q 589 632 569 603 q 633 696 610 662 q 677 762 656 731 q 714 817 698 793 q 733 850 729 842 q 741 884 744 872 q 728 902 738 896 q 706 911 718 909 q 685 915 693 914 q 675 920 678 916 q 673 927 672 924 q 676 934 673 931 q 687 938 680 938 l 926 938 l 926 938 z "},"†":{"ha":699,"x_min":78,"x_max":622,"o":"m 304 411 q 323 418 316 411 q 331 435 331 425 q 328 449 331 442 q 315 464 325 456 q 294 481 304 472 q 275 501 283 490 q 261 524 267 511 q 256 551 256 536 q 264 587 256 570 q 284 617 271 604 q 314 637 297 630 q 350 644 331 644 q 386 637 369 644 q 416 617 403 630 q 436 587 429 604 q 444 551 444 570 q 439 524 444 536 q 425 501 433 511 q 406 481 417 490 q 385 464 396 472 q 372 449 375 456 q 369 435 369 442 q 377 418 369 425 q 396 411 384 411 q 416 415 408 411 q 434 431 424 419 q 453 453 444 442 q 473 473 463 464 q 497 488 484 482 q 525 493 509 493 q 563 485 545 493 q 594 465 581 478 q 615 434 607 451 q 622 396 622 416 q 615 358 622 376 q 594 327 607 340 q 563 306 581 314 q 525 299 545 299 q 497 304 509 299 q 473 319 484 310 q 453 339 463 328 q 434 361 444 350 q 416 376 424 372 q 396 381 408 381 q 377 374 384 381 q 369 357 369 367 q 375 339 369 345 q 388 326 381 332 q 412 308 401 318 q 432 287 423 299 q 445 263 440 276 q 451 233 451 249 q 445 199 451 214 q 430 169 439 184 q 411 140 421 155 q 392 106 401 125 q 377 61 383 86 q 371 2 371 36 q 373 -125 371 -62 q 376 -243 374 -187 q 378 -345 378 -299 q 377 -426 379 -392 q 368 -480 374 -460 q 350 -499 362 -499 q 332 -480 338 -499 q 323 -426 326 -460 q 322 -345 321 -392 q 324 -243 322 -299 q 327 -125 326 -187 q 329 2 329 -62 q 323 61 329 36 q 308 106 317 86 q 289 140 299 125 q 270 169 279 155 q 255 199 261 184 q 249 233 249 214 q 255 263 249 249 q 268 287 260 276 q 288 308 277 299 q 312 326 299 318 q 325 339 319 332 q 331 357 331 345 q 323 374 331 367 q 304 381 316 381 q 284 376 292 381 q 266 361 276 372 q 247 339 256 350 q 227 319 238 328 q 203 304 216 310 q 175 299 190 299 q 137 306 155 299 q 106 327 119 314 q 85 358 93 340 q 78 396 78 376 q 85 434 78 416 q 106 465 93 451 q 137 485 119 478 q 175 493 155 493 q 203 488 190 493 q 227 473 216 482 q 247 453 238 464 q 266 431 256 442 q 284 415 276 419 q 304 411 292 411 z "},"‡":{"ha":665,"x_min":63,"x_max":607,"o":"m 510 -153 q 548 -160 530 -153 q 578 -181 565 -168 q 599 -212 592 -194 q 607 -250 607 -230 q 599 -288 607 -270 q 578 -319 592 -306 q 548 -340 565 -332 q 510 -347 530 -347 q 481 -342 494 -347 q 458 -327 469 -336 q 438 -307 447 -318 q 419 -285 428 -296 q 401 -269 409 -274 q 381 -265 392 -265 q 361 -272 369 -265 q 354 -289 354 -279 q 357 -303 354 -297 q 369 -318 360 -310 q 391 -336 381 -326 q 410 -356 401 -345 q 423 -378 418 -366 q 428 -405 428 -390 q 421 -441 428 -424 q 401 -471 414 -458 q 371 -491 388 -484 q 335 -499 354 -499 q 298 -491 315 -499 q 268 -471 281 -484 q 248 -441 256 -458 q 241 -405 241 -424 q 246 -378 241 -390 q 260 -356 251 -366 q 278 -336 268 -345 q 300 -318 289 -326 q 313 -303 310 -310 q 315 -289 315 -297 q 308 -272 315 -279 q 289 -265 301 -265 q 269 -269 277 -265 q 251 -285 260 -274 q 232 -307 241 -296 q 211 -327 222 -318 q 188 -342 201 -336 q 160 -347 175 -347 q 122 -340 140 -347 q 91 -319 104 -332 q 70 -288 78 -306 q 63 -250 63 -270 q 70 -212 63 -230 q 91 -181 78 -194 q 122 -160 104 -168 q 160 -153 140 -153 q 188 -158 175 -153 q 211 -173 201 -164 q 232 -193 222 -182 q 251 -215 241 -204 q 269 -231 260 -226 q 289 -235 277 -235 q 308 -228 301 -235 q 315 -211 315 -221 q 310 -193 315 -199 q 297 -181 304 -186 q 273 -162 284 -172 q 253 -141 262 -153 q 239 -117 244 -130 q 234 -87 234 -103 q 240 -55 234 -68 q 255 -32 246 -42 q 274 -12 264 -22 q 293 8 284 -3 q 308 35 302 19 q 314 73 314 50 q 308 111 314 96 q 293 138 302 126 q 274 158 284 149 q 255 178 264 167 q 240 201 246 188 q 234 233 234 214 q 239 263 234 249 q 253 287 244 276 q 273 308 262 299 q 297 326 284 318 q 310 339 304 332 q 315 357 315 345 q 308 374 315 367 q 289 381 301 381 q 269 376 277 381 q 251 361 260 372 q 232 339 241 350 q 211 319 222 328 q 188 304 201 310 q 160 299 175 299 q 122 306 140 299 q 91 327 104 314 q 70 358 78 340 q 63 396 63 376 q 70 434 63 416 q 91 465 78 451 q 122 485 104 478 q 160 493 140 493 q 188 488 175 493 q 211 473 201 482 q 232 453 222 464 q 251 431 241 442 q 269 415 260 419 q 289 411 277 411 q 308 418 301 411 q 315 435 315 425 q 313 449 315 442 q 300 464 310 456 q 278 481 289 472 q 260 501 268 490 q 246 524 251 511 q 241 551 241 536 q 248 587 241 570 q 268 617 256 604 q 298 637 281 630 q 335 644 315 644 q 371 637 354 644 q 401 617 388 630 q 421 587 414 604 q 428 551 428 570 q 423 524 428 536 q 410 501 418 511 q 391 481 401 490 q 369 464 381 472 q 357 449 360 456 q 354 435 354 442 q 361 418 354 425 q 381 411 369 411 q 401 415 392 411 q 419 431 409 419 q 438 453 428 442 q 458 473 447 464 q 481 488 469 482 q 510 493 494 493 q 548 485 530 493 q 578 465 565 478 q 599 434 592 451 q 607 396 607 416 q 599 358 607 376 q 578 327 592 340 q 548 306 565 314 q 510 299 530 299 q 481 304 494 299 q 458 319 469 310 q 438 339 447 328 q 419 361 428 350 q 401 376 409 372 q 381 381 392 381 q 361 374 369 381 q 354 357 354 367 q 360 339 354 345 q 373 326 365 332 q 397 308 385 318 q 416 287 408 299 q 430 263 425 276 q 435 233 435 249 q 430 201 435 214 q 415 178 424 188 q 395 158 406 167 q 376 138 385 149 q 361 111 367 126 q 356 73 356 96 q 361 35 356 50 q 376 8 367 19 q 395 -12 385 -3 q 415 -32 406 -22 q 430 -55 424 -42 q 435 -87 435 -68 q 430 -117 435 -103 q 416 -141 425 -130 q 397 -162 408 -153 q 373 -181 385 -172 q 360 -193 365 -186 q 354 -211 354 -199 q 361 -228 354 -221 q 381 -235 369 -235 q 401 -231 392 -235 q 419 -215 409 -226 q 438 -193 428 -204 q 458 -173 447 -182 q 481 -158 469 -164 q 510 -153 494 -153 z "},"‰":{"ha":1196,"x_min":21,"x_max":1182,"o":"m 213 684 q 286 671 253 684 q 344 636 320 658 q 382 585 369 615 q 396 521 396 555 q 381 457 396 487 q 340 403 366 426 q 280 367 315 381 q 204 354 244 354 q 130 367 164 354 q 72 402 97 380 q 34 453 48 424 q 21 517 21 483 q 36 582 21 551 q 76 635 51 612 q 137 671 102 658 q 213 684 172 684 m 208 387 q 234 397 223 387 q 252 426 245 408 q 264 468 260 444 q 267 519 267 492 q 264 570 267 546 q 252 612 260 594 q 234 640 245 630 q 208 651 223 651 q 183 640 194 651 q 164 612 172 630 q 153 570 157 594 q 149 519 149 546 q 153 468 149 492 q 164 426 157 444 q 183 397 172 408 q 208 387 194 387 m 583 313 q 657 300 624 313 q 715 265 691 287 q 753 213 740 243 q 767 149 767 183 q 752 85 767 115 q 711 32 737 55 q 650 -4 685 9 q 575 -17 615 -17 q 501 -5 535 -17 q 443 30 467 8 q 405 82 419 52 q 392 146 392 112 q 407 210 392 180 q 447 263 422 240 q 508 299 473 286 q 583 313 543 313 m 579 15 q 605 26 594 15 q 623 54 616 36 q 634 96 631 72 q 638 147 638 120 q 634 199 638 174 q 623 241 631 223 q 605 269 616 258 q 579 279 594 279 q 553 269 565 279 q 535 241 542 258 q 524 199 528 223 q 520 147 520 174 q 524 96 520 120 q 535 54 528 72 q 553 26 542 36 q 579 15 565 15 m 694 667 q 701 664 699 667 q 699 656 702 660 l 157 10 q 147 3 153 6 q 134 0 140 0 l 94 0 q 87 3 88 0 q 89 10 85 6 l 631 656 q 641 664 634 660 q 653 667 648 667 l 694 667 m 999 313 q 1073 300 1039 313 q 1131 265 1106 287 q 1168 213 1155 243 q 1182 149 1182 183 q 1167 85 1182 115 q 1126 32 1152 55 q 1066 -4 1101 9 q 990 -17 1031 -17 q 916 -5 950 -17 q 858 30 883 8 q 820 82 834 52 q 807 146 807 112 q 822 210 807 180 q 863 263 837 240 q 923 299 888 286 q 999 313 958 313 m 994 15 q 1020 26 1009 15 q 1039 54 1031 36 q 1050 96 1046 72 q 1053 147 1053 120 q 1050 199 1053 174 q 1039 241 1046 223 q 1020 269 1031 258 q 994 279 1009 279 q 969 269 980 279 q 950 241 958 258 q 939 199 943 223 q 935 147 935 174 q 939 96 935 120 q 950 54 943 72 q 969 26 958 36 q 994 15 980 15 z "},"Ç":{"ha":852,"x_min":28,"x_max":849,"o":"m 496 -20 q 481 -33 481 -19 q 490 -70 481 -54 q 512 -99 499 -86 q 540 -123 525 -112 q 569 -147 556 -134 q 607 -198 596 -172 q 619 -259 619 -224 q 610 -311 619 -287 q 584 -353 601 -335 q 542 -380 567 -370 q 485 -390 517 -390 q 432 -383 456 -390 q 392 -362 408 -375 q 366 -334 375 -350 q 356 -300 356 -317 q 373 -260 356 -272 q 410 -247 390 -247 q 436 -253 425 -247 q 453 -268 447 -259 q 464 -286 460 -276 q 470 -304 468 -297 q 475 -320 472 -312 q 482 -336 478 -329 q 494 -348 487 -344 q 511 -353 501 -353 q 533 -342 526 -353 q 540 -319 540 -331 q 527 -281 540 -303 q 488 -241 514 -260 q 461 -221 474 -232 q 436 -197 447 -210 q 418 -168 425 -184 q 411 -130 411 -151 q 420 -78 411 -104 q 442 -30 430 -52 q 435 -15 449 -17 q 263 41 338 -1 q 135 146 187 83 q 55 291 83 210 q 28 464 28 372 q 45 594 28 531 q 95 712 63 657 q 174 812 128 767 q 276 890 220 858 q 398 940 333 922 q 535 958 463 958 q 641 948 594 958 q 721 927 688 939 q 773 906 754 916 q 794 894 792 896 q 803 879 803 888 l 803 715 q 800 707 803 710 q 794 703 797 704 q 787 705 790 703 q 781 711 783 707 q 750 778 768 742 q 703 845 731 815 q 637 897 676 876 q 546 917 599 917 q 431 882 478 917 q 353 786 383 847 q 309 643 323 725 q 295 469 295 562 q 317 304 295 376 q 382 182 339 232 q 490 107 425 133 q 640 81 555 81 q 734 90 685 81 q 830 124 783 100 q 839 126 835 127 q 846 122 844 125 q 848 115 849 119 q 843 106 848 110 q 701 13 783 46 q 517 -20 620 -20 l 496 -20 z "},"ç":{"ha":640,"x_min":23,"x_max":627,"o":"m 606 168 q 621 166 615 172 q 621 149 627 160 q 608 126 617 141 q 583 94 599 112 q 547 58 568 76 q 497 23 525 39 q 432 -3 468 8 q 353 -17 397 -15 q 344 -20 347 -17 q 342 -30 342 -22 q 350 -67 342 -51 q 372 -96 359 -83 q 401 -120 385 -109 q 429 -144 416 -131 q 468 -195 456 -169 q 479 -256 479 -221 q 470 -309 479 -285 q 444 -350 461 -333 q 402 -377 427 -367 q 346 -387 377 -387 q 293 -380 317 -387 q 252 -360 269 -372 q 226 -331 235 -347 q 217 -297 217 -315 q 233 -257 217 -269 q 270 -244 250 -244 q 296 -250 285 -244 q 314 -265 307 -256 q 325 -284 321 -274 q 331 -301 328 -294 q 335 -318 333 -309 q 343 -334 338 -326 q 354 -345 347 -341 q 372 -350 361 -350 q 393 -339 387 -350 q 400 -316 400 -328 q 387 -278 400 -300 q 348 -238 374 -257 q 321 -218 335 -229 q 297 -194 308 -208 q 278 -165 285 -181 q 272 -127 272 -149 q 280 -78 272 -103 q 301 -31 289 -53 q 303 -21 304 -26 q 295 -15 302 -17 q 182 14 232 -10 q 96 77 131 38 q 42 172 60 117 q 23 297 23 227 q 40 415 23 363 q 84 504 56 466 q 147 569 111 542 q 219 611 182 595 q 292 635 256 628 q 358 642 328 642 q 444 634 405 642 q 513 609 484 625 q 557 573 541 594 q 573 527 573 551 q 566 491 573 506 q 547 467 558 476 q 521 453 535 458 q 492 449 507 449 q 453 457 472 449 q 423 483 435 465 q 408 517 414 496 q 395 557 403 538 q 376 590 388 576 q 342 604 365 604 q 291 585 314 604 q 251 531 267 566 q 225 448 234 497 q 216 340 216 399 q 231 233 216 280 q 272 153 246 186 q 334 103 299 121 q 410 86 369 86 q 483 98 450 86 q 542 124 517 110 q 583 152 567 139 q 606 168 599 165 z "},"(":{"ha":396,"x_min":68,"x_max":358,"o":"m 236 385 q 267 58 236 211 q 352 -212 298 -95 q 350 -229 358 -224 q 333 -227 343 -234 q 226 -130 275 -191 q 143 11 178 -69 q 88 186 108 91 q 68 385 68 281 q 88 585 68 490 q 142 760 107 681 q 226 901 178 840 q 333 999 275 962 q 351 1001 345 1006 q 352 983 358 997 q 267 713 298 866 q 236 385 236 560 z "},")":{"ha":396,"x_min":38,"x_max":328,"o":"m 160 385 q 129 713 160 560 q 44 983 98 866 q 44 1001 38 997 q 63 999 51 1006 q 169 901 121 962 q 253 760 218 840 q 308 585 289 681 q 328 385 328 490 q 308 186 328 281 q 253 11 288 91 q 169 -130 218 -69 q 63 -227 121 -191 q 45 -229 53 -234 q 44 -212 38 -224 q 129 58 98 -95 q 160 385 160 211 z "},"@":{"ha":1128,"x_min":21,"x_max":1108,"o":"m 572 906 q 782 875 684 906 q 952 777 880 843 q 1067 610 1025 711 q 1108 369 1108 508 q 1085 206 1108 275 q 1023 93 1062 138 q 934 26 984 48 q 831 4 884 4 q 709 41 751 4 q 670 153 666 78 q 643 93 660 120 q 601 47 625 66 q 547 17 577 27 q 483 6 517 6 q 319 219 319 6 q 338 371 319 299 q 390 499 356 444 q 470 588 423 555 q 575 621 517 621 q 631 610 606 621 q 672 582 655 599 q 698 543 688 565 q 708 502 707 522 q 712 536 710 520 q 715 563 713 550 q 717 583 716 576 q 739 602 719 602 q 756 602 743 602 q 784 602 769 602 q 814 601 800 601 q 834 601 828 601 q 850 595 846 601 q 852 580 853 588 q 850 560 852 578 q 844 512 847 542 q 836 445 840 483 q 827 368 832 408 q 818 291 822 329 q 810 220 813 252 q 803 167 806 189 q 800 140 801 145 q 803 116 799 128 q 817 93 807 103 q 841 77 826 83 q 876 70 856 70 q 948 92 913 70 q 1008 154 982 114 q 1050 250 1034 194 q 1065 375 1065 306 q 1027 590 1065 499 q 923 740 989 681 q 768 827 856 799 q 578 856 679 856 q 390 817 478 856 q 236 711 301 779 q 132 549 170 643 q 94 344 94 456 q 130 132 94 226 q 228 -30 165 37 q 378 -134 292 -97 q 565 -170 464 -170 q 583 -170 573 -170 q 605 -170 594 -170 q 626 -170 615 -170 q 646 -169 637 -169 q 659 -171 654 -168 q 666 -178 665 -174 q 664 -186 667 -182 q 652 -194 660 -191 q 604 -203 630 -201 q 558 -205 578 -205 q 344 -170 442 -205 q 174 -69 246 -136 q 61 97 102 -1 q 21 325 21 196 q 41 489 21 412 q 97 630 60 565 q 183 746 133 694 q 295 833 234 797 q 426 887 356 868 q 572 906 497 906 m 684 319 q 692 406 691 365 q 687 477 693 446 q 666 527 681 508 q 626 552 651 547 q 574 545 597 558 q 531 505 550 532 q 499 438 513 477 q 479 350 486 398 q 474 161 460 222 q 540 95 488 101 q 629 142 592 89 q 684 319 666 194 z "},"~":{"ha":685,"x_min":45,"x_max":639,"o":"m 637 397 q 612 337 628 365 q 570 289 595 309 q 511 257 544 268 q 437 245 478 245 q 354 258 394 245 q 276 286 314 271 q 201 315 238 302 q 130 328 165 328 q 87 321 103 328 q 61 306 71 313 q 50 306 55 302 q 49 316 45 309 q 80 365 63 342 q 120 405 97 388 q 171 431 142 422 q 236 440 199 440 q 320 430 285 440 q 386 406 356 419 q 447 383 416 394 q 519 372 478 372 q 581 382 557 372 q 624 406 605 392 q 634 408 629 410 q 637 397 639 406 z "},"¡":{"ha":375,"x_min":86,"x_max":288,"o":"m 288 -226 q 261 -306 288 -278 q 189 -334 234 -334 q 115 -305 144 -334 q 86 -224 86 -276 q 92 -128 86 -173 q 108 -41 99 -83 q 128 41 117 1 q 148 123 139 81 q 164 208 158 164 q 170 303 170 253 q 177 326 170 322 q 189 331 184 331 q 201 326 194 331 q 208 303 208 322 q 214 209 208 253 q 228 122 219 164 q 248 40 238 81 q 267 -42 258 0 q 282 -129 276 -84 q 288 -226 288 -174 m 288 542 q 280 503 288 521 q 260 471 273 485 q 228 450 247 458 q 189 442 210 442 q 149 450 167 442 q 116 472 130 458 q 94 505 102 486 q 86 544 86 523 q 93 582 86 565 q 114 614 101 600 q 145 635 127 627 q 185 642 163 642 q 225 634 206 642 q 258 613 244 626 q 280 581 272 599 q 288 542 288 563 z "},"¿":{"ha":521,"x_min":-18,"x_max":507,"o":"m 326 856 q 319 817 326 835 q 299 785 312 799 q 267 764 285 772 q 228 756 249 756 q 188 764 206 756 q 155 786 169 772 q 133 818 141 800 q 125 858 125 837 q 132 896 125 878 q 153 927 140 914 q 184 949 166 941 q 224 956 202 956 q 264 948 245 956 q 297 926 283 940 q 318 894 310 913 q 326 856 326 876 m 189 610 q 196 624 191 619 q 207 629 201 629 q 219 624 213 629 q 228 608 224 619 q 265 538 240 567 q 321 483 290 508 q 384 434 351 458 q 441 380 416 410 q 483 312 467 349 q 503 235 499 274 q 499 156 507 195 q 469 83 491 117 q 421 33 450 52 q 357 2 392 13 q 286 -13 323 -9 q 217 -17 250 -17 q 131 -9 167 -17 q 68 11 94 -1 q 25 41 42 24 q -1 73 8 57 q -15 102 -11 88 q -18 126 -18 117 q -14 154 -18 139 q 0 181 -10 169 q 24 201 9 193 q 60 209 38 209 q 100 202 83 209 q 128 183 117 194 q 144 157 139 172 q 150 128 150 143 q 145 101 150 114 q 134 78 140 89 q 124 58 128 67 q 124 42 120 49 q 149 23 130 28 q 190 19 168 19 q 211 20 197 19 q 240 27 224 22 q 273 41 256 33 q 303 64 290 50 q 325 98 316 78 q 333 145 333 118 q 323 216 333 185 q 296 269 312 246 q 264 312 281 293 q 233 351 247 331 q 207 394 220 370 q 186 448 194 417 q 177 519 178 479 q 189 610 176 558 z "},"’":{"ha":347,"x_min":75,"x_max":273,"o":"m 125 764 q 107 782 116 773 q 91 802 98 792 q 80 826 84 813 q 75 856 75 839 q 83 894 75 876 q 104 925 90 912 q 136 947 117 939 q 176 955 154 955 q 215 946 197 955 q 246 922 233 937 q 266 887 259 907 q 273 846 273 867 q 257 760 273 799 q 217 691 242 722 q 161 637 192 660 q 101 599 131 614 q 86 600 92 593 q 91 617 81 606 q 117 651 106 631 q 135 692 129 672 q 139 732 141 713 q 125 764 138 751 z "},"‘":{"ha":347,"x_min":75,"x_max":273,"o":"m 223 764 q 209 732 210 751 q 213 692 207 713 q 231 651 219 672 q 257 617 242 631 q 261 600 267 606 q 247 599 256 593 q 187 637 217 614 q 131 691 156 660 q 91 760 106 722 q 75 846 75 799 q 82 887 75 867 q 102 922 89 907 q 133 946 115 937 q 172 955 151 955 q 212 947 194 955 q 244 925 231 939 q 265 894 258 912 q 273 856 273 876 q 268 826 273 839 q 257 802 264 813 q 241 782 250 792 q 223 764 232 773 z "},"”":{"ha":583,"x_min":75,"x_max":509,"o":"m 125 764 q 107 782 116 773 q 91 802 98 792 q 80 826 84 813 q 75 856 75 839 q 83 894 75 876 q 104 925 90 912 q 136 947 117 939 q 176 955 154 955 q 215 946 197 955 q 246 922 233 937 q 266 887 259 907 q 273 846 273 867 q 257 760 273 799 q 217 691 242 722 q 161 637 192 660 q 101 599 131 614 q 86 600 92 593 q 91 617 81 606 q 117 651 106 631 q 135 692 129 672 q 139 732 141 713 q 125 764 138 751 m 361 764 q 343 782 352 773 q 327 802 334 792 q 316 826 320 813 q 311 856 311 839 q 319 894 311 876 q 340 925 326 912 q 372 947 353 939 q 412 955 390 955 q 451 946 433 955 q 482 922 469 937 q 502 887 495 907 q 509 846 509 867 q 493 760 509 799 q 453 691 478 722 q 397 637 428 660 q 338 599 367 614 q 323 600 328 593 q 327 617 317 606 q 353 651 342 631 q 371 692 365 672 q 375 732 377 713 q 361 764 374 751 z "},"“":{"ha":583,"x_min":75,"x_max":509,"o":"m 459 764 q 445 732 447 751 q 449 692 443 713 q 467 651 455 672 q 493 617 478 631 q 498 600 503 606 q 483 599 492 593 q 423 637 453 614 q 367 691 392 660 q 327 760 342 722 q 311 846 311 799 q 318 887 311 867 q 338 922 325 907 q 369 946 351 937 q 408 955 387 955 q 448 947 430 955 q 480 925 467 939 q 501 894 494 912 q 509 856 509 876 q 505 826 509 839 q 493 802 500 813 q 477 782 486 792 q 459 764 468 773 m 223 764 q 209 732 210 751 q 213 692 207 713 q 231 651 219 672 q 257 617 242 631 q 261 600 267 606 q 247 599 256 593 q 187 637 217 614 q 131 691 156 660 q 91 760 106 722 q 75 846 75 799 q 82 887 75 867 q 102 922 89 907 q 133 946 115 937 q 172 955 151 955 q 212 947 194 955 q 244 925 231 939 q 265 894 258 912 q 273 856 273 876 q 268 826 273 839 q 257 802 264 813 q 241 782 250 792 q 223 764 232 773 z "},"¢":{"ha":656,"x_min":32,"x_max":636,"o":"m 615 167 q 630 166 624 172 q 630 148 636 160 q 608 115 624 138 q 565 66 592 92 q 497 18 537 40 q 403 -13 457 -4 q 395 -22 395 -15 l 395 -181 q 392 -201 395 -197 q 383 -205 390 -205 q 360 -196 370 -205 q 350 -174 350 -187 l 350 -25 q 345 -18 350 -18 q 215 3 273 -18 q 117 64 158 24 q 54 163 76 104 q 32 297 32 222 q 47 407 32 358 q 86 494 61 456 q 143 558 110 531 q 210 602 175 585 q 279 629 244 619 q 344 641 314 638 q 350 648 350 641 l 350 805 q 353 825 350 822 q 363 829 356 829 q 385 820 375 829 q 395 798 395 812 l 395 647 q 402 640 395 641 q 475 627 442 637 q 532 602 508 617 q 569 568 556 588 q 582 526 582 549 q 575 490 582 505 q 556 466 567 476 q 530 453 544 457 q 501 449 516 449 q 462 456 481 449 q 432 482 444 464 q 423 500 426 490 q 416 521 419 510 q 409 543 413 532 q 401 565 406 555 q 398 568 400 569 q 395 564 395 567 l 395 94 q 403 86 395 88 q 411 85 407 85 q 419 85 415 85 q 492 97 459 85 q 551 124 526 109 q 592 151 576 138 q 615 167 608 165 m 225 339 q 257 191 225 251 q 340 105 288 131 q 347 104 344 102 q 350 110 350 106 l 350 597 q 342 603 350 603 q 294 580 316 600 q 257 525 273 560 q 233 443 242 491 q 225 339 225 396 z "},"…":{"ha":1180,"x_min":69,"x_max":1111,"o":"m 278 86 q 269 46 278 65 q 247 13 261 27 q 213 -9 233 -1 q 172 -17 194 -17 q 131 -9 149 -17 q 98 12 112 -1 q 77 44 85 26 q 69 84 69 63 q 78 124 69 105 q 100 157 86 143 q 134 179 115 171 q 176 188 153 188 q 217 180 198 188 q 249 158 235 172 q 270 126 263 144 q 278 86 278 107 m 694 86 q 686 46 694 65 q 664 13 678 27 q 630 -9 649 -1 q 588 -17 610 -17 q 547 -9 566 -17 q 515 12 528 -1 q 494 44 501 26 q 486 84 486 63 q 494 124 486 105 q 517 157 503 143 q 551 179 531 171 q 592 188 570 188 q 633 180 615 188 q 666 158 652 172 q 687 126 679 144 q 694 86 694 107 m 1111 86 q 1103 46 1111 65 q 1080 13 1094 27 q 1047 -9 1066 -1 q 1005 -17 1027 -17 q 964 -9 983 -17 q 932 12 945 -1 q 910 44 918 26 q 903 84 903 63 q 911 124 903 105 q 934 157 919 143 q 967 179 948 171 q 1009 188 987 188 q 1050 180 1031 188 q 1082 158 1069 172 q 1103 126 1096 144 q 1111 86 1111 107 z "},"¤":{"ha":652,"x_min":18,"x_max":635,"o":"m 631 10 q 633 3 635 6 q 626 0 631 0 l 585 0 q 573 3 580 0 q 563 10 567 6 l 437 160 q 383 136 413 144 q 322 128 354 128 q 213 157 260 128 l 90 10 q 79 3 86 6 q 67 0 72 0 l 26 0 q 19 3 21 0 q 22 10 18 6 l 172 190 q 132 253 146 217 q 118 331 118 290 q 133 408 118 372 q 175 473 149 444 l 22 656 q 19 664 18 660 q 26 667 21 667 l 67 667 q 79 664 72 667 q 90 656 86 660 l 215 506 q 269 531 240 522 q 331 539 298 539 q 389 531 362 539 q 440 509 417 523 l 563 656 q 573 664 567 660 q 585 667 580 667 l 626 667 q 633 664 631 667 q 631 656 635 660 l 481 476 q 520 413 506 449 q 535 335 535 377 q 519 258 535 294 q 477 194 504 222 l 631 10 m 326 188 q 384 199 360 188 q 425 230 409 210 q 450 276 442 250 q 458 333 458 303 q 450 390 458 363 q 425 436 442 417 q 384 468 409 456 q 326 479 360 479 q 268 468 293 479 q 227 436 244 456 q 202 390 210 417 q 194 333 194 363 q 202 276 194 303 q 227 230 210 250 q 268 199 244 210 q 326 188 293 188 z "},"Æ":{"ha":1235,"x_min":-56,"x_max":1227,"o":"m 1205 200 q 1218 210 1209 211 q 1227 198 1227 209 l 1227 13 q 1213 0 1227 0 l 475 0 q 465 3 468 0 q 461 10 461 6 q 464 17 460 14 q 473 22 467 21 q 499 28 481 24 q 536 44 517 33 q 568 76 554 56 q 582 129 582 97 l 582 335 q 578 345 582 341 q 568 349 574 349 l 295 349 q 288 348 292 349 q 280 341 283 347 q 236 260 256 298 q 199 191 215 222 q 172 140 183 160 q 157 110 161 119 q 150 70 146 85 q 165 44 154 54 q 191 30 176 35 q 216 22 206 25 q 224 17 222 21 q 226 9 226 13 q 222 3 225 6 q 213 0 218 0 l -44 0 q -52 3 -49 0 q -56 9 -56 6 q -54 16 -56 13 q -46 22 -51 20 q 25 53 -9 31 q 86 113 60 76 q 114 157 93 124 q 162 237 134 190 q 224 342 190 284 q 293 459 258 399 q 361 577 328 519 q 421 683 394 635 q 466 764 448 731 q 487 808 483 797 q 486 838 491 824 q 471 864 481 852 q 447 884 460 875 q 420 900 433 894 q 395 911 406 907 q 378 915 383 915 q 368 920 372 916 q 366 927 365 924 q 369 934 366 931 q 380 938 373 938 l 1152 938 q 1167 924 1167 938 l 1167 780 q 1158 768 1167 769 q 1144 777 1150 767 q 1128 806 1140 786 q 1093 846 1115 826 q 1038 882 1071 867 q 958 898 1004 898 q 898 892 925 898 q 852 875 871 887 q 822 843 833 863 q 811 797 811 824 l 811 515 q 814 507 811 510 q 822 504 817 504 l 910 504 q 961 517 942 504 q 993 546 981 529 q 1009 579 1004 563 q 1015 603 1014 595 q 1020 611 1016 609 q 1027 614 1024 614 q 1034 610 1031 613 q 1038 601 1038 607 l 1038 365 q 1034 357 1038 360 q 1027 353 1031 353 q 1020 355 1024 353 q 1015 363 1016 358 q 1009 388 1014 372 q 993 421 1004 404 q 961 450 981 438 q 910 463 942 463 l 822 463 q 814 459 817 463 q 811 452 811 456 l 811 142 q 854 67 811 93 q 976 42 897 42 q 1045 52 1014 42 q 1100 77 1076 62 q 1143 111 1125 92 q 1175 148 1162 131 q 1195 180 1188 165 q 1205 200 1202 194 m 582 840 q 575 852 582 849 q 561 846 567 856 q 548 823 560 843 q 518 770 537 803 q 475 694 499 737 q 425 603 451 651 q 370 505 398 555 q 316 407 342 454 q 315 398 313 401 q 322 394 318 394 l 568 394 q 578 399 574 394 q 582 408 582 403 l 582 840 z "},"Œ":{"ha":1338,"x_min":28,"x_max":1330,"o":"m 1308 200 q 1321 210 1312 211 q 1330 198 1330 209 l 1330 13 q 1315 0 1330 0 l 715 0 q 660 -3 688 0 q 605 -10 632 -6 q 553 -16 578 -13 q 510 -19 529 -19 q 316 18 404 -19 q 163 121 227 56 q 64 274 99 186 q 28 463 28 362 q 45 593 28 531 q 95 711 63 656 q 174 811 128 766 q 275 889 219 857 q 396 939 331 922 q 531 957 460 957 q 572 954 550 957 q 618 947 593 951 q 673 941 643 944 q 737 938 702 938 l 1255 938 q 1269 924 1269 938 l 1269 780 q 1261 768 1269 769 q 1247 777 1252 767 q 1231 806 1243 786 q 1196 846 1218 826 q 1140 882 1174 867 q 1060 898 1107 898 q 1001 892 1028 898 q 955 875 974 887 q 925 843 935 863 q 914 797 914 824 l 914 504 l 914 515 q 917 507 914 510 q 924 504 919 504 l 1013 504 q 1064 517 1044 504 q 1095 546 1084 529 q 1112 579 1107 563 q 1118 603 1117 595 q 1123 611 1119 609 q 1130 614 1126 614 q 1137 610 1134 613 q 1140 601 1140 607 l 1140 365 q 1137 357 1140 360 q 1130 353 1134 353 q 1123 355 1126 353 q 1118 363 1119 358 q 1112 388 1117 372 q 1095 421 1107 404 q 1064 450 1084 438 q 1013 463 1044 463 l 924 463 q 917 459 919 463 q 914 452 914 456 l 914 463 l 914 142 q 957 67 914 93 q 1079 42 1000 42 q 1148 52 1117 42 q 1203 77 1178 62 q 1246 111 1228 92 q 1277 148 1265 131 q 1298 180 1290 165 q 1308 200 1305 194 m 295 469 q 309 294 295 376 q 351 152 323 213 q 422 57 379 92 q 521 22 464 22 q 610 53 575 22 q 663 140 645 85 q 672 188 668 155 q 677 265 675 221 q 681 362 680 310 q 682 469 682 415 q 681 576 682 524 q 677 673 680 628 q 672 750 675 717 q 663 797 668 783 q 610 884 645 853 q 521 916 575 916 q 422 881 464 916 q 351 785 379 846 q 309 643 323 724 q 295 469 295 561 z "},"œ":{"ha":1093,"x_min":19,"x_max":1066,"o":"m 692 368 q 681 356 681 368 q 693 235 681 285 q 730 152 706 184 q 789 104 753 119 q 872 89 825 89 q 936 97 908 89 q 985 114 965 104 q 1019 133 1006 124 q 1039 145 1033 142 q 1054 143 1049 149 q 1054 126 1060 138 q 1045 109 1052 122 q 1024 81 1038 97 q 989 48 1010 65 q 939 16 968 31 q 873 -8 910 1 q 790 -17 836 -17 q 676 1 728 -17 q 586 55 625 19 q 571 61 578 62 q 557 55 564 60 q 460 2 513 22 q 346 -17 407 -17 q 214 9 274 -17 q 111 78 154 34 q 44 182 68 122 q 19 310 19 242 q 46 439 19 378 q 118 545 72 499 q 226 617 164 590 q 360 643 288 643 q 474 624 422 643 q 568 572 526 606 q 582 565 576 565 q 594 571 588 565 q 689 624 638 606 q 795 642 741 642 q 891 627 849 642 q 962 589 932 613 q 1013 535 992 565 q 1044 476 1033 506 q 1061 422 1056 447 q 1066 381 1066 396 q 1061 371 1066 374 q 1049 368 1057 368 l 692 368 m 684 414 q 692 405 683 405 q 706 405 694 405 q 735 406 718 406 q 772 408 752 407 q 809 409 791 408 q 839 410 826 410 q 856 411 852 410 q 879 421 867 412 q 891 452 891 430 q 885 499 891 472 q 868 549 880 525 q 837 589 856 572 q 791 605 818 605 q 753 593 769 605 q 726 564 738 582 q 707 523 715 545 q 694 480 699 501 q 687 441 690 458 q 684 414 685 423 m 353 20 q 411 43 386 20 q 452 106 435 66 q 477 199 469 146 q 485 313 485 253 q 477 427 485 374 q 452 520 469 481 q 411 583 435 560 q 353 606 386 606 q 295 583 319 606 q 253 520 270 560 q 229 427 237 481 q 221 313 221 374 q 229 199 221 253 q 253 106 237 146 q 295 43 270 66 q 353 20 319 20 z "},"æ":{"ha":1005,"x_min":20,"x_max":978,"o":"m 603 368 q 592 356 592 368 q 605 235 592 285 q 641 152 617 184 q 701 104 665 119 q 784 89 737 89 q 848 97 820 89 q 897 114 876 104 q 931 133 918 124 q 951 145 944 142 q 966 143 960 149 q 966 126 972 138 q 957 109 964 122 q 935 81 949 97 q 901 48 922 65 q 851 16 880 31 q 785 -8 822 1 q 702 -17 748 -17 q 554 16 618 -17 q 450 111 490 50 q 444 115 447 115 q 439 110 441 115 q 365 18 414 53 q 241 -17 317 -17 q 137 0 179 -17 q 69 45 95 17 q 32 107 43 72 q 20 175 20 141 q 51 271 20 230 q 131 332 82 312 q 186 347 158 342 q 244 356 215 351 q 300 368 272 361 q 351 392 327 376 q 387 437 377 410 q 397 494 397 464 q 391 537 397 517 q 375 573 385 558 q 350 597 364 588 q 319 606 335 606 q 275 591 289 606 q 253 554 261 576 q 238 509 245 533 q 216 469 231 486 q 184 450 203 456 q 146 443 164 443 q 113 449 127 443 q 88 466 98 456 q 72 491 77 477 q 67 522 67 506 q 77 565 67 543 q 114 603 88 586 q 186 632 141 621 q 301 642 231 642 q 427 627 372 642 q 519 581 481 612 q 609 627 560 612 q 707 642 657 642 q 802 627 761 642 q 874 589 844 613 q 924 535 904 565 q 956 476 944 506 q 973 422 968 447 q 978 381 978 396 q 973 371 978 374 q 961 368 969 368 l 603 368 m 596 414 q 604 405 594 405 q 618 405 606 405 q 647 406 630 406 q 683 408 664 407 q 720 409 703 408 q 751 410 738 410 q 767 411 764 410 q 791 421 778 412 q 803 452 803 430 q 797 499 803 472 q 780 549 792 525 q 749 589 767 572 q 703 605 730 605 q 665 593 681 605 q 638 564 649 582 q 619 523 626 545 q 606 480 611 501 q 599 441 601 458 q 596 414 597 423 m 313 56 q 348 65 332 56 q 377 88 364 74 q 399 119 390 102 q 416 151 409 135 q 419 166 419 158 q 417 181 419 173 q 397 313 397 241 l 397 315 l 397 374 q 393 380 397 378 q 387 378 390 381 q 377 366 381 372 q 365 353 372 360 q 338 327 351 339 q 310 302 324 315 q 282 280 296 291 q 257 256 269 269 q 230 210 239 235 q 222 158 222 185 q 226 120 222 139 q 242 88 231 102 q 270 64 253 73 q 313 56 288 56 z "},"µ":{"ha":937,"x_min":128,"x_max":879,"o":"m 858 76 q 874 74 868 81 q 874 58 879 67 q 861 42 871 54 q 834 16 852 29 q 790 -7 817 3 q 726 -17 763 -17 q 649 1 681 -17 q 603 49 617 19 q 593 49 600 56 q 517 2 564 22 q 402 -17 471 -17 q 316 -8 351 -17 q 255 19 280 2 q 249 21 251 22 q 246 15 246 19 q 253 -23 246 -5 q 269 -59 260 -41 q 286 -94 278 -76 q 293 -131 293 -112 q 270 -192 293 -169 q 210 -216 248 -216 q 150 -192 173 -216 q 128 -131 128 -169 q 135 -94 128 -112 q 152 -59 143 -76 q 169 -23 161 -41 q 176 15 176 -5 l 176 611 q 181 621 176 617 q 190 625 185 625 l 350 625 q 360 621 356 625 q 364 611 364 617 l 364 261 q 365 218 364 242 q 369 170 365 194 q 380 123 372 146 q 400 82 387 99 q 434 53 414 64 q 485 42 455 42 q 543 56 522 42 q 576 90 565 69 q 590 135 587 111 q 593 181 593 160 l 593 611 q 597 621 593 617 q 607 625 601 625 l 767 625 q 776 621 772 625 q 781 611 781 617 l 781 144 q 792 87 781 108 q 828 66 803 66 q 844 69 839 66 q 858 76 850 72 z "},"'":{"ha":260,"x_min":46,"x_max":244,"o":"m 96 764 q 78 782 87 773 q 62 802 69 792 q 50 826 55 813 q 46 856 46 839 q 53 894 46 876 q 75 925 61 912 q 107 947 88 939 q 147 955 125 955 q 186 946 168 955 q 217 922 204 937 q 237 887 230 907 q 244 846 244 867 q 228 760 244 799 q 188 691 213 722 q 132 637 163 660 q 72 599 101 614 q 57 600 63 593 q 62 617 52 606 q 88 651 76 631 q 106 692 100 672 q 110 732 112 713 q 96 764 108 751 z "},"\"":{"ha":583,"x_min":75,"x_max":509,"o":"m 125 764 q 107 782 116 773 q 91 802 98 792 q 80 826 84 813 q 75 856 75 839 q 83 894 75 876 q 104 925 90 912 q 136 947 117 939 q 176 955 154 955 q 215 946 197 955 q 246 922 233 937 q 266 887 259 907 q 273 846 273 867 q 257 760 273 799 q 217 691 242 722 q 161 637 192 660 q 101 599 131 614 q 86 600 92 593 q 91 617 81 606 q 117 651 106 631 q 135 692 129 672 q 139 732 141 713 q 125 764 138 751 m 361 764 q 343 782 352 773 q 327 802 334 792 q 316 826 320 813 q 311 856 311 839 q 319 894 311 876 q 340 925 326 912 q 372 947 353 939 q 412 955 390 955 q 451 946 433 955 q 482 922 469 937 q 502 887 495 907 q 509 846 509 867 q 493 760 509 799 q 453 691 478 722 q 397 637 428 660 q 338 599 367 614 q 323 600 328 593 q 327 617 317 606 q 353 651 342 631 q 371 692 365 672 q 375 732 377 713 q 361 764 374 751 z "},"í":{"ha":489,"x_min":27,"x_max":402,"o":"m 308 635 q 302 646 308 645 q 289 642 295 647 q 235 611 265 626 q 174 582 206 595 q 110 557 142 568 q 51 540 78 547 q 41 530 41 538 q 51 521 42 523 q 62 518 53 520 q 83 513 72 516 q 102 508 94 510 q 113 506 111 506 q 121 495 121 504 l 121 109 q 110 64 121 81 q 84 38 99 47 q 57 25 70 28 q 38 20 43 21 q 30 16 32 19 q 28 9 27 13 q 32 3 28 6 q 40 0 35 0 l 389 0 q 398 3 394 0 q 401 9 401 6 q 400 16 402 13 q 392 20 397 19 q 373 25 386 21 q 345 38 359 28 q 319 64 331 47 q 308 109 308 81 l 308 635 m 126 688 q 143 713 131 694 q 173 757 156 732 q 208 808 190 781 q 242 858 226 835 q 268 897 258 881 q 280 914 278 913 q 298 934 288 924 q 319 949 308 943 q 343 955 331 954 q 369 950 356 956 q 391 932 385 944 q 398 907 397 920 q 393 878 398 893 q 382 853 389 864 q 336 802 366 828 q 272 752 307 776 q 201 709 237 728 q 137 676 165 689 q 125 677 129 673 q 126 688 122 681 z "},"Ø":{"ha":1042,"x_min":16,"x_max":1019,"o":"m 858 836 q 973 676 931 769 q 1014 474 1014 583 q 996 343 1014 406 q 946 226 978 281 q 868 126 914 172 q 766 48 822 81 q 646 -2 710 16 q 510 -19 581 -19 q 351 5 425 -19 q 218 74 278 29 l 85 -85 q 69 -96 79 -92 q 51 -101 60 -101 l 29 -101 q 18 -96 20 -101 q 22 -85 16 -92 l 181 104 q 68 263 108 171 q 28 463 28 356 q 45 593 28 531 q 95 711 63 656 q 174 811 128 766 q 275 889 219 857 q 396 939 331 922 q 531 957 460 957 q 688 933 615 957 q 820 867 761 910 l 951 1022 q 966 1034 956 1029 q 985 1038 976 1038 l 1006 1038 q 1017 1034 1015 1038 q 1014 1022 1019 1029 l 858 836 m 295 469 q 300 362 295 413 q 315 265 305 310 l 710 735 q 677 810 696 776 q 635 867 659 843 q 583 903 612 890 q 521 916 555 916 q 422 881 464 916 q 351 785 379 846 q 309 643 323 724 q 295 469 295 561 m 521 22 q 620 57 578 22 q 691 152 663 92 q 733 294 719 213 q 747 469 747 376 q 741 578 747 526 q 726 678 736 631 l 330 207 q 362 131 343 165 q 405 72 381 97 q 457 35 428 48 q 521 22 486 22 z "},"ø":{"ha":704,"x_min":-19,"x_max":717,"o":"m 704 726 q 715 721 713 726 q 712 710 717 717 l 584 557 q 659 451 632 513 q 685 316 685 389 q 659 187 685 248 q 587 81 633 126 q 479 9 541 35 q 345 -17 417 -17 q 240 -2 289 -17 q 151 42 192 14 l 45 -85 q 30 -96 40 -92 q 11 -101 19 -101 l -6 -101 q -17 -96 -15 -101 q -14 -85 -19 -92 l 117 71 q 44 176 70 115 q 19 309 19 238 q 45 438 19 377 q 117 544 72 499 q 225 616 163 590 q 359 642 288 642 q 461 627 414 642 q 549 585 509 613 l 653 710 q 668 721 658 717 q 688 726 678 726 l 704 726 m 220 313 q 222 256 220 283 q 228 203 224 228 l 463 484 q 420 573 447 540 q 352 606 392 606 q 294 583 319 606 q 253 520 269 560 q 228 426 236 480 q 220 313 220 373 m 484 313 q 476 428 484 374 l 239 147 q 283 54 255 88 q 352 19 310 19 q 410 42 385 19 q 451 105 435 65 q 476 199 468 145 q 484 313 484 252 z "},"*":{"ha":415,"x_min":17,"x_max":398,"o":"m 367 701 q 394 672 390 688 q 389 640 398 656 q 364 620 380 625 q 326 628 348 615 q 299 649 313 636 q 270 676 285 662 q 242 705 256 691 q 216 730 228 719 q 224 695 218 714 q 235 656 229 676 q 244 618 240 636 q 249 584 249 599 q 237 547 249 558 q 207 535 225 535 q 177 547 190 535 q 165 584 165 558 q 169 618 165 599 q 180 656 174 636 q 191 695 185 676 q 199 730 197 714 q 172 705 186 719 q 144 676 158 691 q 116 649 130 662 q 89 628 101 636 q 50 620 66 615 q 26 640 34 625 q 20 672 17 656 q 47 701 24 688 q 78 714 60 708 q 116 724 97 719 q 155 734 136 729 q 190 745 174 739 q 155 756 174 751 q 116 766 136 761 q 78 776 97 771 q 47 790 60 782 q 20 819 24 803 q 26 850 17 835 q 50 870 34 865 q 89 862 66 875 q 116 841 101 854 q 144 813 130 828 q 172 784 158 799 q 199 760 186 770 q 191 795 197 776 q 180 834 185 815 q 169 873 174 854 q 165 906 165 891 q 177 944 165 933 q 207 955 190 955 q 237 944 225 955 q 249 906 249 933 q 244 873 249 891 q 235 834 240 854 q 224 795 229 815 q 216 760 218 776 q 242 784 228 770 q 270 813 256 799 q 299 841 285 828 q 326 862 313 854 q 364 870 348 875 q 389 850 380 865 q 394 819 398 835 q 367 790 390 803 q 336 776 354 782 q 298 766 318 771 q 259 756 278 761 q 225 745 240 751 q 259 734 240 739 q 298 724 278 729 q 336 714 318 719 q 367 701 354 708 z "},"E":{"ha":753,"x_min":-126,"x_max":1201,"o":"m 1175 -51 q 1196 -49 1191 -42 q 1194 -70 1201 -56 q 1122 -159 1168 -115 q 1013 -240 1076 -204 q 870 -298 949 -276 q 697 -321 790 -321 q 528 -301 607 -321 q 377 -251 449 -281 q 241 -186 306 -221 q 118 -124 177 -152 q 2 -78 58 -95 q -108 -66 -53 -61 q -123 -61 -120 -67 q -117 -47 -126 -55 q -46 -9 -91 -25 q 55 7 -1 7 q 124 5 90 7 q 135 14 135 4 l 135 808 q 122 861 135 840 q 89 893 108 881 q 53 909 71 904 q 26 915 35 914 q 17 920 20 916 q 14 927 14 924 q 18 934 15 931 q 28 938 22 938 l 706 938 q 720 924 720 938 l 720 780 q 712 768 720 769 q 698 777 703 767 q 681 806 694 786 q 647 846 669 826 q 591 882 624 867 q 511 898 558 898 q 451 892 478 898 q 405 875 424 887 q 375 843 386 863 q 365 797 365 824 l 365 483 l 365 494 q 368 486 365 490 q 375 483 371 483 l 464 483 q 515 496 495 483 q 546 525 535 508 q 563 558 558 542 q 569 583 567 574 q 573 591 569 588 q 581 593 577 593 q 588 589 585 592 q 591 581 591 586 l 591 344 q 588 336 591 339 q 581 332 585 333 q 573 334 577 332 q 569 342 569 337 q 563 367 567 351 q 546 400 558 383 q 515 429 535 417 q 464 442 495 442 l 375 442 q 368 439 371 442 q 365 431 365 435 l 365 442 l 365 3 q 373 -25 365 -17 q 395 -38 381 -33 q 483 -62 428 -49 q 603 -88 538 -76 q 737 -109 668 -101 q 865 -117 806 -117 q 958 -113 915 -117 q 1038 -101 1000 -109 q 1109 -80 1075 -92 q 1175 -51 1142 -67 z "},"S":{"ha":866,"x_min":-503,"x_max":847,"o":"m 492 35 q 543 44 517 35 q 590 70 569 53 q 623 115 610 88 q 636 178 636 142 q 613 252 636 221 q 551 305 589 283 q 467 341 514 326 q 375 366 421 356 q 284 392 332 376 q 191 431 235 408 q 111 483 147 454 q 56 549 75 513 q 32 610 40 578 q 23 676 23 642 q 40 776 23 726 q 97 866 58 826 q 201 932 137 906 q 357 957 265 957 q 459 948 416 957 q 531 927 502 938 q 575 905 560 915 q 592 893 590 895 q 601 878 601 887 l 601 752 q 598 744 601 747 q 592 741 595 742 q 585 742 588 740 q 579 749 581 744 q 548 811 566 780 q 502 866 530 842 q 435 905 475 890 q 340 919 396 919 q 228 885 268 919 q 188 793 188 851 q 210 710 188 741 q 275 658 233 678 q 374 624 316 638 q 503 594 432 610 q 597 568 552 582 q 680 534 642 553 q 749 491 718 515 q 802 434 780 466 q 835 360 824 401 q 847 267 847 319 q 822 149 847 201 q 751 62 796 97 q 648 8 707 26 q 523 -10 590 -10 q 425 0 474 -10 q 328 26 377 10 q 228 59 278 41 q 123 92 177 76 q 9 117 68 107 q -113 127 -49 127 q -226 122 -174 127 q -323 107 -278 117 q -406 84 -367 97 q -481 55 -445 71 q -500 55 -496 48 q -500 72 -503 61 q -453 160 -483 119 q -381 232 -422 201 q -289 279 -340 262 q -181 297 -238 297 q -31 277 -98 297 q 94 229 37 258 q 200 166 151 200 q 297 103 250 132 q 392 55 344 74 q 492 35 439 35 z "},"M":{"ha":1149,"x_min":-532,"x_max":1135,"o":"m 244 750 q 176 162 223 405 q 58 -233 129 -81 q -107 -456 -12 -386 q -318 -526 -201 -526 q -419 -505 -378 -526 q -485 -451 -460 -484 q -521 -376 -510 -417 q -532 -294 -532 -335 q -525 -281 -532 -284 q -511 -285 -519 -277 q -494 -300 -503 -293 q -475 -311 -486 -306 q -448 -318 -463 -316 q -410 -321 -432 -321 q -294 -288 -351 -321 q -183 -199 -237 -256 q -80 -66 -129 -142 q 13 98 -30 10 q 92 279 56 185 q 152 465 127 373 q 191 644 177 558 q 204 801 204 730 q 198 840 204 823 q 181 868 191 856 q 157 888 170 880 q 131 901 144 896 q 106 910 118 907 q 87 915 94 913 q 77 921 81 917 q 75 928 74 924 q 78 935 75 932 q 89 938 82 938 l 413 938 q 430 933 422 938 q 440 921 438 929 q 452 873 444 903 q 470 805 460 843 q 491 725 480 767 q 512 640 501 682 q 533 558 523 597 q 552 486 544 518 q 565 433 560 454 q 572 407 570 413 q 576 403 573 403 q 580 406 578 403 q 590 430 581 410 q 610 482 598 451 q 639 553 623 513 q 672 636 655 593 q 706 723 689 679 q 738 804 723 766 q 766 873 753 842 q 785 921 778 903 q 813 938 792 938 l 1120 938 q 1131 934 1127 938 q 1134 927 1134 931 q 1132 920 1135 924 q 1122 915 1128 916 q 1096 909 1114 914 q 1059 893 1078 904 q 1027 861 1041 881 q 1013 808 1013 840 l 1013 129 q 1027 76 1013 97 q 1059 44 1041 56 q 1096 28 1078 33 q 1122 22 1114 24 q 1132 17 1128 21 q 1134 10 1135 14 q 1131 3 1134 6 q 1120 0 1127 0 l 677 0 q 667 3 670 0 q 663 10 663 6 q 666 17 663 14 q 675 22 669 21 q 701 28 683 24 q 738 44 719 33 q 770 76 756 56 q 784 129 784 97 l 784 773 q 780 780 784 778 q 773 774 776 781 q 763 749 772 772 q 739 689 753 726 q 705 604 724 652 q 664 501 685 556 q 620 390 642 447 q 576 280 597 333 q 535 178 554 226 q 501 93 516 130 q 478 35 487 57 q 468 13 469 14 q 457 6 464 6 q 447 13 451 6 q 438 46 447 14 q 417 129 430 78 q 387 246 403 181 q 353 379 370 311 q 319 513 335 447 q 289 631 302 578 q 267 716 276 683 q 257 753 258 749 q 250 758 255 758 q 244 750 245 758 z "},"»":{"ha":800,"x_min":43,"x_max":765,"o":"m 387 383 q 424 349 410 365 q 438 313 438 332 q 424 276 438 292 q 387 242 410 260 q 363 225 385 240 q 307 187 340 210 q 236 138 274 165 q 162 87 197 111 q 100 44 127 63 q 65 19 74 25 q 49 19 55 13 q 49 36 43 26 q 95 101 68 65 q 152 174 122 138 q 216 247 183 211 q 281 310 249 282 q 281 315 284 313 q 216 378 249 343 q 152 451 183 414 q 95 523 122 488 q 49 588 68 559 q 46 598 46 593 q 49 605 47 602 q 56 609 51 608 q 65 606 60 609 q 100 581 74 599 q 162 538 127 563 q 236 487 197 514 q 307 438 274 460 q 363 400 340 415 q 387 383 385 384 m 713 383 q 750 349 736 365 q 765 313 765 332 q 750 276 765 292 q 713 242 736 260 q 689 225 711 240 q 634 187 667 210 q 562 138 601 165 q 489 87 524 111 q 427 44 453 63 q 391 19 400 25 q 375 19 381 13 q 376 36 369 26 q 421 101 394 65 q 479 174 448 138 q 543 247 510 211 q 608 310 576 282 q 608 315 610 313 q 543 378 576 343 q 479 451 510 414 q 421 523 448 488 q 376 588 394 559 q 373 598 372 593 q 375 605 373 602 q 382 609 378 608 q 391 606 386 609 q 427 581 400 599 q 489 538 453 563 q 562 487 524 514 q 634 438 601 460 q 689 400 667 415 q 713 383 711 384 z "},"§":{"ha":514,"x_min":29,"x_max":484,"o":"m 378 406 q 369 397 371 403 q 373 385 367 390 q 407 348 392 368 q 434 306 423 328 q 452 256 446 283 q 458 198 458 229 q 442 104 458 144 q 399 37 426 64 q 335 -4 372 10 q 257 -17 299 -17 q 169 -4 208 -17 q 103 30 130 9 q 62 78 76 51 q 48 134 48 106 q 63 181 48 166 q 104 197 78 197 q 146 183 131 197 q 161 146 161 169 q 159 129 161 136 q 155 116 158 122 q 151 105 153 110 q 149 93 149 99 q 157 65 149 78 q 177 39 164 51 q 211 21 191 28 q 255 14 231 14 q 336 45 308 14 q 364 135 364 76 q 353 192 364 167 q 323 239 343 217 q 275 282 303 261 q 208 324 246 302 q 141 370 174 345 q 84 428 109 396 q 44 500 59 460 q 29 590 29 540 q 51 691 29 649 q 113 757 74 733 q 116 784 129 767 q 76 848 92 813 q 60 927 60 883 q 76 1005 60 969 q 117 1068 91 1041 q 177 1110 142 1094 q 249 1125 211 1125 q 328 1113 294 1125 q 386 1081 363 1101 q 422 1036 410 1061 q 434 985 434 1011 q 419 938 434 953 q 378 923 403 923 q 336 937 351 923 q 321 974 321 951 q 323 991 321 983 q 327 1004 324 998 q 331 1015 329 1010 q 333 1026 333 1020 q 327 1049 333 1037 q 310 1071 321 1060 q 285 1088 300 1081 q 251 1094 269 1094 q 211 1087 228 1094 q 181 1066 193 1079 q 161 1033 168 1052 q 155 992 155 1015 q 167 935 155 960 q 201 886 179 909 q 251 843 222 864 q 315 799 281 822 q 379 753 349 777 q 433 702 410 730 q 470 641 456 674 q 484 565 484 607 q 454 467 484 506 q 378 406 424 428 m 96 654 q 110 595 96 622 q 148 546 125 569 q 200 504 172 524 q 258 467 229 485 q 292 445 275 456 q 326 422 310 434 q 334 418 330 419 q 344 419 339 417 q 380 446 366 429 q 394 491 394 463 q 385 541 394 519 q 361 583 376 564 q 323 621 345 603 q 273 659 301 639 q 219 696 249 676 q 159 741 188 716 q 141 742 150 748 q 108 707 120 728 q 96 654 96 685 z "},"›":{"ha":469,"x_min":43,"x_max":438,"o":"m 387 383 q 424 349 410 365 q 438 313 438 332 q 424 276 438 292 q 387 242 410 260 q 363 225 385 240 q 307 187 340 210 q 236 138 274 165 q 162 87 197 111 q 100 44 127 63 q 65 19 74 25 q 49 19 55 13 q 49 36 43 26 q 95 101 68 65 q 152 174 122 138 q 216 247 183 211 q 281 310 249 282 q 281 315 284 313 q 216 378 249 343 q 152 451 183 414 q 95 523 122 488 q 49 588 68 559 q 46 598 46 593 q 49 605 47 602 q 56 609 51 608 q 65 606 60 609 q 100 581 74 599 q 162 538 127 563 q 236 487 197 514 q 307 438 274 460 q 363 400 340 415 q 387 383 385 384 z "},"‹":{"ha":469,"x_min":31,"x_max":426,"o":"m 82 383 q 106 400 84 384 q 161 438 128 415 q 233 487 194 460 q 307 538 272 514 q 368 581 342 563 q 404 606 395 599 q 413 609 409 609 q 420 605 417 608 q 422 598 422 602 q 419 588 422 593 q 374 523 401 559 q 316 451 347 488 q 252 378 285 414 q 188 315 219 343 q 188 310 185 313 q 252 247 219 282 q 316 174 285 211 q 374 101 347 138 q 419 36 401 65 q 420 19 426 26 q 404 19 414 13 q 368 44 395 25 q 307 87 342 63 q 233 138 272 111 q 161 187 194 165 q 106 225 128 210 q 82 242 84 240 q 45 276 59 260 q 31 313 31 292 q 45 349 31 332 q 82 383 59 365 z "},"«":{"ha":800,"x_min":33,"x_max":754,"o":"m 410 383 q 435 400 413 384 q 490 438 457 415 q 561 487 523 460 q 635 538 600 514 q 697 581 670 563 q 733 606 724 599 q 742 609 738 609 q 748 605 746 608 q 751 598 751 602 q 748 588 751 593 q 702 523 729 559 q 645 451 676 488 q 581 378 614 414 q 516 315 548 343 q 516 310 513 313 q 581 247 548 282 q 645 174 614 211 q 702 101 676 138 q 748 36 729 65 q 748 19 754 26 q 733 19 742 13 q 697 44 724 25 q 635 87 670 63 q 561 138 600 111 q 490 187 523 165 q 435 225 457 210 q 410 242 413 240 q 373 276 388 260 q 359 313 359 292 q 373 349 359 332 q 410 383 388 365 m 84 383 q 108 400 86 384 q 164 438 131 415 q 235 487 197 460 q 309 538 274 514 q 370 581 344 563 q 406 606 397 599 q 415 609 411 609 q 422 605 419 608 q 424 598 424 602 q 422 588 424 593 q 376 523 403 559 q 318 451 349 488 q 255 378 288 414 q 190 315 222 343 q 190 310 187 313 q 255 247 222 282 q 318 174 288 211 q 376 101 349 138 q 422 36 403 65 q 422 19 428 26 q 406 19 416 13 q 370 44 397 25 q 309 87 344 63 q 235 138 274 111 q 164 187 197 165 q 108 225 131 210 q 84 242 86 240 q 47 276 61 260 q 33 313 33 292 q 47 349 33 332 q 84 383 61 365 z "},"ñ":{"ha":795,"x_min":15,"x_max":807,"o":"m 797 20 q 777 25 791 21 q 750 38 764 28 q 724 64 735 47 q 713 109 713 81 l 713 377 l 713 381 q 712 434 713 406 q 705 492 711 463 q 686 549 699 522 q 647 597 672 576 q 583 630 622 617 q 488 642 544 642 q 424 637 453 642 q 372 622 395 631 q 330 601 349 613 q 297 576 311 589 l 297 635 q 290 646 297 645 q 277 642 283 647 q 224 611 253 626 q 162 582 194 595 q 98 557 130 568 q 40 540 67 547 q 30 530 29 538 q 39 521 30 523 q 50 518 41 520 q 71 513 60 516 q 91 508 82 510 q 101 506 99 506 q 109 495 109 504 l 109 109 q 98 64 109 81 q 73 38 87 47 q 45 25 58 28 q 26 20 31 21 q 18 16 20 19 q 16 9 15 13 q 20 3 17 6 q 28 0 23 0 l 377 0 q 386 3 383 0 q 390 9 389 6 q 388 16 390 13 q 380 20 385 19 q 361 25 374 21 q 333 38 347 28 q 308 64 319 47 q 297 109 297 81 l 297 429 q 299 477 297 450 q 312 527 301 503 q 345 567 323 551 q 408 583 367 583 q 470 566 447 583 q 505 525 493 550 q 521 468 517 499 q 526 408 525 438 l 526 369 l 526 364 l 526 109 q 515 64 526 81 q 489 38 503 47 q 461 25 475 28 q 442 20 448 21 q 434 16 437 19 q 433 9 432 13 q 436 3 433 6 q 445 0 440 0 l 526 0 l 532 0 l 707 0 l 713 0 l 794 0 q 802 3 799 0 q 806 9 806 6 q 805 16 807 13 q 797 20 802 19 m 706 868 q 681 808 697 835 q 639 759 664 780 q 580 727 613 739 q 506 716 547 716 q 423 729 463 716 q 344 757 383 742 q 270 786 306 773 q 199 799 234 799 q 156 792 172 799 q 130 777 140 784 q 119 776 124 773 q 117 787 114 780 q 149 836 132 813 q 189 876 166 859 q 240 902 211 892 q 305 911 268 911 q 389 900 354 911 q 455 877 424 890 q 516 854 485 865 q 588 843 547 843 q 650 853 626 843 q 692 876 674 863 q 703 878 698 881 q 706 868 708 876 z "},"˜":{"ha":795,"x_min":114,"x_max":708,"o":"m 706 868 q 681 808 697 835 q 639 759 664 780 q 580 727 613 739 q 506 716 547 716 q 423 729 463 716 q 344 757 383 742 q 270 786 306 773 q 199 799 234 799 q 156 792 172 799 q 130 777 140 784 q 119 776 124 773 q 117 787 114 780 q 149 836 132 813 q 189 876 166 859 q 240 902 211 892 q 305 911 268 911 q 389 900 354 911 q 455 877 424 890 q 516 854 485 865 q 588 843 547 843 q 650 853 626 843 q 692 876 674 863 q 703 878 698 881 q 706 868 708 876 z "},"À":{"ha":936,"x_min":-42,"x_max":974,"o":"m 964 23 q 972 18 969 22 q 973 10 974 15 q 969 3 972 6 q 959 0 965 0 l 523 0 q 515 3 518 0 q 511 9 512 6 q 512 17 510 13 q 522 22 515 20 q 546 30 528 24 q 580 48 564 35 q 606 83 597 61 q 603 138 615 104 q 594 165 600 147 q 581 205 588 183 q 566 250 574 226 q 552 293 558 273 q 541 326 546 313 q 535 343 536 340 q 528 349 533 349 l 228 349 q 220 344 222 349 q 211 316 217 335 q 198 272 206 297 q 182 221 190 248 q 167 172 174 194 q 155 132 160 149 q 149 110 150 115 q 152 68 144 84 q 174 43 160 52 q 203 29 188 33 q 230 22 219 25 q 238 17 236 21 q 240 9 240 13 q 235 3 239 6 q 227 0 232 0 l -30 0 q -39 3 -35 0 q -42 9 -42 6 q -40 16 -42 13 q -32 22 -37 20 q 3 33 -14 26 q 36 51 21 40 q 63 77 51 62 q 83 113 75 92 q 101 163 88 124 q 135 259 115 202 q 180 386 156 317 q 229 527 204 456 q 277 666 253 598 q 319 786 301 733 q 348 872 337 839 q 360 906 360 904 q 367 918 363 914 q 381 924 372 922 q 416 931 396 926 q 457 942 436 936 q 499 954 478 947 q 538 968 520 960 q 555 971 549 974 q 563 960 560 968 q 575 925 564 958 q 603 840 585 892 q 643 720 621 788 q 689 581 665 653 q 737 439 713 510 q 780 309 760 368 q 814 207 800 250 q 833 149 828 165 q 858 98 844 119 q 889 60 872 76 q 925 35 906 44 q 964 23 944 26 m 240 403 q 245 394 236 394 l 510 394 q 515 403 518 394 q 509 423 515 405 q 493 470 503 442 q 472 535 483 499 q 447 609 460 572 q 423 682 435 646 q 402 745 411 717 q 386 791 392 774 q 381 809 381 808 q 375 813 379 814 q 369 808 370 813 q 360 783 368 807 q 341 722 353 759 q 315 639 329 685 q 286 549 300 594 q 259 466 272 505 q 240 403 247 427 m 476 983 q 477 972 481 976 q 466 972 474 968 q 402 1004 438 984 q 331 1048 366 1024 q 266 1098 296 1072 q 221 1148 236 1124 q 209 1174 213 1159 q 205 1202 204 1188 q 211 1227 205 1215 q 233 1245 218 1239 q 259 1250 247 1251 q 284 1244 272 1249 q 305 1229 295 1238 q 322 1209 315 1219 q 334 1192 324 1208 q 361 1153 345 1176 q 395 1103 376 1131 q 430 1052 413 1076 q 459 1008 447 1027 q 476 983 472 990 z "},"Á":{"ha":936,"x_min":-42,"x_max":974,"o":"m 964 23 q 925 35 944 26 q 889 60 906 44 q 858 98 872 76 q 833 149 844 119 q 814 207 828 165 q 780 309 800 250 q 737 439 760 368 q 689 581 713 510 q 643 720 665 653 q 603 840 621 788 q 575 925 585 892 q 563 960 564 958 q 555 971 560 968 q 538 968 549 974 q 499 954 520 960 q 457 942 478 947 q 416 931 436 936 q 381 924 396 926 q 367 918 372 922 q 360 906 363 914 q 348 872 360 904 q 319 786 337 839 q 277 666 301 733 q 229 527 253 598 q 180 386 204 456 q 135 259 156 317 q 101 163 115 202 q 83 113 88 124 q 63 77 75 92 q 36 51 51 62 q 3 33 21 40 q -32 22 -14 26 q -40 16 -37 20 q -42 9 -42 13 q -39 3 -42 6 q -30 0 -35 0 l 227 0 q 235 3 232 0 q 240 9 239 6 q 238 17 240 13 q 230 22 236 21 q 203 29 219 25 q 174 43 188 33 q 152 68 160 52 q 149 110 144 84 q 155 132 150 115 q 167 172 160 149 q 182 221 174 194 q 198 272 190 248 q 211 316 206 297 q 220 344 217 335 q 228 349 222 349 l 528 349 q 535 343 533 349 q 541 326 536 340 q 552 293 546 313 q 566 250 558 273 q 581 205 574 226 q 594 165 588 183 q 603 138 600 147 q 606 83 615 104 q 580 48 597 61 q 546 30 564 35 q 522 22 528 24 q 512 17 515 20 q 511 9 510 13 q 515 3 512 6 q 523 0 518 0 l 959 0 q 969 3 965 0 q 973 10 972 6 q 972 18 974 15 q 964 23 969 22 m 240 403 q 259 466 247 427 q 286 549 272 505 q 315 639 300 594 q 341 722 329 685 q 360 783 353 759 q 369 808 368 807 q 375 813 370 813 q 381 809 379 814 q 386 791 381 808 q 402 745 392 774 q 423 682 411 717 q 447 609 435 646 q 472 535 460 572 q 493 470 483 499 q 509 423 503 442 q 515 403 515 405 q 510 394 518 394 l 245 394 q 240 403 236 394 m 365 983 q 382 1008 369 990 q 412 1052 395 1027 q 447 1103 428 1076 q 481 1153 465 1131 q 507 1192 497 1176 q 519 1209 518 1208 q 537 1229 527 1219 q 558 1244 547 1238 q 582 1250 569 1249 q 609 1245 595 1251 q 630 1227 624 1239 q 637 1202 637 1215 q 633 1174 638 1188 q 621 1148 628 1159 q 576 1098 606 1124 q 511 1048 546 1072 q 440 1004 476 1024 q 376 972 403 984 q 365 972 368 968 q 365 983 361 976 z "},"Â":{"ha":936,"x_min":-42,"x_max":974,"o":"m 964 23 q 972 18 969 22 q 973 10 974 15 q 969 3 972 6 q 959 0 965 0 l 523 0 q 515 3 518 0 q 511 9 512 6 q 512 17 510 13 q 522 22 515 20 q 546 30 528 24 q 580 48 564 35 q 606 83 597 61 q 603 138 615 104 q 594 165 600 147 q 581 205 588 183 q 566 250 574 226 q 552 293 558 273 q 541 326 546 313 q 535 343 536 340 q 528 349 533 349 l 228 349 q 220 344 222 349 q 211 316 217 335 q 198 272 206 297 q 182 221 190 248 q 167 172 174 194 q 155 132 160 149 q 149 110 150 115 q 152 68 144 84 q 174 43 160 52 q 203 29 188 33 q 230 22 219 25 q 238 17 236 21 q 240 9 240 13 q 235 3 239 6 q 227 0 232 0 l -30 0 q -39 3 -35 0 q -42 9 -42 6 q -40 16 -42 13 q -32 22 -37 20 q 3 33 -14 26 q 36 51 21 40 q 63 77 51 62 q 83 113 75 92 q 101 163 88 124 q 135 259 115 202 q 180 386 156 317 q 229 527 204 456 q 277 666 253 598 q 319 786 301 733 q 348 872 337 839 q 360 906 360 904 q 367 918 363 914 q 381 924 372 922 q 416 931 396 926 q 457 942 436 936 q 499 954 478 947 q 538 968 520 960 q 555 971 549 974 q 563 960 560 968 q 575 925 564 958 q 603 840 585 892 q 643 720 621 788 q 689 581 665 653 q 737 439 713 510 q 780 309 760 368 q 814 207 800 250 q 833 149 828 165 q 858 98 844 119 q 889 60 872 76 q 925 35 906 44 q 964 23 944 26 m 240 403 q 245 394 236 394 l 510 394 q 515 403 518 394 q 509 423 515 405 q 493 470 503 442 q 472 535 483 499 q 447 609 460 572 q 423 682 435 646 q 402 745 411 717 q 386 791 392 774 q 381 809 381 808 q 375 813 379 814 q 369 808 370 813 q 360 783 368 807 q 341 722 353 759 q 315 639 329 685 q 286 549 300 594 q 259 466 272 505 q 240 403 247 427 m 695 983 q 696 972 699 976 q 685 971 692 967 q 637 994 663 980 q 584 1025 611 1008 q 530 1060 556 1042 q 483 1099 504 1079 q 466 1099 474 1106 q 418 1060 444 1079 q 365 1025 392 1042 q 311 994 338 1008 q 264 971 285 980 q 253 972 256 967 q 253 983 249 976 q 270 1008 258 989 q 300 1051 283 1026 q 335 1103 317 1076 q 369 1153 353 1130 q 395 1191 385 1176 q 408 1208 406 1207 q 437 1238 420 1225 q 474 1250 454 1250 q 511 1238 494 1250 q 541 1208 528 1225 q 553 1191 542 1207 q 580 1153 564 1176 q 614 1103 595 1130 q 649 1051 632 1076 q 678 1008 665 1026 q 695 983 691 989 z "},"Ã":{"ha":936,"x_min":-42,"x_max":974,"o":"m 964 23 q 925 35 944 26 q 889 60 906 44 q 858 98 872 76 q 833 149 844 119 q 814 207 828 165 q 780 309 800 250 q 737 439 760 368 q 689 581 713 510 q 643 720 665 653 q 603 840 621 788 q 575 925 585 892 q 563 960 564 958 q 555 971 560 968 q 538 968 549 974 q 499 954 520 960 q 457 942 478 947 q 416 931 436 936 q 381 924 396 926 q 367 918 372 922 q 360 906 363 914 q 348 872 360 904 q 319 786 337 839 q 277 666 301 733 q 229 527 253 598 q 180 386 204 456 q 135 259 156 317 q 101 163 115 202 q 83 113 88 124 q 63 77 75 92 q 36 51 51 62 q 3 33 21 40 q -32 22 -14 26 q -40 16 -37 20 q -42 9 -42 13 q -39 3 -42 6 q -30 0 -35 0 l 227 0 q 235 3 232 0 q 240 9 239 6 q 238 17 240 13 q 230 22 236 21 q 203 29 219 25 q 174 43 188 33 q 152 68 160 52 q 149 110 144 84 q 155 132 150 115 q 167 172 160 149 q 182 221 174 194 q 198 272 190 248 q 211 316 206 297 q 220 344 217 335 q 228 349 222 349 l 528 349 q 535 343 533 349 q 541 326 536 340 q 552 293 546 313 q 566 250 558 273 q 581 205 574 226 q 594 165 588 183 q 603 138 600 147 q 606 83 615 104 q 580 48 597 61 q 546 30 564 35 q 522 22 528 24 q 512 17 515 20 q 511 9 510 13 q 515 3 512 6 q 523 0 518 0 l 959 0 q 969 3 965 0 q 973 10 972 6 q 972 18 974 15 q 964 23 969 22 m 240 403 q 259 466 247 427 q 286 549 272 505 q 315 639 300 594 q 341 722 329 685 q 360 783 353 759 q 369 808 368 807 q 375 813 370 813 q 381 809 379 814 q 386 791 381 808 q 402 745 392 774 q 423 682 411 717 q 447 609 435 646 q 472 535 460 572 q 493 470 483 499 q 509 423 503 442 q 515 403 515 405 q 510 394 518 394 l 245 394 q 240 403 236 394 m 754 1157 q 729 1097 746 1124 q 687 1048 713 1069 q 628 1016 662 1028 q 554 1005 595 1005 q 471 1018 511 1005 q 393 1046 431 1031 q 319 1075 355 1062 q 247 1088 283 1088 q 205 1081 221 1088 q 178 1066 188 1073 q 167 1065 172 1062 q 166 1076 163 1069 q 198 1125 181 1102 q 237 1165 215 1148 q 288 1191 260 1181 q 353 1200 317 1200 q 438 1189 403 1200 q 503 1166 473 1178 q 564 1143 533 1153 q 636 1132 595 1132 q 698 1142 674 1132 q 741 1165 722 1151 q 751 1167 747 1169 q 754 1157 756 1165 z "},"Ä":{"ha":936,"x_min":-42,"x_max":974,"o":"m 964 23 q 925 35 944 26 q 889 60 906 44 q 858 98 872 76 q 833 149 844 119 q 814 207 828 165 q 780 309 800 250 q 737 439 760 368 q 689 581 713 510 q 643 720 665 653 q 603 840 621 788 q 575 925 585 892 q 563 960 564 958 q 555 971 560 968 q 538 968 549 974 q 499 954 520 960 q 457 942 478 947 q 416 931 436 936 q 381 924 396 926 q 367 918 372 922 q 360 906 363 914 q 348 872 360 904 q 319 786 337 839 q 277 666 301 733 q 229 527 253 598 q 180 386 204 456 q 135 259 156 317 q 101 163 115 202 q 83 113 88 124 q 63 77 75 92 q 36 51 51 62 q 3 33 21 40 q -32 22 -14 26 q -40 16 -37 20 q -42 9 -42 13 q -39 3 -42 6 q -30 0 -35 0 l 227 0 q 235 3 232 0 q 240 9 239 6 q 238 17 240 13 q 230 22 236 21 q 203 29 219 25 q 174 43 188 33 q 152 68 160 52 q 149 110 144 84 q 155 132 150 115 q 167 172 160 149 q 182 221 174 194 q 198 272 190 248 q 211 316 206 297 q 220 344 217 335 q 228 349 222 349 l 528 349 q 535 343 533 349 q 541 326 536 340 q 552 293 546 313 q 566 250 558 273 q 581 205 574 226 q 594 165 588 183 q 603 138 600 147 q 606 83 615 104 q 580 48 597 61 q 546 30 564 35 q 522 22 528 24 q 512 17 515 20 q 511 9 510 13 q 515 3 512 6 q 523 0 518 0 l 959 0 q 969 3 965 0 q 973 10 972 6 q 972 18 974 15 q 964 23 969 22 m 240 403 q 259 466 247 427 q 286 549 272 505 q 315 639 300 594 q 341 722 329 685 q 360 783 353 759 q 369 808 368 807 q 375 813 370 813 q 381 809 379 814 q 386 791 381 808 q 402 745 392 774 q 423 682 411 717 q 447 609 435 646 q 472 535 460 572 q 493 470 483 499 q 509 423 503 442 q 515 403 515 405 q 510 394 518 394 l 245 394 q 240 403 236 394 m 412 1128 q 403 1088 412 1106 q 381 1055 395 1069 q 347 1032 367 1040 q 306 1024 328 1024 q 265 1032 283 1024 q 232 1054 246 1040 q 211 1086 219 1067 q 203 1126 203 1104 q 212 1166 203 1147 q 234 1199 220 1185 q 268 1221 249 1213 q 310 1229 288 1229 q 351 1221 332 1229 q 383 1200 369 1213 q 404 1167 397 1186 q 412 1128 412 1149 m 731 1128 q 723 1088 731 1106 q 700 1055 715 1069 q 667 1032 686 1040 q 625 1024 647 1024 q 584 1032 603 1024 q 552 1054 565 1040 q 531 1086 538 1067 q 523 1126 523 1104 q 531 1166 523 1147 q 554 1199 540 1185 q 588 1221 568 1213 q 629 1229 607 1229 q 670 1221 651 1229 q 702 1200 689 1213 q 724 1167 716 1186 q 731 1128 731 1149 z "},"Å":{"ha":936,"x_min":-42,"x_max":974,"o":"m 964 23 q 972 18 969 22 q 973 10 974 15 q 969 3 972 6 q 959 0 965 0 l 523 0 q 515 3 518 0 q 511 9 512 6 q 512 17 510 13 q 522 22 515 20 q 546 30 528 24 q 580 48 564 35 q 606 83 597 61 q 603 138 615 104 q 594 165 600 147 q 581 205 588 183 q 566 250 574 226 q 552 293 558 273 q 541 326 546 313 q 535 343 536 340 q 528 349 533 349 l 228 349 q 220 344 222 349 q 211 316 217 335 q 198 272 206 297 q 182 221 190 248 q 167 172 174 194 q 155 132 160 149 q 149 110 150 115 q 152 68 144 84 q 174 43 160 52 q 203 29 188 33 q 230 22 219 25 q 238 17 236 21 q 240 9 240 13 q 235 3 239 6 q 227 0 232 0 l -30 0 q -39 3 -35 0 q -42 9 -42 6 q -40 16 -42 13 q -32 22 -37 20 q 3 33 -14 26 q 36 51 21 40 q 63 77 51 62 q 83 113 75 92 q 101 163 88 124 q 135 259 115 202 q 180 386 156 317 q 229 527 204 456 q 277 666 253 598 q 319 786 301 733 q 348 872 337 839 q 360 906 360 904 q 367 918 363 914 q 381 924 372 922 q 416 931 396 926 q 457 942 436 936 q 499 954 478 947 q 538 968 520 960 q 555 971 549 974 q 563 960 560 968 q 575 925 564 958 q 603 840 585 892 q 643 720 621 788 q 689 581 665 653 q 737 439 713 510 q 780 309 760 368 q 814 207 800 250 q 833 149 828 165 q 858 98 844 119 q 889 60 872 76 q 925 35 906 44 q 964 23 944 26 m 240 403 q 245 394 236 394 l 510 394 q 515 403 518 394 q 509 423 515 405 q 493 470 503 442 q 472 535 483 499 q 447 609 460 572 q 423 682 435 646 q 402 745 411 717 q 386 791 392 774 q 381 809 381 808 q 375 813 379 814 q 369 808 370 813 q 360 783 368 807 q 341 722 353 759 q 315 639 329 685 q 286 549 300 594 q 259 466 272 505 q 240 403 247 427 m 458 1250 q 507 1241 485 1250 q 544 1215 528 1231 q 569 1176 560 1198 q 578 1128 578 1153 q 568 1080 578 1102 q 542 1040 558 1057 q 502 1013 525 1023 q 453 1003 479 1003 q 406 1013 427 1003 q 368 1039 384 1022 q 343 1078 352 1056 q 335 1126 335 1100 q 344 1174 335 1151 q 370 1214 353 1197 q 409 1240 387 1231 q 458 1250 432 1250 m 456 1040 q 506 1065 490 1040 q 522 1126 522 1090 q 506 1188 522 1163 q 456 1213 490 1213 q 407 1188 423 1213 q 390 1126 390 1163 q 407 1065 390 1090 q 456 1040 423 1040 z "},"´":{"ha":347,"x_min":35,"x_max":312,"o":"m 40 688 q 57 713 44 694 q 86 756 69 731 q 121 808 103 781 q 155 858 140 835 q 182 896 171 881 q 194 913 192 912 q 211 933 201 924 q 232 948 221 942 q 257 955 244 953 q 283 949 269 956 q 305 931 298 943 q 311 906 311 919 q 307 878 312 892 q 295 852 302 863 q 250 802 280 828 q 185 752 220 776 q 114 708 150 728 q 50 676 78 688 q 39 676 42 672 q 40 688 35 681 z "},"È":{"ha":788,"x_min":14,"x_max":781,"o":"m 758 200 q 772 210 763 211 q 781 198 781 209 l 781 13 q 766 0 781 0 l 28 0 q 18 3 22 0 q 14 10 15 6 q 17 17 14 14 q 26 22 20 21 q 53 28 35 24 q 89 44 71 33 q 122 76 108 56 q 135 129 135 97 l 135 808 q 122 861 135 840 q 89 893 108 881 q 53 909 71 904 q 26 915 35 914 q 17 920 20 916 q 14 927 14 924 q 18 934 15 931 q 28 938 22 938 l 706 938 q 720 924 720 938 l 720 780 q 712 768 720 769 q 698 777 703 767 q 681 806 694 786 q 647 846 669 826 q 591 882 624 867 q 511 898 558 898 q 451 892 478 898 q 405 875 424 887 q 375 843 386 863 q 365 797 365 824 l 365 504 l 365 515 q 368 507 365 510 q 375 504 371 504 l 464 504 q 515 517 495 504 q 546 546 535 529 q 563 579 558 563 q 569 603 567 595 q 573 611 569 609 q 581 614 577 614 q 588 610 585 613 q 591 601 591 607 l 591 365 q 588 357 591 360 q 581 353 585 353 q 573 355 577 353 q 569 363 569 358 q 563 388 567 372 q 546 421 558 404 q 515 450 535 438 q 464 463 495 463 l 375 463 q 368 459 371 463 q 365 452 365 456 l 365 463 l 365 142 q 408 67 365 93 q 530 42 451 42 q 598 52 567 42 q 654 77 629 62 q 697 111 678 92 q 728 148 715 131 q 748 180 741 165 q 758 200 756 194 m 476 983 q 477 972 481 976 q 466 972 474 968 q 402 1004 438 984 q 331 1048 366 1024 q 266 1098 296 1072 q 221 1148 236 1124 q 209 1174 213 1159 q 205 1202 204 1188 q 211 1227 205 1215 q 233 1245 218 1239 q 259 1250 247 1251 q 284 1244 272 1249 q 305 1229 295 1238 q 322 1209 315 1219 q 334 1192 324 1208 q 361 1153 345 1176 q 395 1103 376 1131 q 430 1052 413 1076 q 459 1008 447 1027 q 476 983 472 990 z "},"É":{"ha":788,"x_min":14,"x_max":781,"o":"m 758 200 q 748 180 756 194 q 728 148 741 165 q 697 111 715 131 q 654 77 678 92 q 598 52 629 62 q 530 42 567 42 q 408 67 451 42 q 365 142 365 93 l 365 463 l 365 452 q 368 459 365 456 q 375 463 371 463 l 464 463 q 515 450 495 463 q 546 421 535 438 q 563 388 558 404 q 569 363 567 372 q 573 355 569 358 q 581 353 577 353 q 588 357 585 353 q 591 365 591 360 l 591 601 q 588 610 591 607 q 581 614 585 613 q 573 611 577 614 q 569 603 569 609 q 563 579 567 595 q 546 546 558 563 q 515 517 535 529 q 464 504 495 504 l 375 504 q 368 507 371 504 q 365 515 365 510 l 365 504 l 365 797 q 375 843 365 824 q 405 875 386 863 q 451 892 424 887 q 511 898 478 898 q 591 882 558 898 q 647 846 624 867 q 681 806 669 826 q 698 777 694 786 q 712 768 703 767 q 720 780 720 769 l 720 924 q 706 938 720 938 l 28 938 q 18 934 22 938 q 14 927 15 931 q 17 920 14 924 q 26 915 20 916 q 53 909 35 914 q 89 893 71 904 q 122 861 108 881 q 135 808 135 840 l 135 129 q 122 76 135 97 q 89 44 108 56 q 53 28 71 33 q 26 22 35 24 q 17 17 20 21 q 14 10 14 14 q 18 3 15 6 q 28 0 22 0 l 766 0 q 781 13 781 0 l 781 198 q 772 210 781 209 q 758 200 763 211 m 351 983 q 368 1008 356 990 q 398 1052 381 1027 q 433 1103 415 1076 q 467 1153 451 1131 q 493 1192 483 1176 q 506 1209 504 1208 q 523 1229 513 1219 q 544 1244 533 1238 q 568 1250 556 1249 q 595 1245 581 1251 q 616 1227 610 1239 q 623 1202 623 1215 q 619 1174 624 1188 q 607 1148 614 1159 q 562 1098 592 1124 q 497 1048 532 1072 q 426 1004 462 1024 q 362 972 390 984 q 351 972 354 968 q 351 983 347 976 z "},"Ê":{"ha":788,"x_min":14,"x_max":781,"o":"m 758 200 q 772 210 763 211 q 781 198 781 209 l 781 13 q 766 0 781 0 l 28 0 q 18 3 22 0 q 14 10 15 6 q 17 17 14 14 q 26 22 20 21 q 53 28 35 24 q 89 44 71 33 q 122 76 108 56 q 135 129 135 97 l 135 808 q 122 861 135 840 q 89 893 108 881 q 53 909 71 904 q 26 915 35 914 q 17 920 20 916 q 14 927 14 924 q 18 934 15 931 q 28 938 22 938 l 706 938 q 720 924 720 938 l 720 780 q 712 768 720 769 q 698 777 703 767 q 681 806 694 786 q 647 846 669 826 q 591 882 624 867 q 511 898 558 898 q 451 892 478 898 q 405 875 424 887 q 375 843 386 863 q 365 797 365 824 l 365 504 l 365 515 q 368 507 365 510 q 375 504 371 504 l 464 504 q 515 517 495 504 q 546 546 535 529 q 563 579 558 563 q 569 603 567 595 q 573 611 569 609 q 581 614 577 614 q 588 610 585 613 q 591 601 591 607 l 591 365 q 588 357 591 360 q 581 353 585 353 q 573 355 577 353 q 569 363 569 358 q 563 388 567 372 q 546 421 558 404 q 515 450 535 438 q 464 463 495 463 l 375 463 q 368 459 371 463 q 365 452 365 456 l 365 463 l 365 142 q 408 67 365 93 q 530 42 451 42 q 598 52 567 42 q 654 77 629 62 q 697 111 678 92 q 728 148 715 131 q 748 180 741 165 q 758 200 756 194 m 626 983 q 627 972 631 976 q 616 971 624 967 q 568 994 594 980 q 515 1025 542 1008 q 461 1060 488 1042 q 414 1099 435 1079 q 397 1099 405 1106 q 350 1060 376 1079 q 296 1025 324 1042 q 243 994 269 1008 q 195 971 217 980 q 184 972 188 967 q 185 983 181 976 q 202 1008 189 989 q 231 1051 215 1026 q 266 1103 248 1076 q 300 1153 285 1130 q 327 1191 316 1176 q 339 1208 338 1207 q 368 1238 351 1225 q 406 1250 385 1250 q 443 1238 426 1250 q 472 1208 460 1225 q 484 1191 474 1207 q 511 1153 495 1176 q 545 1103 526 1130 q 580 1051 563 1076 q 609 1008 597 1026 q 626 983 622 989 z "},"Ë":{"ha":788,"x_min":14,"x_max":781,"o":"m 758 200 q 748 180 756 194 q 728 148 741 165 q 697 111 715 131 q 654 77 678 92 q 598 52 629 62 q 530 42 567 42 q 408 67 451 42 q 365 142 365 93 l 365 463 l 365 452 q 368 459 365 456 q 375 463 371 463 l 464 463 q 515 450 495 463 q 546 421 535 438 q 563 388 558 404 q 569 363 567 372 q 573 355 569 358 q 581 353 577 353 q 588 357 585 353 q 591 365 591 360 l 591 601 q 588 610 591 607 q 581 614 585 613 q 573 611 577 614 q 569 603 569 609 q 563 579 567 595 q 546 546 558 563 q 515 517 535 529 q 464 504 495 504 l 375 504 q 368 507 371 504 q 365 515 365 510 l 365 504 l 365 797 q 375 843 365 824 q 405 875 386 863 q 451 892 424 887 q 511 898 478 898 q 591 882 558 898 q 647 846 624 867 q 681 806 669 826 q 698 777 694 786 q 712 768 703 767 q 720 780 720 769 l 720 924 q 706 938 720 938 l 28 938 q 18 934 22 938 q 14 927 15 931 q 17 920 14 924 q 26 915 20 916 q 53 909 35 914 q 89 893 71 904 q 122 861 108 881 q 135 808 135 840 l 135 129 q 122 76 135 97 q 89 44 108 56 q 53 28 71 33 q 26 22 35 24 q 17 17 20 21 q 14 10 14 14 q 18 3 15 6 q 28 0 22 0 l 766 0 q 781 13 781 0 l 781 198 q 772 210 781 209 q 758 200 763 211 m 359 1128 q 351 1088 359 1106 q 328 1055 342 1069 q 294 1032 314 1040 q 253 1024 275 1024 q 212 1032 231 1024 q 180 1054 193 1040 q 158 1086 166 1067 q 151 1126 151 1104 q 159 1166 151 1147 q 182 1199 167 1185 q 215 1221 196 1213 q 257 1229 235 1229 q 298 1221 279 1229 q 330 1200 317 1213 q 351 1167 344 1186 q 359 1128 359 1149 m 678 1128 q 670 1088 678 1106 q 648 1055 662 1069 q 614 1032 633 1040 q 572 1024 594 1024 q 531 1032 550 1024 q 499 1054 513 1040 q 478 1086 485 1067 q 470 1126 470 1104 q 478 1166 470 1147 q 501 1199 487 1185 q 535 1221 515 1213 q 576 1229 554 1229 q 617 1221 599 1229 q 650 1200 636 1213 q 671 1167 663 1186 q 678 1128 678 1149 z "},"Ì":{"ha":499,"x_min":14,"x_max":486,"o":"m 474 22 q 483 17 480 21 q 486 10 486 14 q 482 3 485 6 q 472 0 478 0 l 28 0 q 18 3 22 0 q 14 10 15 6 q 17 17 14 14 q 26 22 20 21 q 53 28 35 24 q 89 44 71 33 q 122 76 108 56 q 135 129 135 97 l 135 808 q 122 861 135 840 q 89 893 108 881 q 53 909 71 904 q 26 915 35 914 q 17 920 20 916 q 14 927 14 924 q 18 934 15 931 q 28 938 22 938 l 472 938 q 482 934 478 938 q 486 927 485 931 q 483 920 486 924 q 474 915 480 916 q 447 909 465 914 q 411 893 429 904 q 378 861 392 881 q 365 808 365 840 l 365 129 q 378 76 365 97 q 411 44 392 56 q 447 28 429 33 q 474 22 465 24 m 317 983 q 317 972 321 976 q 306 972 314 968 q 242 1004 278 984 q 171 1048 206 1024 q 106 1098 136 1072 q 61 1148 76 1124 q 49 1174 53 1159 q 45 1202 44 1188 q 52 1227 45 1215 q 73 1245 58 1239 q 100 1250 87 1251 q 124 1244 113 1249 q 145 1229 135 1238 q 163 1209 155 1219 q 175 1192 164 1208 q 201 1153 185 1176 q 235 1103 217 1131 q 270 1052 253 1076 q 300 1008 287 1027 q 317 983 313 990 z "},"Í":{"ha":499,"x_min":14,"x_max":486,"o":"m 474 22 q 447 28 465 24 q 411 44 429 33 q 378 76 392 56 q 365 129 365 97 l 365 808 q 378 861 365 840 q 411 893 392 881 q 447 909 429 904 q 474 915 465 914 q 483 920 480 916 q 486 927 486 924 q 482 934 485 931 q 472 938 478 938 l 28 938 q 18 934 22 938 q 14 927 15 931 q 17 920 14 924 q 26 915 20 916 q 53 909 35 914 q 89 893 71 904 q 122 861 108 881 q 135 808 135 840 l 135 129 q 122 76 135 97 q 89 44 108 56 q 53 28 71 33 q 26 22 35 24 q 17 17 20 21 q 14 10 14 14 q 18 3 15 6 q 28 0 22 0 l 472 0 q 482 3 478 0 q 486 10 485 6 q 483 17 486 14 q 474 22 480 21 m 210 983 q 227 1008 215 990 q 257 1052 240 1027 q 292 1103 274 1076 q 326 1153 310 1131 q 352 1192 342 1176 q 365 1209 363 1208 q 382 1229 372 1219 q 403 1244 392 1238 q 427 1250 415 1249 q 454 1245 440 1251 q 475 1227 469 1239 q 482 1202 482 1215 q 478 1174 483 1188 q 466 1148 473 1159 q 421 1098 451 1124 q 356 1048 391 1072 q 285 1004 321 1024 q 221 972 249 984 q 210 972 213 968 q 210 983 206 976 z "},"Î":{"ha":499,"x_min":14,"x_max":486,"o":"m 474 22 q 483 17 480 21 q 486 10 486 14 q 482 3 485 6 q 472 0 478 0 l 28 0 q 18 3 22 0 q 14 10 15 6 q 17 17 14 14 q 26 22 20 21 q 53 28 35 24 q 89 44 71 33 q 122 76 108 56 q 135 129 135 97 l 135 808 q 122 861 135 840 q 89 893 108 881 q 53 909 71 904 q 26 915 35 914 q 17 920 20 916 q 14 927 14 924 q 18 934 15 931 q 28 938 22 938 l 472 938 q 482 934 478 938 q 486 927 485 931 q 483 920 486 924 q 474 915 480 916 q 447 909 465 914 q 411 893 429 904 q 378 861 392 881 q 365 808 365 840 l 365 129 q 378 76 365 97 q 411 44 392 56 q 447 28 429 33 q 474 22 465 24 m 470 983 q 471 972 474 976 q 460 971 467 967 q 412 994 438 980 q 359 1025 386 1008 q 305 1060 331 1042 q 258 1099 279 1079 q 241 1099 249 1106 q 193 1060 219 1079 q 140 1025 167 1042 q 86 994 113 1008 q 39 971 60 980 q 28 972 31 967 q 28 983 24 976 q 45 1008 33 989 q 75 1051 58 1026 q 110 1103 92 1076 q 144 1153 128 1130 q 170 1191 160 1176 q 183 1208 181 1207 q 212 1238 195 1225 q 249 1250 229 1250 q 286 1238 269 1250 q 316 1208 303 1225 q 328 1191 317 1207 q 355 1153 339 1176 q 389 1103 370 1130 q 424 1051 407 1076 q 453 1008 440 1026 q 470 983 466 989 z "},"Ï":{"ha":499,"x_min":-14,"x_max":514,"o":"m 474 22 q 447 28 465 24 q 411 44 429 33 q 378 76 392 56 q 365 129 365 97 l 365 808 q 378 861 365 840 q 411 893 392 881 q 447 909 429 904 q 474 915 465 914 q 483 920 480 916 q 486 927 486 924 q 482 934 485 931 q 472 938 478 938 l 28 938 q 18 934 22 938 q 14 927 15 931 q 17 920 14 924 q 26 915 20 916 q 53 909 35 914 q 89 893 71 904 q 122 861 108 881 q 135 808 135 840 l 135 129 q 122 76 135 97 q 89 44 108 56 q 53 28 71 33 q 26 22 35 24 q 17 17 20 21 q 14 10 14 14 q 18 3 15 6 q 28 0 22 0 l 472 0 q 482 3 478 0 q 486 10 485 6 q 483 17 486 14 q 474 22 480 21 m 194 1128 q 186 1088 194 1106 q 164 1055 178 1069 q 130 1032 149 1040 q 88 1024 110 1024 q 47 1032 66 1024 q 15 1054 28 1040 q -6 1086 1 1067 q -14 1126 -14 1104 q -6 1166 -14 1147 q 17 1199 3 1185 q 51 1221 31 1213 q 92 1229 70 1229 q 133 1221 115 1229 q 166 1200 152 1213 q 187 1167 179 1186 q 194 1128 194 1149 m 514 1128 q 506 1088 514 1106 q 483 1055 497 1069 q 449 1032 469 1040 q 408 1024 430 1024 q 367 1032 385 1024 q 334 1054 348 1040 q 313 1086 321 1067 q 306 1126 306 1104 q 314 1166 306 1147 q 336 1199 322 1185 q 370 1221 351 1213 q 412 1229 390 1229 q 453 1221 434 1229 q 485 1200 472 1213 q 506 1167 499 1186 q 514 1128 514 1149 z "},"Ù":{"ha":940,"x_min":8,"x_max":962,"o":"m 840 380 q 823 211 840 285 q 765 86 806 137 q 657 8 724 35 q 490 -19 590 -19 q 327 1 395 -19 q 215 63 258 21 q 150 171 171 106 q 130 327 130 236 l 130 808 q 116 861 130 840 q 84 893 102 881 q 47 909 65 904 q 21 915 29 914 q 11 920 15 916 q 9 927 8 924 q 13 934 9 931 q 23 938 16 938 l 466 938 q 476 934 473 938 q 480 927 480 931 q 477 920 481 924 q 468 915 474 916 q 442 909 460 914 q 405 893 424 904 q 373 861 387 881 q 359 808 359 840 l 359 282 q 410 101 359 164 q 567 38 461 38 q 599 41 582 38 q 634 49 617 44 q 666 61 651 54 q 694 77 682 68 q 745 135 727 100 q 770 209 763 169 q 780 290 778 249 q 781 366 781 331 l 781 808 q 767 861 781 840 q 735 893 753 881 q 699 909 717 904 q 672 915 681 914 q 663 920 666 916 q 660 927 660 924 q 664 934 660 931 q 674 938 667 938 l 947 938 q 958 934 954 938 q 961 927 961 931 q 959 920 962 924 q 949 915 956 916 q 923 909 941 914 q 886 893 905 904 q 854 861 868 881 q 840 808 840 840 l 840 380 m 560 983 q 560 972 564 976 q 549 972 557 968 q 485 1004 521 984 q 414 1048 449 1024 q 349 1098 379 1072 q 304 1148 319 1124 q 292 1174 297 1159 q 288 1202 288 1188 q 295 1227 288 1215 q 316 1245 301 1239 q 343 1250 330 1251 q 367 1244 356 1249 q 388 1229 378 1238 q 406 1209 398 1219 q 418 1192 407 1208 q 444 1153 428 1176 q 478 1103 460 1131 q 513 1052 497 1076 q 543 1008 530 1027 q 560 983 556 990 z "},"Ú":{"ha":940,"x_min":8,"x_max":962,"o":"m 840 808 q 854 861 840 840 q 886 893 868 881 q 923 909 905 904 q 949 915 941 914 q 959 920 956 916 q 961 927 962 924 q 958 934 961 931 q 947 938 954 938 l 674 938 q 664 934 667 938 q 660 927 660 931 q 663 920 660 924 q 672 915 666 916 q 699 909 681 914 q 735 893 717 904 q 767 861 753 881 q 781 808 781 840 l 781 366 q 780 290 781 331 q 770 209 778 249 q 745 135 763 169 q 694 77 727 100 q 666 61 682 68 q 634 49 651 54 q 599 41 617 44 q 567 38 582 38 q 410 101 461 38 q 359 282 359 164 l 359 808 q 373 861 359 840 q 405 893 387 881 q 442 909 424 904 q 468 915 460 914 q 477 920 474 916 q 480 927 481 924 q 476 934 480 931 q 466 938 473 938 l 23 938 q 13 934 16 938 q 9 927 9 931 q 11 920 8 924 q 21 915 15 916 q 47 909 29 914 q 84 893 65 904 q 116 861 102 881 q 130 808 130 840 l 130 327 q 150 171 130 236 q 215 63 171 106 q 327 1 258 21 q 490 -19 395 -19 q 657 8 590 -19 q 765 86 724 35 q 823 211 806 137 q 840 380 840 285 l 840 808 m 504 983 q 521 1008 508 990 q 551 1052 534 1027 q 586 1103 567 1076 q 620 1153 604 1131 q 646 1192 635 1176 q 658 1209 657 1208 q 676 1229 666 1219 q 697 1244 685 1238 q 721 1250 708 1249 q 748 1245 734 1251 q 769 1227 763 1239 q 776 1202 776 1215 q 772 1174 776 1188 q 760 1148 767 1159 q 715 1098 744 1124 q 650 1048 685 1072 q 578 1004 615 1024 q 515 972 542 984 q 503 972 507 968 q 504 983 500 976 z "},"Û":{"ha":940,"x_min":8,"x_max":962,"o":"m 840 380 q 823 211 840 285 q 765 86 806 137 q 657 8 724 35 q 490 -19 590 -19 q 327 1 395 -19 q 215 63 258 21 q 150 171 171 106 q 130 327 130 236 l 130 808 q 116 861 130 840 q 84 893 102 881 q 47 909 65 904 q 21 915 29 914 q 11 920 15 916 q 9 927 8 924 q 13 934 9 931 q 23 938 16 938 l 466 938 q 476 934 473 938 q 480 927 480 931 q 477 920 481 924 q 468 915 474 916 q 442 909 460 914 q 405 893 424 904 q 373 861 387 881 q 359 808 359 840 l 359 282 q 410 101 359 164 q 567 38 461 38 q 599 41 582 38 q 634 49 617 44 q 666 61 651 54 q 694 77 682 68 q 745 135 727 100 q 770 209 763 169 q 780 290 778 249 q 781 366 781 331 l 781 808 q 767 861 781 840 q 735 893 753 881 q 699 909 717 904 q 672 915 681 914 q 663 920 666 916 q 660 927 660 924 q 664 934 660 931 q 674 938 667 938 l 947 938 q 958 934 954 938 q 961 927 961 931 q 959 920 962 924 q 949 915 956 916 q 923 909 941 914 q 886 893 905 904 q 854 861 868 881 q 840 808 840 840 l 840 380 m 738 983 q 738 972 742 976 q 727 971 735 967 q 680 994 706 980 q 626 1025 653 1008 q 573 1060 599 1042 q 525 1099 547 1079 q 508 1099 516 1106 q 461 1060 487 1079 q 407 1025 435 1042 q 354 994 380 1008 q 306 971 328 980 q 295 972 299 967 q 296 983 292 976 q 313 1008 300 989 q 342 1051 326 1026 q 377 1103 359 1076 q 411 1153 396 1130 q 438 1191 427 1176 q 450 1208 449 1207 q 480 1238 463 1225 q 517 1250 497 1250 q 554 1238 537 1250 q 583 1208 571 1225 q 595 1191 585 1207 q 622 1153 606 1176 q 656 1103 638 1130 q 691 1051 674 1076 q 720 1008 708 1026 q 738 983 733 989 z "},"Ü":{"ha":940,"x_min":8,"x_max":962,"o":"m 840 808 q 854 861 840 840 q 886 893 868 881 q 923 909 905 904 q 949 915 941 914 q 959 920 956 916 q 961 927 962 924 q 958 934 961 931 q 947 938 954 938 l 674 938 q 664 934 667 938 q 660 927 660 931 q 663 920 660 924 q 672 915 666 916 q 699 909 681 914 q 735 893 717 904 q 767 861 753 881 q 781 808 781 840 l 781 366 q 780 290 781 331 q 770 209 778 249 q 745 135 763 169 q 694 77 727 100 q 666 61 682 68 q 634 49 651 54 q 599 41 617 44 q 567 38 582 38 q 410 101 461 38 q 359 282 359 164 l 359 808 q 373 861 359 840 q 405 893 387 881 q 442 909 424 904 q 468 915 460 914 q 477 920 474 916 q 480 927 481 924 q 476 934 480 931 q 466 938 473 938 l 23 938 q 13 934 16 938 q 9 927 9 931 q 11 920 8 924 q 21 915 15 916 q 47 909 29 914 q 84 893 65 904 q 116 861 102 881 q 130 808 130 840 l 130 327 q 150 171 130 236 q 215 63 171 106 q 327 1 258 21 q 490 -19 395 -19 q 657 8 590 -19 q 765 86 724 35 q 823 211 806 137 q 840 380 840 285 l 840 808 m 470 1128 q 462 1088 470 1106 q 439 1055 453 1069 q 406 1032 425 1040 q 364 1024 386 1024 q 323 1032 342 1024 q 291 1054 304 1040 q 269 1086 277 1067 q 262 1126 262 1104 q 270 1166 262 1147 q 293 1199 278 1185 q 326 1221 307 1213 q 368 1229 346 1229 q 409 1221 390 1229 q 441 1200 428 1213 q 463 1167 455 1186 q 470 1128 470 1149 m 790 1128 q 781 1088 790 1106 q 759 1055 773 1069 q 725 1032 744 1040 q 683 1024 706 1024 q 642 1032 661 1024 q 610 1054 624 1040 q 589 1086 597 1067 q 581 1126 581 1104 q 590 1166 581 1147 q 612 1199 598 1185 q 646 1221 626 1213 q 688 1229 665 1229 q 728 1221 710 1229 q 761 1200 747 1213 q 782 1167 774 1186 q 790 1128 790 1149 z "},"Ý":{"ha":875,"x_min":-62,"x_max":941,"o":"m 733 850 q 741 884 744 872 q 728 902 738 896 q 706 911 718 909 q 685 915 693 914 q 675 920 678 916 q 673 927 672 924 q 676 934 673 931 q 687 938 680 938 l 926 938 q 937 934 933 938 q 941 927 940 931 q 938 919 941 923 q 928 915 935 916 q 903 910 918 914 q 872 898 889 906 q 836 874 855 889 q 798 836 817 860 q 769 799 789 825 q 726 741 750 774 q 675 672 701 708 q 627 605 649 636 q 589 551 604 574 q 569 521 573 528 q 558 489 562 504 q 555 451 555 474 l 555 129 q 569 76 555 97 q 601 44 583 56 q 638 28 619 33 q 664 22 656 24 q 673 17 670 21 q 676 10 676 14 q 672 3 676 6 q 662 0 669 0 l 226 0 q 215 3 219 0 q 211 10 212 6 q 214 17 211 14 q 224 22 217 21 q 250 28 232 24 q 286 44 268 33 q 319 76 305 56 q 333 129 333 97 l 333 383 q 333 402 333 393 q 331 420 333 411 q 326 438 330 428 q 317 458 323 447 q 301 483 313 465 q 273 526 290 501 q 236 582 256 551 q 196 644 217 613 q 155 707 175 676 q 117 764 134 738 q 87 809 99 790 q 69 836 74 828 q 42 866 58 852 q 10 890 27 880 q -22 907 -6 901 q -50 915 -37 913 q -59 919 -56 916 q -62 927 -62 923 q -58 934 -62 931 q -48 938 -55 938 l 388 938 q 399 934 395 938 q 402 927 402 931 q 400 920 403 924 q 390 915 397 916 q 369 911 382 914 q 347 902 357 908 q 333 883 337 895 q 338 850 329 870 q 359 810 344 836 q 392 753 374 784 q 431 690 410 722 q 469 630 451 657 q 499 583 487 602 q 515 561 512 565 q 537 560 526 549 q 554 583 540 563 q 589 632 569 603 q 633 696 609 661 q 677 762 656 731 q 714 817 698 793 q 733 850 729 841 m 490 983 q 507 1008 494 990 q 537 1052 520 1027 q 572 1103 553 1076 q 606 1153 590 1131 q 632 1192 622 1176 q 644 1209 643 1208 q 662 1229 652 1219 q 683 1244 672 1238 q 707 1250 694 1249 q 734 1245 720 1251 q 755 1227 749 1239 q 762 1202 762 1215 q 758 1174 763 1188 q 746 1148 753 1159 q 701 1098 731 1124 q 636 1048 671 1072 q 565 1004 601 1024 q 501 972 528 984 q 490 972 493 968 q 490 983 486 976 z "},"Ó":{"ha":1042,"x_min":28,"x_max":1014,"o":"m 531 957 q 396 939 460 957 q 275 889 331 922 q 174 811 219 857 q 95 711 128 766 q 45 593 63 656 q 28 463 28 531 q 64 274 28 362 q 163 121 99 186 q 316 18 227 56 q 510 -19 404 -19 q 646 -2 581 -19 q 766 48 710 16 q 868 126 822 81 q 946 226 914 172 q 996 343 978 281 q 1014 474 1014 406 q 998 603 1014 541 q 951 719 981 665 q 878 816 922 772 q 782 892 835 860 q 665 940 728 923 q 531 957 601 957 m 521 22 q 422 57 464 22 q 351 152 379 92 q 309 294 323 213 q 295 469 295 376 q 309 643 295 561 q 351 785 323 724 q 422 881 379 846 q 521 916 464 916 q 620 881 578 916 q 691 785 663 846 q 733 643 719 724 q 747 469 747 561 q 733 294 747 376 q 691 152 719 213 q 620 57 663 92 q 521 22 578 22 m 407 983 q 424 1008 411 990 q 453 1052 437 1027 q 489 1103 470 1076 q 523 1153 507 1131 q 549 1192 538 1176 q 561 1209 560 1208 q 578 1229 569 1219 q 600 1244 588 1238 q 624 1250 611 1249 q 651 1245 637 1251 q 672 1227 665 1239 q 679 1202 678 1215 q 674 1174 679 1188 q 663 1148 669 1159 q 617 1098 647 1124 q 552 1048 588 1072 q 481 1004 517 1024 q 417 972 445 984 q 406 972 410 968 q 407 983 403 976 z "},"Ô":{"ha":1042,"x_min":28,"x_max":1014,"o":"m 531 957 q 665 940 601 957 q 782 892 728 923 q 878 816 835 860 q 951 719 922 772 q 998 603 981 665 q 1014 474 1014 541 q 996 343 1014 406 q 946 226 978 281 q 868 126 914 172 q 766 48 822 81 q 646 -2 710 16 q 510 -19 581 -19 q 316 18 404 -19 q 163 121 227 56 q 64 274 99 186 q 28 463 28 362 q 45 593 28 531 q 95 711 63 656 q 174 811 128 766 q 275 889 219 857 q 396 939 331 922 q 531 957 460 957 m 521 22 q 620 57 578 22 q 691 152 663 92 q 733 294 719 213 q 747 469 747 376 q 733 643 747 561 q 691 785 719 724 q 620 881 663 846 q 521 916 578 916 q 422 881 464 916 q 351 785 379 846 q 309 643 323 724 q 295 469 295 561 q 309 294 295 376 q 351 152 323 213 q 422 57 379 92 q 521 22 464 22 m 742 983 q 742 972 746 976 q 731 971 739 967 q 684 994 710 980 q 630 1025 658 1008 q 577 1060 603 1042 q 529 1099 551 1079 q 513 1099 520 1106 q 465 1060 491 1079 q 411 1025 439 1042 q 358 994 384 1008 q 310 971 332 980 q 299 972 303 967 q 300 983 296 976 q 317 1008 304 989 q 347 1051 330 1026 q 382 1103 363 1076 q 416 1153 400 1130 q 442 1191 431 1176 q 454 1208 453 1207 q 484 1238 467 1225 q 521 1250 501 1250 q 558 1238 541 1250 q 588 1208 575 1225 q 600 1191 589 1207 q 626 1153 610 1176 q 660 1103 642 1130 q 695 1051 678 1076 q 725 1008 712 1026 q 742 983 738 989 z "},"Õ":{"ha":1042,"x_min":28,"x_max":1014,"o":"m 531 957 q 396 939 460 957 q 275 889 331 922 q 174 811 219 857 q 95 711 128 766 q 45 593 63 656 q 28 463 28 531 q 64 274 28 362 q 163 121 99 186 q 316 18 227 56 q 510 -19 404 -19 q 646 -2 581 -19 q 766 48 710 16 q 868 126 822 81 q 946 226 914 172 q 996 343 978 281 q 1014 474 1014 406 q 998 603 1014 541 q 951 719 981 665 q 878 816 922 772 q 782 892 835 860 q 665 940 728 923 q 531 957 601 957 m 521 22 q 422 57 464 22 q 351 152 379 92 q 309 294 323 213 q 295 469 295 376 q 309 643 295 561 q 351 785 323 724 q 422 881 379 846 q 521 916 464 916 q 620 881 578 916 q 691 785 663 846 q 733 643 719 724 q 747 469 747 561 q 733 294 747 376 q 691 152 719 213 q 620 57 663 92 q 521 22 578 22 m 822 1157 q 797 1097 813 1124 q 755 1048 780 1069 q 696 1016 729 1028 q 622 1005 663 1005 q 539 1018 578 1005 q 460 1046 499 1031 q 386 1075 422 1062 q 315 1088 350 1088 q 272 1081 288 1088 q 246 1066 256 1073 q 235 1065 240 1062 q 233 1076 230 1069 q 265 1125 248 1102 q 305 1165 282 1148 q 356 1191 327 1181 q 421 1200 384 1200 q 505 1189 470 1200 q 570 1166 540 1178 q 632 1143 601 1153 q 703 1132 663 1132 q 766 1142 742 1132 q 808 1165 790 1151 q 819 1167 814 1169 q 822 1157 824 1165 z "},"Ö":{"ha":1042,"x_min":28,"x_max":1014,"o":"m 531 957 q 396 939 460 957 q 275 889 331 922 q 174 811 219 857 q 95 711 128 766 q 45 593 63 656 q 28 463 28 531 q 64 274 28 362 q 163 121 99 186 q 316 18 227 56 q 510 -19 404 -19 q 646 -2 581 -19 q 766 48 710 16 q 868 126 822 81 q 946 226 914 172 q 996 343 978 281 q 1014 474 1014 406 q 998 603 1014 541 q 951 719 981 665 q 878 816 922 772 q 782 892 835 860 q 665 940 728 923 q 531 957 601 957 m 521 22 q 422 57 464 22 q 351 152 379 92 q 309 294 323 213 q 295 469 295 376 q 309 643 295 561 q 351 785 323 724 q 422 881 379 846 q 521 916 464 916 q 620 881 578 916 q 691 785 663 846 q 733 643 719 724 q 747 469 747 561 q 733 294 747 376 q 691 152 719 213 q 620 57 663 92 q 521 22 578 22 m 465 1149 q 457 1108 465 1127 q 434 1075 449 1090 q 401 1053 420 1061 q 359 1045 381 1045 q 318 1053 337 1045 q 286 1075 299 1061 q 265 1107 272 1088 q 257 1147 257 1125 q 265 1186 257 1167 q 288 1219 274 1206 q 322 1242 302 1233 q 363 1250 341 1250 q 404 1242 385 1250 q 436 1220 423 1234 q 458 1188 450 1207 q 465 1149 465 1169 m 785 1149 q 776 1108 785 1127 q 754 1075 768 1090 q 720 1053 740 1061 q 678 1045 701 1045 q 638 1053 656 1045 q 605 1075 619 1061 q 584 1107 592 1088 q 576 1147 576 1125 q 585 1186 576 1167 q 607 1219 593 1206 q 641 1242 622 1233 q 683 1250 660 1250 q 724 1242 705 1250 q 756 1220 742 1234 q 777 1188 769 1207 q 785 1149 785 1169 z "},"à":{"ha":673,"x_min":19,"x_max":657,"o":"m 636 64 q 651 60 646 66 q 652 44 657 54 q 639 26 648 37 q 614 7 629 16 q 575 -8 598 -2 q 522 -15 553 -15 q 451 2 480 -15 q 411 42 422 19 q 403 47 408 47 q 394 42 398 46 q 382 31 392 40 q 351 11 371 22 q 303 -9 331 0 q 240 -17 276 -17 q 136 0 178 -17 q 68 45 94 17 q 30 107 42 72 q 19 175 19 141 q 50 271 19 230 q 130 332 81 312 q 185 347 156 342 q 242 356 214 351 q 298 368 271 361 q 350 392 326 376 q 386 437 376 410 q 396 494 396 464 q 390 537 396 517 q 373 573 384 558 q 348 597 363 588 q 317 606 334 606 q 274 591 288 606 q 252 554 260 576 q 237 509 244 533 q 215 469 230 486 q 182 450 202 456 q 144 443 163 443 q 111 449 126 443 q 86 466 97 456 q 70 491 76 477 q 65 522 65 506 q 76 565 65 543 q 113 603 86 586 q 185 632 140 621 q 299 642 230 642 q 431 627 376 642 q 520 581 485 611 q 570 507 554 551 q 585 407 585 463 q 581 281 585 340 q 575 176 577 222 q 577 101 574 131 q 597 65 581 72 q 614 61 603 61 q 636 64 624 62 m 395 374 q 392 380 395 378 q 385 378 388 381 q 375 366 380 372 q 363 353 371 360 q 336 327 350 339 q 308 302 322 315 q 281 280 294 291 q 256 256 267 269 q 229 210 238 235 q 220 158 220 185 q 226 120 220 139 q 243 86 231 101 q 272 61 254 71 q 315 52 290 52 q 355 63 340 52 q 380 88 371 73 q 392 117 388 102 q 395 140 395 132 l 395 374 m 442 688 q 442 676 446 681 q 431 676 439 672 q 367 708 403 688 q 296 752 331 728 q 231 802 261 776 q 186 852 201 828 q 174 878 178 863 q 170 906 169 892 q 177 931 170 919 q 198 949 183 943 q 225 955 212 956 q 249 948 238 953 q 270 933 260 942 q 288 913 280 924 q 300 896 289 912 q 326 858 310 881 q 360 808 342 835 q 395 756 378 781 q 425 713 412 731 q 442 688 438 694 z "},"á":{"ha":673,"x_min":19,"x_max":657,"o":"m 636 64 q 614 61 624 62 q 597 65 603 61 q 577 101 581 72 q 575 176 574 131 q 581 281 577 222 q 585 407 585 340 q 570 507 585 463 q 520 581 554 551 q 431 627 485 611 q 299 642 376 642 q 185 632 230 642 q 113 603 140 621 q 76 565 86 586 q 65 522 65 543 q 70 491 65 506 q 86 466 76 477 q 111 449 97 456 q 144 443 126 443 q 182 450 163 443 q 215 469 202 456 q 237 509 230 486 q 252 554 244 533 q 274 591 260 576 q 317 606 288 606 q 348 597 334 606 q 373 573 363 588 q 390 537 384 558 q 396 494 396 517 q 386 437 396 464 q 350 392 376 410 q 298 368 326 376 q 242 356 271 361 q 185 347 214 351 q 130 332 156 342 q 50 271 81 312 q 19 175 19 230 q 30 107 19 141 q 68 45 42 72 q 136 0 94 17 q 240 -17 178 -17 q 303 -9 276 -17 q 351 11 331 0 q 382 31 371 22 q 394 42 392 40 q 403 47 398 46 q 411 42 408 47 q 451 2 422 19 q 522 -15 480 -15 q 575 -8 553 -15 q 614 7 598 -2 q 639 26 629 16 q 652 44 648 37 q 651 60 657 54 q 636 64 646 66 m 395 140 q 392 117 395 132 q 380 88 388 102 q 355 63 371 73 q 315 52 340 52 q 272 61 290 52 q 243 86 254 71 q 226 120 231 101 q 220 158 220 139 q 229 210 220 185 q 256 256 238 235 q 281 280 267 269 q 308 302 294 291 q 336 327 322 315 q 363 353 350 339 q 375 366 371 360 q 385 378 380 372 q 392 380 388 381 q 395 374 395 378 l 395 140 m 277 688 q 294 713 281 694 q 324 756 307 731 q 359 808 340 781 q 393 858 377 835 q 419 896 408 881 q 431 913 430 912 q 449 933 439 924 q 470 948 458 942 q 494 955 481 953 q 521 949 507 956 q 542 931 535 943 q 549 906 549 919 q 544 878 549 892 q 533 852 540 863 q 488 802 517 828 q 423 752 458 776 q 351 708 388 728 q 288 676 315 688 q 276 676 280 672 q 277 688 273 681 z "},"â":{"ha":673,"x_min":19,"x_max":657,"o":"m 636 64 q 651 60 646 66 q 652 44 657 54 q 639 26 648 37 q 614 7 629 16 q 575 -8 598 -2 q 522 -15 553 -15 q 451 2 480 -15 q 411 42 422 19 q 403 47 408 47 q 394 42 398 46 q 382 31 392 40 q 351 11 371 22 q 303 -9 331 0 q 240 -17 276 -17 q 136 0 178 -17 q 68 45 94 17 q 30 107 42 72 q 19 175 19 141 q 50 271 19 230 q 130 332 81 312 q 185 347 156 342 q 242 356 214 351 q 298 368 271 361 q 350 392 326 376 q 386 437 376 410 q 396 494 396 464 q 390 537 396 517 q 373 573 384 558 q 348 597 363 588 q 317 606 334 606 q 274 591 288 606 q 252 554 260 576 q 237 509 244 533 q 215 469 230 486 q 182 450 202 456 q 144 443 163 443 q 111 449 126 443 q 86 466 97 456 q 70 491 76 477 q 65 522 65 506 q 76 565 65 543 q 113 603 86 586 q 185 632 140 621 q 299 642 230 642 q 431 627 376 642 q 520 581 485 611 q 570 507 554 551 q 585 407 585 463 q 581 281 585 340 q 575 176 577 222 q 577 101 574 131 q 597 65 581 72 q 614 61 603 61 q 636 64 624 62 m 395 374 q 392 380 395 378 q 385 378 388 381 q 375 366 380 372 q 363 353 371 360 q 336 327 350 339 q 308 302 322 315 q 281 280 294 291 q 256 256 267 269 q 229 210 238 235 q 220 158 220 185 q 226 120 220 139 q 243 86 231 101 q 272 61 254 71 q 315 52 290 52 q 355 63 340 52 q 380 88 371 73 q 392 117 388 102 q 395 140 395 132 l 395 374 m 567 688 q 568 676 572 681 q 557 676 565 672 q 509 699 535 685 q 456 730 483 713 q 402 765 428 747 q 355 803 376 784 q 338 803 346 810 q 291 765 317 784 q 237 730 265 747 q 184 699 210 713 q 136 676 158 685 q 125 676 128 672 q 126 688 122 681 q 143 713 130 694 q 172 756 156 731 q 207 808 189 781 q 241 858 226 835 q 268 896 257 881 q 280 913 278 912 q 309 942 292 930 q 347 955 326 955 q 384 942 367 955 q 413 913 401 930 q 425 896 415 912 q 452 858 436 881 q 486 808 467 835 q 521 756 504 781 q 550 713 538 731 q 567 688 563 694 z "},"ã":{"ha":673,"x_min":19,"x_max":657,"o":"m 636 64 q 614 61 624 62 q 597 65 603 61 q 577 101 581 72 q 575 176 574 131 q 581 281 577 222 q 585 407 585 340 q 570 507 585 463 q 520 581 554 551 q 431 627 485 611 q 299 642 376 642 q 185 632 230 642 q 113 603 140 621 q 76 565 86 586 q 65 522 65 543 q 70 491 65 506 q 86 466 76 477 q 111 449 97 456 q 144 443 126 443 q 182 450 163 443 q 215 469 202 456 q 237 509 230 486 q 252 554 244 533 q 274 591 260 576 q 317 606 288 606 q 348 597 334 606 q 373 573 363 588 q 390 537 384 558 q 396 494 396 517 q 386 437 396 464 q 350 392 376 410 q 298 368 326 376 q 242 356 271 361 q 185 347 214 351 q 130 332 156 342 q 50 271 81 312 q 19 175 19 230 q 30 107 19 141 q 68 45 42 72 q 136 0 94 17 q 240 -17 178 -17 q 303 -9 276 -17 q 351 11 331 0 q 382 31 371 22 q 394 42 392 40 q 403 47 398 46 q 411 42 408 47 q 451 2 422 19 q 522 -15 480 -15 q 575 -8 553 -15 q 614 7 598 -2 q 639 26 629 16 q 652 44 648 37 q 651 60 657 54 q 636 64 646 66 m 395 140 q 392 117 395 132 q 380 88 388 102 q 355 63 371 73 q 315 52 340 52 q 272 61 290 52 q 243 86 254 71 q 226 120 231 101 q 220 158 220 139 q 229 210 220 185 q 256 256 238 235 q 281 280 267 269 q 308 302 294 291 q 336 327 322 315 q 363 353 350 339 q 375 366 371 360 q 385 378 380 372 q 392 380 388 381 q 395 374 395 378 l 395 140 m 642 868 q 617 808 633 835 q 575 759 600 780 q 516 727 549 739 q 442 716 483 716 q 359 729 399 716 q 281 757 319 742 q 206 786 242 773 q 135 799 170 799 q 92 792 108 799 q 66 777 76 784 q 55 776 60 773 q 53 787 50 780 q 85 836 68 813 q 125 876 102 859 q 176 902 147 892 q 241 911 204 911 q 325 900 290 911 q 391 877 360 890 q 452 854 421 865 q 524 843 483 843 q 586 853 562 843 q 628 876 610 863 q 639 878 634 881 q 642 868 644 876 z "},"ä":{"ha":673,"x_min":19,"x_max":657,"o":"m 636 64 q 614 61 624 62 q 597 65 603 61 q 577 101 581 72 q 575 176 574 131 q 581 281 577 222 q 585 407 585 340 q 570 507 585 463 q 520 581 554 551 q 431 627 485 611 q 299 642 376 642 q 185 632 230 642 q 113 603 140 621 q 76 565 86 586 q 65 522 65 543 q 70 491 65 506 q 86 466 76 477 q 111 449 97 456 q 144 443 126 443 q 182 450 163 443 q 215 469 202 456 q 237 509 230 486 q 252 554 244 533 q 274 591 260 576 q 317 606 288 606 q 348 597 334 606 q 373 573 363 588 q 390 537 384 558 q 396 494 396 517 q 386 437 396 464 q 350 392 376 410 q 298 368 326 376 q 242 356 271 361 q 185 347 214 351 q 130 332 156 342 q 50 271 81 312 q 19 175 19 230 q 30 107 19 141 q 68 45 42 72 q 136 0 94 17 q 240 -17 178 -17 q 303 -9 276 -17 q 351 11 331 0 q 382 31 371 22 q 394 42 392 40 q 403 47 398 46 q 411 42 408 47 q 451 2 422 19 q 522 -15 480 -15 q 575 -8 553 -15 q 614 7 598 -2 q 639 26 629 16 q 652 44 648 37 q 651 60 657 54 q 636 64 646 66 m 395 140 q 392 117 395 132 q 380 88 388 102 q 355 63 371 73 q 315 52 340 52 q 272 61 290 52 q 243 86 254 71 q 226 120 231 101 q 220 158 220 139 q 229 210 220 185 q 256 256 238 235 q 281 280 267 269 q 308 302 294 291 q 336 327 322 315 q 363 353 350 339 q 375 366 371 360 q 385 378 380 372 q 392 380 388 381 q 395 374 395 378 l 395 140 m 284 836 q 276 796 284 815 q 253 763 267 777 q 219 741 239 749 q 178 733 200 733 q 137 741 156 733 q 105 762 118 749 q 83 794 91 776 q 76 834 76 813 q 84 874 76 855 q 107 907 92 893 q 140 929 121 921 q 182 938 160 938 q 223 930 204 938 q 255 908 242 922 q 276 876 269 894 q 284 836 284 857 m 603 836 q 595 796 603 815 q 573 763 587 777 q 539 741 558 749 q 497 733 519 733 q 456 741 475 733 q 424 762 438 749 q 403 794 410 776 q 395 834 395 813 q 403 874 395 855 q 426 907 412 893 q 460 929 440 921 q 501 938 479 938 q 542 930 524 938 q 575 908 561 922 q 596 876 588 894 q 603 836 603 857 z "},"å":{"ha":673,"x_min":19,"x_max":657,"o":"m 636 64 q 651 60 646 66 q 652 44 657 54 q 639 26 648 37 q 614 7 629 16 q 575 -8 598 -2 q 522 -15 553 -15 q 451 2 480 -15 q 411 42 422 19 q 403 47 408 47 q 394 42 398 46 q 382 31 392 40 q 351 11 371 22 q 303 -9 331 0 q 240 -17 276 -17 q 136 0 178 -17 q 68 45 94 17 q 30 107 42 72 q 19 175 19 141 q 50 271 19 230 q 130 332 81 312 q 185 347 156 342 q 242 356 214 351 q 298 368 271 361 q 350 392 326 376 q 386 437 376 410 q 396 494 396 464 q 390 537 396 517 q 373 573 384 558 q 348 597 363 588 q 317 606 334 606 q 274 591 288 606 q 252 554 260 576 q 237 509 244 533 q 215 469 230 486 q 182 450 202 456 q 144 443 163 443 q 111 449 126 443 q 86 466 97 456 q 70 491 76 477 q 65 522 65 506 q 76 565 65 543 q 113 603 86 586 q 185 632 140 621 q 299 642 230 642 q 431 627 376 642 q 520 581 485 611 q 570 507 554 551 q 585 407 585 463 q 581 281 585 340 q 575 176 577 222 q 577 101 574 131 q 597 65 581 72 q 614 61 603 61 q 636 64 624 62 m 395 374 q 392 380 395 378 q 385 378 388 381 q 375 366 380 372 q 363 353 371 360 q 336 327 350 339 q 308 302 322 315 q 281 280 294 291 q 256 256 267 269 q 229 210 238 235 q 220 158 220 185 q 226 120 220 139 q 243 86 231 101 q 272 61 254 71 q 315 52 290 52 q 355 63 340 52 q 380 88 371 73 q 392 117 388 102 q 395 140 395 132 l 395 374 m 337 955 q 385 945 363 955 q 423 919 407 936 q 448 881 439 903 q 456 833 456 858 q 447 784 456 807 q 420 745 437 762 q 381 718 403 728 q 332 708 358 708 q 284 718 306 708 q 247 744 263 727 q 222 783 231 760 q 213 831 213 805 q 223 879 213 856 q 249 918 232 901 q 288 945 265 935 q 337 955 310 955 m 335 744 q 384 770 368 744 q 401 831 401 795 q 384 893 401 867 q 335 918 368 918 q 285 893 301 918 q 269 831 269 867 q 285 770 269 795 q 335 744 301 744 z "},"`":{"ha":347,"x_min":38,"x_max":314,"o":"m 310 688 q 310 676 314 681 q 299 676 307 672 q 235 708 271 688 q 164 752 199 728 q 99 802 129 776 q 54 852 69 828 q 42 878 47 863 q 38 906 38 892 q 45 931 38 919 q 66 949 51 943 q 93 955 80 956 q 117 948 106 953 q 138 933 128 942 q 156 913 148 924 q 168 896 157 912 q 194 858 178 881 q 228 808 210 835 q 263 756 247 781 q 293 713 280 731 q 310 688 306 694 z "},"¨":{"ha":581,"x_min":27,"x_max":555,"o":"m 235 836 q 227 796 235 815 q 205 763 219 777 q 171 741 190 749 q 129 733 151 733 q 88 741 107 733 q 56 762 69 749 q 35 794 42 776 q 27 834 27 813 q 35 874 27 855 q 58 907 44 893 q 92 929 72 921 q 133 938 111 938 q 174 930 156 938 q 207 908 193 922 q 228 876 220 894 q 235 836 235 857 m 555 836 q 547 796 555 815 q 524 763 538 777 q 490 741 510 749 q 449 733 471 733 q 408 741 426 733 q 375 762 389 749 q 354 794 362 776 q 347 834 347 813 q 355 874 347 855 q 377 907 363 893 q 411 929 392 921 q 453 938 431 938 q 494 930 475 938 q 526 908 513 922 q 547 876 540 894 q 555 836 555 857 z "},"ˆ":{"ha":485,"x_min":17,"x_max":467,"o":"m 463 688 q 464 676 467 681 q 453 676 460 672 q 405 699 431 685 q 352 730 379 713 q 298 765 324 747 q 251 803 272 784 q 234 803 242 810 q 186 765 213 784 q 133 730 160 747 q 80 699 106 713 q 32 676 53 685 q 21 676 24 672 q 22 688 17 681 q 39 713 26 694 q 68 756 51 731 q 103 808 85 781 q 137 858 122 835 q 164 896 153 881 q 176 913 174 912 q 205 942 188 930 q 242 955 222 955 q 280 942 263 955 q 309 913 297 930 q 321 896 310 912 q 348 858 332 881 q 382 808 363 835 q 417 756 400 781 q 446 713 433 731 q 463 688 459 694 z "},"¸":{"ha":347,"x_min":42,"x_max":304,"o":"m 185 19 q 167 -30 167 -8 q 175 -67 167 -51 q 197 -96 184 -83 q 226 -120 210 -109 q 254 -144 241 -131 q 293 -195 281 -169 q 304 -256 304 -221 q 295 -309 304 -285 q 269 -350 286 -333 q 227 -377 252 -367 q 171 -387 202 -387 q 118 -380 142 -387 q 77 -360 94 -372 q 51 -331 60 -347 q 42 -297 42 -315 q 58 -257 42 -269 q 95 -244 75 -244 q 121 -250 110 -244 q 139 -265 132 -256 q 150 -284 146 -274 q 156 -301 153 -294 q 160 -318 158 -309 q 168 -334 163 -326 q 179 -345 172 -341 q 197 -350 186 -350 q 218 -339 212 -350 q 225 -316 225 -328 q 212 -278 225 -300 q 173 -238 199 -257 q 146 -218 160 -229 q 122 -194 133 -208 q 103 -165 110 -181 q 97 -127 97 -149 q 105 -78 97 -103 q 125 -32 113 -53 q 149 5 137 -11 q 168 26 160 21 l 185 19 z "},"_":{"ha":1045,"x_min":42,"x_max":1003,"o":"m 978 49 q 999 45 995 49 q 1003 35 1003 42 q 994 11 1003 23 q 972 0 985 0 l 66 0 q 45 3 49 0 q 42 14 42 7 q 44 25 42 19 q 50 36 46 31 q 58 45 53 42 q 69 49 63 49 l 978 49 l 978 49 z "},"Ÿ":{"ha":875,"x_min":-62,"x_max":941,"o":"m 733 850 q 741 884 744 872 q 728 902 738 896 q 706 911 718 909 q 685 915 693 914 q 675 920 678 916 q 673 927 672 924 q 676 934 673 931 q 687 938 680 938 l 926 938 q 937 934 933 938 q 941 927 940 931 q 938 919 941 923 q 928 915 935 916 q 903 910 918 914 q 872 898 889 906 q 836 874 855 889 q 798 836 817 860 q 769 799 789 825 q 726 741 750 774 q 675 672 701 708 q 627 605 649 636 q 589 551 604 574 q 569 521 573 528 q 558 489 562 504 q 555 451 555 474 l 555 129 q 569 76 555 97 q 601 44 583 56 q 638 28 619 33 q 664 22 656 24 q 673 17 670 21 q 676 10 676 14 q 672 3 676 6 q 662 0 669 0 l 226 0 q 215 3 219 0 q 211 10 212 6 q 214 17 211 14 q 224 22 217 21 q 250 28 232 24 q 286 44 268 33 q 319 76 305 56 q 333 129 333 97 l 333 383 q 333 402 333 393 q 331 420 333 411 q 326 438 330 428 q 317 458 323 447 q 301 483 313 465 q 273 526 290 501 q 236 582 256 551 q 196 644 217 613 q 155 707 175 676 q 117 764 134 738 q 87 809 99 790 q 69 836 74 828 q 42 866 58 852 q 10 890 27 880 q -22 907 -6 901 q -50 915 -37 913 q -59 919 -56 916 q -62 927 -62 923 q -58 934 -62 931 q -48 938 -55 938 l 388 938 q 399 934 395 938 q 402 927 402 931 q 400 920 403 924 q 390 915 397 916 q 369 911 382 914 q 347 902 357 908 q 333 883 337 895 q 338 850 329 870 q 359 810 344 836 q 392 753 374 784 q 431 690 410 722 q 469 630 451 657 q 499 583 487 602 q 515 561 512 565 q 537 560 526 549 q 554 583 540 563 q 589 632 569 603 q 633 696 609 661 q 677 762 656 731 q 714 817 698 793 q 733 850 729 841 m 405 1128 q 397 1088 405 1106 q 374 1055 388 1069 q 340 1032 360 1040 q 299 1024 321 1024 q 258 1032 276 1024 q 225 1054 239 1040 q 204 1086 212 1067 q 197 1126 197 1104 q 205 1166 197 1147 q 227 1199 213 1185 q 261 1221 242 1213 q 303 1229 281 1229 q 344 1221 325 1229 q 376 1200 363 1213 q 397 1167 390 1186 q 405 1128 405 1149 m 724 1128 q 716 1088 724 1106 q 693 1055 708 1069 q 660 1032 679 1040 q 618 1024 640 1024 q 577 1032 596 1024 q 545 1054 558 1040 q 524 1086 531 1067 q 516 1126 516 1104 q 524 1166 516 1147 q 547 1199 533 1185 q 581 1221 561 1213 q 622 1229 600 1229 q 663 1221 644 1229 q 695 1200 682 1213 q 717 1167 709 1186 q 724 1128 724 1149 z "},"è":{"ha":630,"x_min":22,"x_max":603,"o":"m 229 368 q 218 356 218 368 q 231 235 218 285 q 267 152 243 184 q 327 104 291 119 q 410 89 363 89 q 474 97 446 89 q 523 114 502 104 q 557 133 544 124 q 576 145 570 142 q 592 143 586 149 q 592 126 597 138 q 582 109 590 122 q 561 81 575 97 q 526 48 547 65 q 477 16 506 31 q 411 -8 448 1 q 328 -17 374 -17 q 202 5 258 -17 q 106 68 146 26 q 44 169 66 110 q 22 304 22 229 q 49 449 22 386 q 120 555 76 513 q 219 620 164 598 q 333 642 275 642 q 428 627 387 642 q 500 589 469 613 q 550 535 530 565 q 582 476 569 506 q 599 422 594 447 q 603 381 603 396 q 599 371 603 374 q 587 368 594 368 l 229 368 m 222 414 q 230 405 220 405 q 244 405 232 405 q 273 406 256 406 q 309 408 290 407 q 346 409 328 408 q 377 410 364 410 q 393 411 390 410 q 416 421 404 412 q 428 452 428 430 q 423 499 428 472 q 405 549 417 525 q 374 589 393 572 q 328 605 356 605 q 291 593 307 605 q 264 564 275 582 q 244 523 252 545 q 232 480 237 501 q 225 441 227 458 q 222 414 222 423 m 435 688 q 435 676 439 681 q 424 676 432 672 q 360 708 396 688 q 289 752 324 728 q 224 802 254 776 q 179 852 194 828 q 167 878 172 863 q 163 906 163 892 q 170 931 163 919 q 191 949 176 943 q 218 955 205 956 q 242 948 231 953 q 263 933 253 942 q 281 913 273 924 q 293 896 282 912 q 319 858 303 881 q 353 808 335 835 q 388 756 372 781 q 418 713 405 731 q 435 688 431 694 z "},"é":{"ha":630,"x_min":22,"x_max":603,"o":"m 229 368 l 587 368 q 599 371 594 368 q 603 381 603 374 q 599 422 603 396 q 582 476 594 447 q 550 535 569 506 q 500 589 530 565 q 428 627 469 613 q 333 642 387 642 q 219 620 275 642 q 120 555 164 598 q 49 449 76 513 q 22 304 22 386 q 44 169 22 229 q 106 68 66 110 q 202 5 146 26 q 328 -17 258 -17 q 411 -8 374 -17 q 477 16 448 1 q 526 48 506 31 q 561 81 547 65 q 582 109 575 97 q 592 126 590 122 q 592 143 597 138 q 576 145 586 149 q 557 133 570 142 q 523 114 544 124 q 474 97 502 104 q 410 89 446 89 q 327 104 363 89 q 267 152 291 119 q 231 235 243 184 q 218 356 218 285 q 229 368 218 368 m 222 414 q 225 441 222 423 q 232 480 227 458 q 244 523 237 501 q 264 564 252 545 q 291 593 275 582 q 328 605 307 605 q 374 589 356 605 q 405 549 393 572 q 423 499 417 525 q 428 452 428 472 q 416 421 428 430 q 393 411 404 412 q 377 410 390 410 q 346 409 364 410 q 309 408 328 408 q 273 406 290 407 q 244 405 256 406 q 230 405 232 405 q 222 414 220 405 m 263 688 q 280 713 267 694 q 310 756 293 731 q 345 808 326 781 q 379 858 363 835 q 405 896 394 881 q 417 913 416 912 q 435 933 425 924 q 456 948 444 942 q 480 955 467 953 q 507 949 493 956 q 528 931 522 943 q 535 906 535 919 q 531 878 535 892 q 519 852 526 863 q 474 802 503 828 q 409 752 444 776 q 338 708 374 728 q 274 676 301 688 q 263 676 266 672 q 263 688 259 681 z "},"ê":{"ha":630,"x_min":22,"x_max":603,"o":"m 229 368 q 218 356 218 368 q 231 235 218 285 q 267 152 243 184 q 327 104 291 119 q 410 89 363 89 q 474 97 446 89 q 523 114 502 104 q 557 133 544 124 q 576 145 570 142 q 592 143 586 149 q 592 126 597 138 q 582 109 590 122 q 561 81 575 97 q 526 48 547 65 q 477 16 506 31 q 411 -8 448 1 q 328 -17 374 -17 q 202 5 258 -17 q 106 68 146 26 q 44 169 66 110 q 22 304 22 229 q 49 449 22 386 q 120 555 76 513 q 219 620 164 598 q 333 642 275 642 q 428 627 387 642 q 500 589 469 613 q 550 535 530 565 q 582 476 569 506 q 599 422 594 447 q 603 381 603 396 q 599 371 603 374 q 587 368 594 368 l 229 368 m 222 414 q 230 405 220 405 q 244 405 232 405 q 273 406 256 406 q 309 408 290 407 q 346 409 328 408 q 377 410 364 410 q 393 411 390 410 q 416 421 404 412 q 428 452 428 430 q 423 499 428 472 q 405 549 417 525 q 374 589 393 572 q 328 605 356 605 q 291 593 307 605 q 264 564 275 582 q 244 523 252 545 q 232 480 237 501 q 225 441 227 458 q 222 414 222 423 m 548 688 q 549 676 552 681 q 538 676 545 672 q 490 699 516 685 q 436 730 464 713 q 383 765 409 747 q 335 803 357 784 q 319 803 326 810 q 271 765 297 784 q 218 730 245 747 q 164 699 190 713 q 117 676 138 685 q 106 676 109 672 q 106 688 102 681 q 123 713 110 694 q 153 756 136 731 q 188 808 169 781 q 222 858 206 835 q 248 896 238 881 q 260 913 259 912 q 290 942 273 930 q 327 955 307 955 q 364 942 347 955 q 394 913 381 930 q 406 896 395 912 q 432 858 417 881 q 466 808 448 835 q 501 756 485 781 q 531 713 518 731 q 548 688 544 694 z "},"ë":{"ha":630,"x_min":22,"x_max":603,"o":"m 229 368 q 218 356 218 368 q 231 235 218 285 q 267 152 243 184 q 327 104 291 119 q 410 89 363 89 q 474 97 446 89 q 523 114 502 104 q 557 133 544 124 q 576 145 570 142 q 592 143 586 149 q 592 126 597 138 q 582 109 590 122 q 561 81 575 97 q 526 48 547 65 q 477 16 506 31 q 411 -8 448 1 q 328 -17 374 -17 q 202 5 258 -17 q 106 68 146 26 q 44 169 66 110 q 22 304 22 229 q 49 449 22 386 q 120 555 76 513 q 219 620 164 598 q 333 642 275 642 q 428 627 387 642 q 500 589 469 613 q 550 535 530 565 q 582 476 569 506 q 599 422 594 447 q 603 381 603 396 q 599 371 603 374 q 587 368 594 368 l 229 368 m 222 414 q 230 405 220 405 q 244 405 232 405 q 273 406 256 406 q 309 408 290 407 q 346 409 328 408 q 377 410 364 410 q 393 411 390 410 q 416 421 404 412 q 428 452 428 430 q 423 499 428 472 q 405 549 417 525 q 374 589 393 572 q 328 605 356 605 q 291 593 307 605 q 264 564 275 582 q 244 523 252 545 q 232 480 237 501 q 225 441 227 458 q 222 414 222 423 z "},"ì":{"ha":398,"x_min":16,"x_max":391,"o":"m 297 109 q 308 64 297 81 q 334 38 319 47 q 361 25 348 28 q 381 20 375 21 q 389 16 386 19 q 390 9 391 13 q 386 3 390 6 q 378 0 383 0 l 29 0 q 20 3 24 0 q 17 9 17 6 q 18 16 16 13 q 26 20 21 19 q 45 25 32 21 q 73 38 59 28 q 99 64 88 47 q 110 109 110 81 l 110 495 q 101 506 110 504 q 91 508 100 506 q 72 513 83 510 q 51 518 60 516 q 40 521 42 520 q 30 530 31 523 q 40 540 30 538 q 99 557 67 547 q 163 582 131 568 q 224 611 194 595 q 278 642 254 626 q 291 646 284 647 q 297 635 297 645 l 297 109 m 317 688 q 317 676 321 681 q 306 676 314 672 q 242 708 278 688 q 171 752 206 728 q 106 802 136 776 q 61 852 76 828 q 49 878 53 863 q 45 906 44 892 q 52 931 45 919 q 73 949 58 943 q 100 955 87 956 q 124 948 113 953 q 145 933 135 942 q 163 913 155 924 q 175 896 164 912 q 201 858 185 881 q 235 808 217 835 q 270 756 253 781 q 300 713 287 731 q 317 688 313 694 z "},"î":{"ha":398,"x_min":-29,"x_max":421,"o":"m 297 109 q 308 64 297 81 q 334 38 319 47 q 361 25 348 28 q 381 20 375 21 q 389 16 386 19 q 390 9 391 13 q 386 3 390 6 q 378 0 383 0 l 29 0 q 20 3 24 0 q 17 9 17 6 q 18 16 16 13 q 26 20 21 19 q 45 25 32 21 q 73 38 59 28 q 99 64 88 47 q 110 109 110 81 l 110 495 q 101 506 110 504 q 91 508 100 506 q 72 513 83 510 q 51 518 60 516 q 40 521 42 520 q 30 530 31 523 q 40 540 30 538 q 99 557 67 547 q 163 582 131 568 q 224 611 194 595 q 278 642 254 626 q 291 646 284 647 q 297 635 297 645 l 297 109 m 417 688 q 417 676 421 681 q 406 676 414 672 q 359 699 385 685 q 305 730 333 713 q 252 765 278 747 q 204 803 226 784 q 188 803 195 810 q 140 765 166 784 q 86 730 114 747 q 33 699 59 713 q -15 676 7 685 q -26 676 -22 672 q -25 688 -29 681 q -8 713 -21 694 q 22 756 5 731 q 57 808 38 781 q 91 858 75 835 q 117 896 106 881 q 129 913 128 912 q 159 942 142 930 q 196 955 176 955 q 233 942 216 955 q 263 913 250 930 q 275 896 264 912 q 301 858 285 881 q 335 808 317 835 q 370 756 353 781 q 400 713 387 731 q 417 688 413 694 z "},"ï":{"ha":398,"x_min":-74,"x_max":454,"o":"m 297 635 q 291 646 297 645 q 278 642 284 647 q 224 611 254 626 q 163 582 194 595 q 99 557 131 568 q 40 540 67 547 q 30 530 30 538 q 40 521 31 523 q 51 518 42 520 q 72 513 60 516 q 91 508 83 510 q 101 506 100 506 q 110 495 110 504 l 110 109 q 99 64 110 81 q 73 38 88 47 q 45 25 59 28 q 26 20 32 21 q 18 16 21 19 q 17 9 16 13 q 20 3 17 6 q 29 0 24 0 l 378 0 q 386 3 383 0 q 390 9 390 6 q 389 16 391 13 q 381 20 386 19 q 361 25 375 21 q 334 38 348 28 q 308 64 319 47 q 297 109 297 81 l 297 635 m 135 836 q 126 796 135 815 q 104 763 118 777 q 70 741 90 749 q 28 733 51 733 q -12 741 6 733 q -45 762 -31 749 q -66 794 -58 776 q -74 834 -74 813 q -65 874 -74 855 q -43 907 -57 893 q -9 929 -28 921 q 33 938 10 938 q 74 930 55 938 q 106 908 92 922 q 127 876 119 894 q 135 836 135 857 m 454 836 q 446 796 454 815 q 423 763 438 777 q 390 741 409 749 q 348 733 370 733 q 307 741 326 733 q 275 762 288 749 q 253 794 261 776 q 246 834 246 813 q 254 874 246 855 q 277 907 263 893 q 310 929 291 921 q 352 938 330 938 q 393 930 374 938 q 425 908 412 922 q 447 876 439 894 q 454 836 454 857 z "},"ò":{"ha":704,"x_min":19,"x_max":685,"o":"m 359 642 q 491 617 431 642 q 594 548 551 592 q 661 444 637 503 q 685 316 685 384 q 659 187 685 247 q 587 81 633 126 q 479 9 541 35 q 345 -17 417 -17 q 214 8 274 -17 q 110 77 153 33 q 43 181 67 122 q 19 309 19 240 q 45 438 19 377 q 117 544 72 499 q 225 616 163 590 q 359 642 288 642 m 352 19 q 410 42 385 19 q 451 105 435 65 q 476 199 467 145 q 484 313 484 252 q 476 426 484 373 q 451 520 467 480 q 410 583 435 560 q 352 606 385 606 q 294 583 319 606 q 253 520 269 560 q 228 426 236 480 q 220 313 220 373 q 228 199 220 252 q 253 105 236 145 q 294 42 269 65 q 352 19 319 19 m 442 688 q 442 676 446 681 q 431 676 439 672 q 367 708 403 688 q 296 752 331 728 q 231 802 261 776 q 186 852 201 828 q 174 878 178 863 q 170 906 169 892 q 177 931 170 919 q 198 949 183 943 q 225 955 212 956 q 249 948 238 953 q 270 933 260 942 q 288 913 280 924 q 300 896 289 912 q 326 858 310 881 q 360 808 342 835 q 395 756 378 781 q 425 713 412 731 q 442 688 438 694 z "},"ó":{"ha":704,"x_min":19,"x_max":685,"o":"m 359 642 q 225 616 288 642 q 117 544 163 590 q 45 438 72 499 q 19 309 19 377 q 43 181 19 240 q 110 77 67 122 q 214 8 153 33 q 345 -17 274 -17 q 479 9 417 -17 q 587 81 541 35 q 659 187 633 126 q 685 316 685 247 q 661 444 685 384 q 594 548 637 503 q 491 617 551 592 q 359 642 431 642 m 352 19 q 294 42 319 19 q 253 105 269 65 q 228 199 236 145 q 220 313 220 252 q 228 426 220 373 q 253 520 236 480 q 294 583 269 560 q 352 606 319 606 q 410 583 385 606 q 451 520 435 560 q 476 426 467 480 q 484 313 484 373 q 476 199 484 252 q 451 105 467 145 q 410 42 435 65 q 352 19 385 19 m 283 688 q 300 713 288 694 q 330 756 313 731 q 365 808 347 781 q 399 858 383 835 q 425 896 415 881 q 438 913 436 912 q 455 933 445 924 q 476 948 465 942 q 500 955 488 953 q 527 949 513 956 q 548 931 542 943 q 555 906 555 919 q 551 878 556 892 q 539 852 546 863 q 494 802 524 828 q 429 752 464 776 q 358 708 394 728 q 294 676 322 688 q 283 676 286 672 q 283 688 279 681 z "},"ô":{"ha":704,"x_min":19,"x_max":685,"o":"m 359 642 q 491 617 431 642 q 594 548 551 592 q 661 444 637 503 q 685 316 685 384 q 659 187 685 247 q 587 81 633 126 q 479 9 541 35 q 345 -17 417 -17 q 214 8 274 -17 q 110 77 153 33 q 43 181 67 122 q 19 309 19 240 q 45 438 19 377 q 117 544 72 499 q 225 616 163 590 q 359 642 288 642 m 352 19 q 410 42 385 19 q 451 105 435 65 q 476 199 467 145 q 484 313 484 252 q 476 426 484 373 q 451 520 467 480 q 410 583 435 560 q 352 606 385 606 q 294 583 319 606 q 253 520 269 560 q 228 426 236 480 q 220 313 220 373 q 228 199 220 252 q 253 105 236 145 q 294 42 269 65 q 352 19 319 19 m 573 688 q 574 676 577 681 q 563 676 570 672 q 515 699 541 685 q 461 730 489 713 q 408 765 434 747 q 360 803 382 784 q 344 803 351 810 q 296 765 322 784 q 243 730 270 747 q 189 699 215 713 q 142 676 163 685 q 131 676 134 672 q 131 688 127 681 q 148 713 135 694 q 178 756 161 731 q 213 808 194 781 q 247 858 231 835 q 273 896 263 881 q 285 913 284 912 q 315 942 298 930 q 352 955 332 955 q 389 942 372 955 q 419 913 406 930 q 431 896 420 912 q 457 858 442 881 q 491 808 473 835 q 526 756 510 781 q 556 713 543 731 q 573 688 569 694 z "},"õ":{"ha":704,"x_min":19,"x_max":685,"o":"m 359 642 q 225 616 288 642 q 117 544 163 590 q 45 438 72 499 q 19 309 19 377 q 43 181 19 240 q 110 77 67 122 q 214 8 153 33 q 345 -17 274 -17 q 479 9 417 -17 q 587 81 541 35 q 659 187 633 126 q 685 316 685 247 q 661 444 685 384 q 594 548 637 503 q 491 617 551 592 q 359 642 431 642 m 352 19 q 294 42 319 19 q 253 105 269 65 q 228 199 236 145 q 220 313 220 252 q 228 426 220 373 q 253 520 236 480 q 294 583 269 560 q 352 606 319 606 q 410 583 385 606 q 451 520 435 560 q 476 426 467 480 q 484 313 484 373 q 476 199 484 252 q 451 105 467 145 q 410 42 435 65 q 352 19 385 19 m 645 868 q 620 808 637 835 q 578 759 603 780 q 519 727 553 739 q 445 716 486 716 q 362 729 402 716 q 284 757 322 742 q 210 786 246 773 q 138 799 174 799 q 95 792 112 799 q 69 777 79 784 q 58 776 63 773 q 57 787 53 780 q 89 836 72 813 q 128 876 106 859 q 179 902 151 892 q 244 911 208 911 q 329 900 294 911 q 394 877 364 890 q 455 854 424 865 q 527 843 486 843 q 589 853 565 843 q 632 876 613 863 q 642 878 638 881 q 645 868 647 876 z "},"ö":{"ha":704,"x_min":19,"x_max":685,"o":"m 359 642 q 225 616 288 642 q 117 544 163 590 q 45 438 72 499 q 19 309 19 377 q 43 181 19 240 q 110 77 67 122 q 214 8 153 33 q 345 -17 274 -17 q 479 9 417 -17 q 587 81 541 35 q 659 187 633 126 q 685 316 685 247 q 661 444 685 384 q 594 548 637 503 q 491 617 551 592 q 359 642 431 642 m 352 19 q 294 42 319 19 q 253 105 269 65 q 228 199 236 145 q 220 313 220 252 q 228 426 220 373 q 253 520 236 480 q 294 583 269 560 q 352 606 319 606 q 410 583 385 606 q 451 520 435 560 q 476 426 467 480 q 484 313 484 373 q 476 199 484 252 q 451 105 467 145 q 410 42 435 65 q 352 19 385 19 m 297 836 q 288 796 297 815 q 266 763 280 777 q 232 741 251 749 q 190 733 213 733 q 149 741 168 733 q 117 762 131 749 q 96 794 103 776 q 88 834 88 813 q 97 874 88 855 q 119 907 105 893 q 153 929 133 921 q 194 938 172 938 q 235 930 217 938 q 268 908 254 922 q 289 876 281 894 q 297 836 297 857 m 616 836 q 608 796 616 815 q 585 763 599 777 q 551 741 571 749 q 510 733 532 733 q 469 741 488 733 q 436 762 450 749 q 415 794 423 776 q 408 834 408 813 q 416 874 408 855 q 439 907 424 893 q 472 929 453 921 q 514 938 492 938 q 555 930 536 938 q 587 908 574 922 q 608 876 601 894 q 616 836 616 857 z "},"ù":{"ha":795,"x_min":-12,"x_max":780,"o":"m 769 20 q 777 16 775 19 q 779 9 780 13 q 775 3 778 6 q 767 0 772 0 l 515 0 q 503 3 508 0 q 499 15 499 7 l 499 56 q 423 5 469 26 q 308 -17 376 -17 q 212 -5 251 -17 q 148 28 174 8 q 109 76 123 49 q 90 133 96 103 q 83 191 84 162 q 82 244 82 219 l 82 516 q 71 561 82 544 q 45 587 60 578 q 18 600 31 597 q -1 605 4 603 q -9 609 -7 606 q -11 616 -12 613 q -7 622 -10 619 q 1 625 -4 625 l 253 625 q 269 607 269 625 l 269 201 q 275 145 270 173 q 291 95 279 117 q 325 58 303 72 q 384 44 347 44 q 445 61 423 44 q 480 102 468 77 q 495 157 492 127 q 499 215 499 188 l 499 516 q 488 561 499 544 q 462 587 476 578 q 434 600 448 597 q 415 605 421 603 q 407 609 410 606 q 406 616 405 613 q 409 622 406 619 q 418 625 413 625 l 669 625 q 686 607 686 625 l 686 109 q 697 64 686 81 q 723 38 708 47 q 750 25 737 28 q 769 20 764 21 m 456 688 q 456 676 460 681 q 445 676 453 672 q 381 708 417 688 q 310 752 345 728 q 245 802 275 776 q 200 852 215 828 q 188 878 192 863 q 184 906 183 892 q 191 931 184 919 q 212 949 197 943 q 239 955 226 956 q 263 948 251 953 q 284 933 274 942 q 301 913 294 924 q 314 896 303 912 q 340 858 324 881 q 374 808 356 835 q 409 756 392 781 q 439 713 426 731 q 456 688 451 694 z "},"ú":{"ha":795,"x_min":-12,"x_max":780,"o":"m 769 20 q 750 25 764 21 q 723 38 737 28 q 697 64 708 47 q 686 109 686 81 l 686 607 q 669 625 686 625 l 418 625 q 409 622 413 625 q 406 616 406 619 q 407 609 405 613 q 415 605 410 606 q 434 600 421 603 q 462 587 448 597 q 488 561 476 578 q 499 516 499 544 l 499 215 q 495 157 499 188 q 480 102 492 127 q 445 61 468 77 q 384 44 423 44 q 325 58 347 44 q 291 95 303 72 q 275 145 279 117 q 269 201 270 173 l 269 607 q 253 625 269 625 l 1 625 q -7 622 -4 625 q -11 616 -10 619 q -9 609 -12 613 q -1 605 -7 606 q 18 600 4 603 q 45 587 31 597 q 71 561 60 578 q 82 516 82 544 l 82 244 q 83 191 82 219 q 90 133 84 162 q 109 76 96 103 q 148 28 123 49 q 212 -5 174 8 q 308 -17 251 -17 q 423 5 376 -17 q 499 56 469 26 l 499 15 q 503 3 499 7 q 515 0 508 0 l 767 0 q 775 3 772 0 q 779 9 778 6 q 777 16 780 13 q 769 20 775 19 m 284 688 q 301 713 288 694 q 331 756 314 731 q 366 808 347 781 q 400 858 384 835 q 426 896 415 881 q 438 913 437 912 q 456 933 446 924 q 477 948 465 942 q 501 955 488 953 q 528 949 514 956 q 549 931 542 943 q 556 906 556 919 q 551 878 556 892 q 540 852 547 863 q 494 802 524 828 q 430 752 465 776 q 358 708 394 728 q 294 676 322 688 q 283 676 287 672 q 284 688 280 681 z "},"û":{"ha":795,"x_min":-12,"x_max":780,"o":"m 769 20 q 777 16 775 19 q 779 9 780 13 q 775 3 778 6 q 767 0 772 0 l 515 0 q 503 3 508 0 q 499 15 499 7 l 499 56 q 423 5 469 26 q 308 -17 376 -17 q 212 -5 251 -17 q 148 28 174 8 q 109 76 123 49 q 90 133 96 103 q 83 191 84 162 q 82 244 82 219 l 82 516 q 71 561 82 544 q 45 587 60 578 q 18 600 31 597 q -1 605 4 603 q -9 609 -7 606 q -11 616 -12 613 q -7 622 -10 619 q 1 625 -4 625 l 253 625 q 269 607 269 625 l 269 201 q 275 145 270 173 q 291 95 279 117 q 325 58 303 72 q 384 44 347 44 q 445 61 423 44 q 480 102 468 77 q 495 157 492 127 q 499 215 499 188 l 499 516 q 488 561 499 544 q 462 587 476 578 q 434 600 448 597 q 415 605 421 603 q 407 609 410 606 q 406 616 405 613 q 409 622 406 619 q 418 625 413 625 l 669 625 q 686 607 686 625 l 686 109 q 697 64 686 81 q 723 38 708 47 q 750 25 737 28 q 769 20 764 21 m 590 688 q 591 676 594 681 q 580 676 588 672 q 532 699 558 685 q 479 730 506 713 q 425 765 451 747 q 378 803 399 784 q 361 803 369 810 q 314 765 340 784 q 260 730 288 747 q 207 699 233 713 q 159 676 181 685 q 148 676 151 672 q 149 688 144 681 q 166 713 153 694 q 195 756 178 731 q 230 808 212 781 q 264 858 249 835 q 291 896 280 881 q 303 913 301 912 q 332 942 315 930 q 369 955 349 955 q 407 942 390 955 q 436 913 424 930 q 448 896 438 912 q 475 858 459 881 q 509 808 490 835 q 544 756 527 781 q 573 713 560 731 q 590 688 586 694 z "},"ü":{"ha":795,"x_min":-12,"x_max":780,"o":"m 769 20 q 750 25 764 21 q 723 38 737 28 q 697 64 708 47 q 686 109 686 81 l 686 607 q 669 625 686 625 l 418 625 q 409 622 413 625 q 406 616 406 619 q 407 609 405 613 q 415 605 410 606 q 434 600 421 603 q 462 587 448 597 q 488 561 476 578 q 499 516 499 544 l 499 215 q 495 157 499 188 q 480 102 492 127 q 445 61 468 77 q 384 44 423 44 q 325 58 347 44 q 291 95 303 72 q 275 145 279 117 q 269 201 270 173 l 269 607 q 253 625 269 625 l 1 625 q -7 622 -4 625 q -11 616 -10 619 q -9 609 -12 613 q -1 605 -7 606 q 18 600 4 603 q 45 587 31 597 q 71 561 60 578 q 82 516 82 544 l 82 244 q 83 191 82 219 q 90 133 84 162 q 109 76 96 103 q 148 28 123 49 q 212 -5 174 8 q 308 -17 251 -17 q 423 5 376 -17 q 499 56 469 26 l 499 15 q 503 3 499 7 q 515 0 508 0 l 767 0 q 775 3 772 0 q 779 9 778 6 q 777 16 780 13 q 769 20 775 19 m 318 836 q 310 796 318 815 q 287 763 301 777 q 253 741 273 749 q 212 733 234 733 q 171 741 190 733 q 139 762 152 749 q 117 794 125 776 q 110 834 110 813 q 118 874 110 855 q 141 907 126 893 q 174 929 155 921 q 216 938 194 938 q 257 930 238 938 q 289 908 276 922 q 310 876 303 894 q 318 836 318 857 m 638 836 q 629 796 638 815 q 607 763 621 777 q 573 741 592 749 q 531 733 553 733 q 490 741 509 733 q 458 762 472 749 q 437 794 444 776 q 429 834 429 813 q 438 874 429 855 q 460 907 446 893 q 494 929 474 921 q 535 938 513 938 q 576 930 558 938 q 609 908 595 922 q 630 876 622 894 q 638 836 638 857 z "},"ý":{"ha":617,"x_min":-32,"x_max":652,"o":"m 192 -166 l 283 37 q 254 105 272 63 q 215 197 236 147 q 171 299 193 247 q 129 395 149 351 q 96 470 110 439 q 77 512 82 502 q 57 547 67 532 q 36 573 47 562 q 11 591 25 584 q -22 603 -3 599 q -30 608 -27 605 q -32 616 -32 612 q -28 622 -31 619 q -19 625 -25 625 l 328 625 q 336 622 333 625 q 340 616 340 619 q 339 608 341 612 q 331 603 337 604 q 308 595 320 600 q 287 582 296 591 q 275 557 278 572 q 280 516 272 541 q 292 483 283 505 q 310 436 300 462 q 332 383 321 410 q 353 333 343 356 q 369 295 363 310 q 378 277 376 279 q 388 277 383 268 q 397 299 390 282 q 412 339 403 315 q 431 389 421 362 q 451 441 442 416 q 467 486 460 465 q 477 516 474 506 q 482 557 485 541 q 472 582 480 572 q 451 595 463 591 q 429 603 440 600 q 421 608 423 604 q 419 616 419 612 q 423 622 420 619 q 432 625 426 625 l 640 625 q 648 622 644 625 q 651 616 651 619 q 650 608 652 612 q 642 603 647 605 q 610 591 624 599 q 584 573 596 584 q 563 547 573 562 q 543 512 553 532 q 525 474 539 503 q 493 403 512 444 q 452 312 474 361 q 408 214 430 263 q 367 123 387 166 q 335 51 348 80 l 216 -215 q 162 -299 193 -267 q 85 -330 131 -330 q 53 -325 69 -330 q 25 -311 38 -321 q 5 -287 13 -302 q -3 -251 -3 -272 q 4 -217 -3 -231 q 23 -194 11 -203 q 51 -181 35 -185 q 82 -177 66 -177 q 119 -184 103 -177 q 149 -194 135 -190 q 172 -193 162 -197 q 192 -166 183 -188 m 263 688 q 280 713 267 694 q 310 756 293 731 q 345 808 326 781 q 379 858 363 835 q 405 896 394 881 q 417 913 416 912 q 435 933 425 924 q 456 948 444 942 q 480 955 467 953 q 507 949 493 956 q 528 931 522 943 q 535 906 535 919 q 531 878 535 892 q 519 852 526 863 q 474 802 503 828 q 409 752 444 776 q 338 708 374 728 q 274 676 301 688 q 263 676 266 672 q 263 688 259 681 z "},"ÿ":{"ha":617,"x_min":-32,"x_max":652,"o":"m 192 -166 l 283 37 q 254 105 272 63 q 215 197 236 147 q 171 299 193 247 q 129 395 149 351 q 96 470 110 439 q 77 512 82 502 q 57 547 67 532 q 36 573 47 562 q 11 591 25 584 q -22 603 -3 599 q -30 608 -27 605 q -32 616 -32 612 q -28 622 -31 619 q -19 625 -25 625 l 328 625 q 336 622 333 625 q 340 616 340 619 q 339 608 341 612 q 331 603 337 604 q 308 595 320 600 q 287 582 296 591 q 275 557 278 572 q 280 516 272 541 q 292 483 283 505 q 310 436 300 462 q 332 383 321 410 q 353 333 343 356 q 369 295 363 310 q 378 277 376 279 q 388 277 383 268 q 397 299 390 282 q 412 339 403 315 q 431 389 421 362 q 451 441 442 416 q 467 486 460 465 q 477 516 474 506 q 482 557 485 541 q 472 582 480 572 q 451 595 463 591 q 429 603 440 600 q 421 608 423 604 q 419 616 419 612 q 423 622 420 619 q 432 625 426 625 l 640 625 q 648 622 644 625 q 651 616 651 619 q 650 608 652 612 q 642 603 647 605 q 610 591 624 599 q 584 573 596 584 q 563 547 573 562 q 543 512 553 532 q 525 474 539 503 q 493 403 512 444 q 452 312 474 361 q 408 214 430 263 q 367 123 387 166 q 335 51 348 80 l 216 -215 q 162 -299 193 -267 q 85 -330 131 -330 q 53 -325 69 -330 q 25 -311 38 -321 q 5 -287 13 -302 q -3 -251 -3 -272 q 4 -217 -3 -231 q 23 -194 11 -203 q 51 -181 35 -185 q 82 -177 66 -177 q 119 -184 103 -177 q 149 -194 135 -190 q 172 -193 162 -197 q 192 -166 183 -188 m 263 836 q 255 796 263 815 q 232 763 247 777 q 199 741 218 749 q 157 733 179 733 q 116 741 135 733 q 84 762 97 749 q 63 794 70 776 q 55 834 55 813 q 63 874 55 855 q 86 907 72 893 q 119 929 100 921 q 161 938 139 938 q 202 930 183 938 q 234 908 221 922 q 256 876 248 894 q 263 836 263 857 m 583 836 q 574 796 583 815 q 552 763 566 777 q 518 741 538 749 q 476 733 499 733 q 435 741 454 733 q 403 762 417 749 q 382 794 390 776 q 374 834 374 813 q 383 874 374 855 q 405 907 391 893 q 439 929 419 921 q 481 938 458 938 q 522 930 503 938 q 554 908 540 922 q 575 876 567 894 q 583 836 583 857 z "},"D":{"ha":1009,"x_min":-469,"x_max":983,"o":"m -469 463 q -442 594 -469 531 q -364 713 -415 658 q -240 813 -312 767 q -76 890 -167 858 q 122 939 15 922 q 349 957 229 957 q 624 929 505 957 q 822 843 742 901 q 942 692 901 784 q 983 474 983 601 q 954 289 983 375 q 867 139 925 203 q 720 37 808 74 q 513 0 632 0 l 28 0 q 18 3 22 0 q 14 10 15 6 q 17 17 14 14 q 26 22 20 21 q 53 28 35 24 q 89 44 71 33 q 122 76 108 56 q 135 129 135 97 l 135 837 q 125 862 135 855 q 102 869 114 869 q 36 853 72 869 q -38 806 -1 836 q -111 733 -76 776 q -175 639 -147 691 q -220 528 -203 588 q -237 405 -237 469 q -226 310 -237 351 q -202 241 -215 269 q -176 198 -188 213 q -160 179 -164 183 q -157 166 -155 174 q -171 159 -159 159 q -198 161 -175 159 q -255 173 -222 164 q -326 202 -288 183 q -395 255 -363 221 q -448 339 -427 288 q -469 463 -469 390 m 513 42 q 606 74 567 42 q 668 163 644 106 q 704 298 693 219 q 715 469 715 376 q 673 757 715 654 q 538 884 631 860 q 510 889 528 887 q 475 892 493 891 q 439 894 456 894 q 411 895 422 895 q 377 883 390 895 q 365 852 365 872 l 365 333 q 372 199 365 254 q 397 109 379 144 q 442 58 414 74 q 513 42 471 42 z "},"L":{"ha":559,"x_min":-126,"x_max":1201,"o":"m 1175 -51 q 1196 -49 1191 -42 q 1194 -70 1201 -56 q 1122 -159 1168 -115 q 1013 -240 1076 -204 q 870 -298 949 -276 q 697 -321 790 -321 q 528 -301 607 -321 q 377 -251 449 -281 q 241 -186 306 -221 q 118 -124 177 -152 q 2 -78 58 -95 q -108 -66 -53 -61 q -123 -61 -120 -67 q -117 -47 -126 -55 q -46 -9 -91 -25 q 55 7 -1 7 q 124 5 90 7 q 135 14 135 4 l 135 808 q 122 861 135 840 q 89 893 108 881 q 53 909 71 904 q 26 915 35 914 q 17 920 20 916 q 14 927 14 924 q 18 934 15 931 q 28 938 22 938 l 472 938 q 482 934 478 938 q 486 927 485 931 q 483 920 486 924 q 474 915 480 916 q 447 909 465 914 q 411 893 429 904 q 378 861 392 881 q 365 808 365 840 l 365 3 q 373 -25 365 -17 q 395 -38 381 -33 q 483 -62 428 -49 q 603 -88 538 -76 q 737 -109 668 -101 q 865 -117 806 -117 q 958 -113 915 -117 q 1038 -101 1000 -109 q 1109 -80 1075 -92 q 1175 -51 1142 -67 z "},"Q":{"ha":1042,"x_min":-12,"x_max":1316,"o":"m 531 957 q 665 940 601 957 q 782 892 728 923 q 878 816 835 860 q 951 719 922 772 q 998 603 981 665 q 1014 474 1014 541 q 996 343 1014 406 q 946 226 978 281 q 868 126 914 172 q 766 48 822 81 q 646 -2 710 16 q 510 -19 581 -19 q 316 18 404 -19 q 163 121 227 56 q 64 274 99 186 q 28 463 28 362 q 45 593 28 531 q 95 711 63 656 q 174 811 128 766 q 275 889 219 857 q 396 939 331 922 q 531 957 460 957 m 521 22 q 620 57 578 22 q 691 152 663 92 q 733 294 719 213 q 747 469 747 376 q 733 643 747 561 q 691 785 719 724 q 620 881 663 846 q 521 916 578 916 q 422 881 464 916 q 351 785 379 846 q 309 643 323 724 q 295 469 295 561 q 309 294 295 376 q 351 152 323 213 q 422 57 379 92 q 521 22 464 22 m 812 -360 q 642 -340 722 -360 q 492 -290 563 -320 q 356 -226 420 -260 q 232 -163 292 -192 q 117 -118 173 -135 q 6 -106 61 -101 q -9 -101 -6 -107 q -3 -87 -12 -94 q 68 -49 24 -65 q 169 -33 113 -33 q 312 -42 242 -33 q 449 -65 381 -51 q 583 -95 517 -78 q 715 -125 649 -111 q 847 -148 781 -138 q 980 -157 913 -157 q 1072 -153 1030 -157 q 1152 -140 1115 -149 q 1223 -119 1190 -132 q 1290 -90 1257 -107 q 1311 -89 1306 -82 q 1308 -110 1316 -96 q 1237 -199 1283 -154 q 1127 -280 1191 -244 q 984 -338 1064 -315 q 812 -360 905 -360 z "},"Z":{"ha":714,"x_min":-176,"x_max":1152,"o":"m 1126 -51 q 1147 -49 1142 -42 q 1144 -70 1152 -56 q 1073 -159 1119 -115 q 964 -240 1027 -204 q 820 -298 900 -276 q 648 -321 741 -321 q 478 -301 558 -321 q 328 -251 399 -281 q 192 -186 256 -221 q 68 -124 128 -152 q -47 -78 9 -95 q -158 -66 -103 -61 q -173 -61 -169 -67 q -167 -47 -176 -55 q -95 -9 -140 -25 q 6 7 -51 7 q 20 10 15 7 q 28 19 25 13 q 39 38 29 20 q 65 87 49 56 q 105 160 82 118 q 154 250 128 201 q 209 352 181 299 q 268 460 238 406 q 504 896 372 652 l 330 896 q 256 886 289 896 q 199 860 224 876 q 157 826 175 845 q 128 790 140 807 q 110 758 117 772 q 101 738 103 744 q 88 727 97 726 q 79 740 79 728 l 79 924 q 94 938 79 938 l 780 938 q 526 471 638 677 q 463 355 494 413 q 404 245 432 297 q 351 148 376 193 q 309 70 326 103 q 281 18 291 37 q 269 -3 270 -1 q 268 -16 266 -10 q 278 -24 269 -22 q 414 -54 347 -37 q 547 -85 481 -71 q 681 -108 614 -99 q 816 -117 748 -117 q 908 -113 866 -117 q 988 -101 951 -109 q 1059 -80 1026 -92 q 1126 -51 1093 -67 z "},"I":{"ha":499,"x_min":14,"x_max":486,"o":"m 474 -290 q 483 -295 480 -292 q 486 -302 486 -299 q 482 -309 485 -306 q 472 -312 478 -312 l 28 -312 q 18 -309 22 -312 q 14 -302 15 -306 q 17 -295 14 -299 q 26 -290 20 -292 q 53 -284 35 -289 q 89 -268 71 -280 q 122 -236 108 -256 q 135 -183 135 -216 l 135 808 q 122 861 135 840 q 89 893 108 881 q 53 909 71 904 q 26 915 35 914 q 17 920 20 916 q 14 927 14 924 q 18 934 15 931 q 28 938 22 938 l 472 938 q 482 934 478 938 q 486 927 485 931 q 483 920 486 924 q 474 915 480 916 q 447 909 465 914 q 411 893 429 904 q 378 861 392 881 q 365 808 365 840 l 365 -183 q 378 -236 365 -216 q 411 -268 392 -256 q 447 -284 429 -280 q 474 -290 465 -289 z "},"J":{"ha":540,"x_min":-165,"x_max":519,"o":"m 397 145 q 383 -27 397 47 q 344 -155 369 -101 q 286 -242 319 -208 q 213 -296 252 -276 q 130 -324 174 -316 q 43 -332 87 -332 q -64 -320 -23 -332 q -127 -291 -104 -309 q -157 -251 -149 -273 q -165 -210 -165 -230 q -141 -151 -165 -174 q -80 -128 -117 -128 q -62 -128 -70 -128 q -44 -133 -54 -129 q -18 -148 -28 -138 q 1 -170 -7 -158 q 13 -197 8 -183 q 22 -227 18 -212 q 26 -245 24 -235 q 34 -265 29 -256 q 47 -280 39 -274 q 66 -286 54 -286 q 106 -272 88 -286 q 139 -222 125 -258 q 160 -124 153 -186 q 168 33 168 -62 l 168 808 q 154 861 168 840 q 122 893 140 881 q 85 909 103 904 q 59 915 67 914 q 50 920 53 916 q 47 927 47 924 q 51 934 47 931 q 61 938 54 938 l 504 938 q 515 934 511 938 q 518 927 518 931 q 516 920 519 924 q 506 915 513 916 q 480 909 498 914 q 443 893 462 904 q 411 861 425 881 q 397 808 397 840 l 397 145 l 397 145 z "},"B":{"ha":832,"x_min":-469,"x_max":819,"o":"m 135 837 q 125 862 135 855 q 102 869 114 869 q 36 853 72 869 q -38 806 -1 836 q -111 733 -76 776 q -175 639 -147 691 q -220 528 -203 588 q -237 405 -237 469 q -226 310 -237 351 q -202 241 -215 269 q -176 198 -188 213 q -160 179 -164 183 q -157 166 -155 174 q -171 159 -159 159 q -198 161 -175 159 q -255 173 -222 164 q -326 202 -288 183 q -395 255 -363 221 q -448 339 -427 288 q -469 463 -469 390 q -442 594 -469 531 q -364 713 -415 658 q -240 813 -312 767 q -76 890 -167 858 q 122 939 15 922 q 349 957 229 957 q 506 947 440 957 q 619 919 573 937 q 695 877 666 901 q 741 825 724 853 q 763 766 757 797 q 769 705 769 735 q 762 648 769 677 q 739 590 755 618 q 695 536 722 561 q 627 492 667 511 q 624 488 623 490 q 628 484 624 485 q 722 445 685 469 q 781 389 759 420 q 810 323 802 358 q 819 249 819 287 q 801 154 819 199 q 745 75 784 109 q 642 20 706 40 q 486 0 578 0 l 28 0 q 18 3 22 0 q 14 10 15 6 q 17 17 14 14 q 26 22 20 21 q 53 28 35 24 q 89 44 71 33 q 122 76 108 56 q 135 129 135 97 l 135 837 m 365 545 q 375 514 365 526 q 406 503 386 503 q 446 511 424 503 q 487 543 468 519 q 518 611 506 567 q 531 724 531 654 q 528 786 531 755 q 517 843 526 817 q 491 884 508 868 q 443 900 474 900 q 402 891 418 900 q 378 862 387 881 q 367 815 370 843 q 365 749 365 787 l 365 545 m 457 40 q 502 51 484 40 q 533 81 521 63 q 552 123 545 100 q 561 170 558 147 q 565 215 564 194 q 565 252 565 237 q 557 341 565 305 q 535 401 549 378 q 504 438 521 425 q 470 457 487 451 q 437 464 453 463 q 411 465 422 465 q 377 453 390 465 q 365 422 365 442 l 365 204 q 368 136 365 167 q 383 84 372 106 q 411 51 393 63 q 457 40 428 40 z "}}}
